<svg width="1417" height="1194" viewBox="0 0 1417 1194" fill="none" xmlns="http://www.w3.org/2000/svg">
<path opacity="0.15" d="M551.73 984.832H551.717C473.756 984.832 405.056 978.724 349.214 964.952C293.364 951.179 250.429 929.753 223.93 899.162C197.452 868.595 187.33 828.814 197.226 778.185C207.127 727.534 237.062 666.041 290.694 592.13C505.244 296.458 856.504 63.5 1168.22 63.5C1207.18 63.5 1235.08 68.7646 1254.13 78.2822C1273.16 87.7867 1283.37 101.534 1286.98 118.576C1290.59 135.651 1287.58 156.087 1280.03 178.955C1272.48 201.815 1260.41 227.054 1245.98 253.713C1232.06 279.413 1215.95 306.414 1199.57 333.862L1197.74 336.935C1180.73 365.436 1163.52 394.381 1148.27 422.795C1117.77 479.594 1095.04 534.377 1097.48 579.332C1102.36 668.942 1102.34 774.014 1032.98 854.833C963.626 935.644 824.817 992.349 551.73 984.832Z" stroke="white"/>
<path opacity="0.2" d="M624.925 851.97L624.918 851.97H624.911C564.952 851.97 512.123 847.126 469.185 836.208C426.24 825.288 393.243 808.306 372.882 784.07C352.54 759.856 344.757 728.337 352.365 688.206C359.976 648.055 382.993 599.3 424.24 540.69C506.736 423.468 615.525 318.663 733.662 243.167C851.802 167.669 979.26 121.5 1099.1 121.5C1129.05 121.5 1150.49 125.674 1165.13 133.21C1179.73 140.731 1187.57 151.606 1190.33 165.094C1193.1 178.613 1190.79 194.802 1184.99 212.932C1179.18 231.054 1169.91 251.064 1158.8 272.205C1148.1 292.583 1135.71 313.995 1123.11 335.762L1121.7 338.202C1108.62 360.805 1095.38 383.762 1083.65 406.298C1060.19 451.344 1042.69 494.81 1044.58 530.491C1048.33 601.56 1048.31 684.853 994.986 748.914C941.676 812.963 834.957 857.932 624.925 851.97Z" stroke="white"/>
<path opacity="0.25" d="M657.156 764.11H657.142C611.698 764.11 571.662 760.551 539.127 752.529C506.584 744.506 481.6 732.032 466.191 714.247C450.802 696.487 444.909 673.367 450.669 643.908C456.433 614.427 473.866 578.613 505.127 535.543C630.193 363.232 834.933 227.5 1016.58 227.5C1039.28 227.5 1055.51 230.568 1066.58 236.094C1077.62 241.608 1083.53 249.57 1085.62 259.437C1087.71 269.337 1085.97 281.207 1081.57 294.522C1077.18 307.83 1070.15 322.529 1061.73 338.064C1053.62 353.039 1044.23 368.775 1034.68 384.774L1033.61 386.565C1023.7 403.177 1013.66 420.053 1004.76 436.619C986.986 469.725 973.702 501.704 975.133 527.972C977.977 580.207 977.953 641.371 937.574 688.409C897.202 735.44 816.354 768.492 657.156 764.11Z" stroke="white"/>
<path opacity="0.3" d="M705.441 655.274H705.427C679.051 655.274 655.825 653.21 636.958 648.564C618.083 643.916 603.626 636.696 594.72 626.429C585.834 616.186 582.422 602.848 585.755 585.816C589.093 568.762 599.196 548.022 617.337 523.056C689.927 423.16 808.742 344.5 914.115 344.5C927.28 344.5 936.666 346.278 943.05 349.462C949.408 352.633 952.795 357.2 953.992 362.855C955.197 368.543 954.197 375.385 951.649 383.092C949.103 390.792 945.029 399.303 940.146 408.309C935.438 416.989 929.988 426.111 924.443 435.392L923.823 436.428C918.068 446.061 912.238 455.852 907.07 465.464C896.749 484.661 889.007 503.254 889.841 518.553C891.492 548.849 891.468 584.238 868.085 611.446C844.708 638.647 797.851 657.815 705.441 655.274Z" stroke="white"/>
<path opacity="0.1" d="M463.793 1192.64H463.779C362.978 1192.64 274.145 1184.73 201.931 1166.91C129.71 1149.09 74.1667 1121.37 39.8783 1081.76C5.61047 1042.18 -7.48119 990.671 5.32042 925.141C18.1264 859.588 56.843 780.02 126.188 684.401C403.593 301.895 857.769 0.5 1260.84 0.5C1311.22 0.5 1347.32 7.31107 1371.99 19.6378C1396.63 31.9513 1409.86 49.7701 1414.53 71.8627C1419.21 93.9887 1415.3 120.454 1405.54 150.046C1395.78 179.631 1380.17 212.289 1361.5 246.778C1343.51 280.026 1322.68 314.958 1301.5 350.463L1299.13 354.44C1277.15 391.31 1254.9 428.75 1235.18 465.503C1195.75 538.981 1166.38 609.814 1169.54 667.924C1175.85 783.841 1175.82 919.82 1086.11 1024.42C996.397 1129.01 816.875 1202.36 463.793 1192.64Z" stroke="white"/>
</svg>
