<svg width="167" height="78" viewBox="0 0 167 78" fill="none" xmlns="http://www.w3.org/2000/svg">
<path fill-rule="evenodd" clip-rule="evenodd" d="M33.5561 22.1779C33.5561 21.0733 32.6606 20.1779 31.5561 20.1779H2C0.895431 20.1779 0 21.0733 0 22.1779V34.3681C0 35.4727 0.895432 36.3681 2 36.3681H31.5561C32.6606 36.3681 33.5561 35.4727 33.5561 34.3681V22.1779ZM16.778 34.0552C20.0104 34.0552 22.6308 31.4664 22.6308 28.273C22.6308 25.0796 20.0104 22.4908 16.778 22.4908C13.5457 22.4908 10.9252 25.0796 10.9252 28.273C10.9252 31.4664 13.5457 34.0552 16.778 34.0552ZM16.2628 29.552C16.1293 29.552 16.0211 29.6602 16.0211 29.7937C16.0211 29.9272 16.1293 30.0354 16.2628 30.0354H17.6128C17.7767 30.0354 17.9096 30.1683 17.9096 30.3322C17.9096 30.4962 17.7767 30.6291 17.6128 30.6291H16.4621C16.2185 30.6291 16.0211 30.8265 16.0211 31.0701C16.0211 31.3136 15.8236 31.511 15.5801 31.511H15.3461C15.1026 31.511 14.9051 31.3136 14.9051 31.0701V31.0583C14.9051 30.8212 14.713 30.6291 14.4759 30.6291H14.3435C14.1796 30.6291 14.0467 30.4962 14.0467 30.3322C14.0467 30.1683 14.1796 30.0354 14.3435 30.0354H14.4759C14.713 30.0354 14.9051 29.8433 14.9051 29.6062V27.5746C14.9051 26.4701 15.8006 25.5746 16.9051 25.5746H17.3774C18.1785 25.5746 18.8023 25.7443 19.2487 26.0835C19.7008 26.4227 19.9268 26.9174 19.9268 27.5676C19.9268 28.2121 19.7008 28.704 19.2487 29.0432C18.8023 29.3824 18.1785 29.552 17.3774 29.552H16.2628ZM18.8023 27.5761C18.8023 27.2312 18.6793 26.9683 18.4332 26.7874C18.1871 26.6008 17.8323 26.5075 17.3688 26.5075H17.0981C16.5033 26.5075 16.0211 26.9897 16.0211 27.5845C16.0211 28.1794 16.5033 28.6616 17.0981 28.6616H17.3688C17.8266 28.6616 18.1785 28.5683 18.4246 28.3817C18.6764 28.1895 18.8023 27.9209 18.8023 27.5761ZM0 55.184C0 56.2886 0.895432 57.184 2 57.184H31.5561C32.6606 57.184 33.5561 56.2886 33.5561 55.184V42.9939C33.5561 41.8893 32.6606 40.9939 31.5561 40.9939H2C0.895431 40.9939 0 41.8893 0 42.9939V55.184ZM16.778 54.8712C20.0104 54.8712 22.6308 52.2823 22.6308 49.089C22.6308 45.8956 20.0104 43.3067 16.778 43.3067C13.5457 43.3067 10.9252 45.8956 10.9252 49.089C10.9252 52.2823 13.5457 54.8712 16.778 54.8712ZM16.2628 50.368C16.1293 50.368 16.0211 50.4762 16.0211 50.6097C16.0211 50.7432 16.1293 50.8514 16.2628 50.8514H17.6128C17.7767 50.8514 17.9096 50.9843 17.9096 51.1482C17.9096 51.3121 17.7767 51.445 17.6128 51.445H16.4621C16.2185 51.445 16.0211 51.6424 16.0211 51.886C16.0211 52.1296 15.8236 52.327 15.5801 52.327H15.3461C15.1026 52.327 14.9051 52.1296 14.9051 51.886V51.8742C14.9051 51.6372 14.713 51.445 14.4759 51.445H14.3435C14.1796 51.445 14.0467 51.3121 14.0467 51.1482C14.0467 50.9843 14.1796 50.8514 14.3435 50.8514H14.4759C14.713 50.8514 14.9051 50.6592 14.9051 50.4222V48.3906C14.9051 47.286 15.8006 46.3906 16.9051 46.3906H17.3774C18.1785 46.3906 18.8023 46.5602 19.2487 46.8994C19.7008 47.2386 19.9268 47.7333 19.9268 48.3835C19.9268 49.028 19.7008 49.5199 19.2487 49.8591C18.8023 50.1984 18.1785 50.368 17.3774 50.368H16.2628ZM18.8023 48.392C18.8023 48.0471 18.6793 47.7842 18.4332 47.6033C18.1871 47.4167 17.8323 47.3235 17.3688 47.3235H17.0981C16.5033 47.3235 16.0211 47.8057 16.0211 48.4005C16.0211 48.9953 16.5033 49.4775 17.0981 49.4775H17.3688C17.8266 49.4775 18.1785 49.3842 18.4246 49.1977C18.6764 49.0054 18.8023 48.7369 18.8023 48.392ZM0 63.8098C0 62.7052 0.895432 61.8098 2 61.8098H31.5561C32.6606 61.8098 33.5561 62.7052 33.5561 63.8098V76C33.5561 77.1046 32.6606 78 31.5561 78H2C0.895431 78 0 77.1046 0 76V63.8098ZM22.6308 69.9049C22.6308 73.0983 20.0104 75.6871 16.778 75.6871C13.5457 75.6871 10.9252 73.0983 10.9252 69.9049C10.9252 66.7115 13.5457 64.1227 16.778 64.1227C20.0104 64.1227 22.6308 66.7115 22.6308 69.9049ZM16.2628 71.6673C16.1293 71.6673 16.0211 71.5591 16.0211 71.4256C16.0211 71.2921 16.1293 71.1839 16.2628 71.1839H17.3774C18.1785 71.1839 18.8023 71.0143 19.2487 70.6751C19.7008 70.3359 19.9268 69.844 19.9268 69.1995C19.9268 68.5493 19.7008 68.0546 19.2487 67.7154C18.8023 67.3762 18.1785 67.2065 17.3774 67.2065H16.9051C15.8006 67.2065 14.9051 68.102 14.9051 69.2065V71.2381C14.9051 71.4752 14.713 71.6673 14.4759 71.6673H14.3435C14.1796 71.6673 14.0467 71.8002 14.0467 71.9641C14.0467 72.1281 14.1796 72.261 14.3435 72.261H14.4759C14.713 72.261 14.9051 72.4531 14.9051 72.6902V72.702C14.9051 72.9455 15.1026 73.1429 15.3461 73.1429H15.5801C15.8236 73.1429 16.0211 72.9455 16.0211 72.702C16.0211 72.4584 16.2185 72.261 16.4621 72.261H17.6128C17.7767 72.261 17.9096 72.1281 17.9096 71.9641C17.9096 71.8002 17.7767 71.6673 17.6128 71.6673H16.2628ZM18.4332 68.4193C18.6793 68.6002 18.8023 68.8631 18.8023 69.208C18.8023 69.5528 18.6764 69.8214 18.4246 70.0136C18.1785 70.2002 17.8266 70.2935 17.3688 70.2935H17.0981C16.5033 70.2935 16.0211 69.8113 16.0211 69.2164C16.0211 68.6216 16.5033 68.1394 17.0981 68.1394H17.3688C17.8323 68.1394 18.1871 68.2327 18.4332 68.4193ZM67.1121 49.089C67.1121 52.2823 64.4917 54.8712 61.2593 54.8712C58.027 54.8712 55.4065 52.2823 55.4065 49.089C55.4065 45.8956 58.027 43.3067 61.2593 43.3067C64.4917 43.3067 67.1121 45.8956 67.1121 49.089ZM44.4813 42.9939C44.4813 41.8893 45.3767 40.9939 46.4813 40.9939H76.0374C77.142 40.9939 78.0374 41.8893 78.0374 42.9939V55.184C78.0374 56.2886 77.142 57.184 76.0374 57.184H46.4813C45.3767 57.184 44.4813 56.2886 44.4813 55.184V42.9939ZM60.7441 50.8514C60.6106 50.8514 60.5024 50.7432 60.5024 50.6097C60.5024 50.4762 60.6106 50.368 60.7441 50.368H61.8587C62.6599 50.368 63.2836 50.1984 63.73 49.8591C64.1821 49.5199 64.4082 49.028 64.4082 48.3835C64.4082 47.7333 64.1821 47.2386 63.73 46.8994C63.2836 46.5602 62.6599 46.3906 61.8587 46.3906H61.3864C60.2819 46.3906 59.3864 47.286 59.3864 48.3906V50.4222C59.3864 50.6592 59.1943 50.8514 58.9572 50.8514H58.8249C58.6609 50.8514 58.528 50.9843 58.528 51.1482C58.528 51.3121 58.6609 51.445 58.8249 51.445H58.9572C59.1943 51.445 59.3864 51.6372 59.3864 51.8742V51.886C59.3864 52.1296 59.5839 52.327 59.8274 52.327H60.0614C60.3049 52.327 60.5024 52.1296 60.5024 51.886C60.5024 51.6424 60.6998 51.445 60.9434 51.445H62.0941C62.258 51.445 62.3909 51.3121 62.3909 51.1482C62.3909 50.9843 62.258 50.8514 62.0941 50.8514H60.7441ZM62.9145 47.6033C63.1606 47.7842 63.2836 48.0471 63.2836 48.392C63.2836 48.7369 63.1577 49.0054 62.9059 49.1977C62.6599 49.3842 62.3079 49.4775 61.8501 49.4775H61.5794C60.9846 49.4775 60.5024 48.9953 60.5024 48.4005C60.5024 47.8057 60.9846 47.3235 61.5794 47.3235H61.8501C62.3136 47.3235 62.6684 47.4167 62.9145 47.6033ZM61.2593 75.6871C64.4917 75.6871 67.1121 73.0983 67.1121 69.9049C67.1121 66.7115 64.4917 64.1227 61.2593 64.1227C58.027 64.1227 55.4065 66.7115 55.4065 69.9049C55.4065 73.0983 58.027 75.6871 61.2593 75.6871ZM78.0374 63.8098C78.0374 62.7052 77.142 61.8098 76.0374 61.8098H46.4813C45.3767 61.8098 44.4813 62.7052 44.4813 63.8098V76C44.4813 77.1046 45.3767 78 46.4813 78H76.0374C77.142 78 78.0374 77.1046 78.0374 76V63.8098ZM60.7441 71.1839C60.6106 71.1839 60.5024 71.2921 60.5024 71.4256C60.5024 71.5591 60.6106 71.6673 60.7441 71.6673H62.0941C62.258 71.6673 62.3909 71.8002 62.3909 71.9641C62.3909 72.1281 62.258 72.261 62.0941 72.261H60.9434C60.6998 72.261 60.5024 72.4584 60.5024 72.702C60.5024 72.9455 60.3049 73.1429 60.0614 73.1429H59.8274C59.5839 73.1429 59.3864 72.9455 59.3864 72.702V72.6902C59.3864 72.4531 59.1943 72.261 58.9572 72.261H58.8249C58.6609 72.261 58.528 72.1281 58.528 71.9641C58.528 71.8002 58.6609 71.6673 58.8249 71.6673H58.9572C59.1943 71.6673 59.3864 71.4752 59.3864 71.2381V69.2065C59.3864 68.102 60.2819 67.2065 61.3864 67.2065H61.8587C62.6599 67.2065 63.2836 67.3762 63.73 67.7154C64.1821 68.0546 64.4082 68.5493 64.4082 69.1995C64.4082 69.844 64.1821 70.3359 63.73 70.6751C63.2836 71.0143 62.6599 71.1839 61.8587 71.1839H60.7441ZM63.2836 69.208C63.2836 68.8631 63.1606 68.6002 62.9145 68.4193C62.6684 68.2327 62.3136 68.1394 61.8501 68.1394H61.5794C60.9846 68.1394 60.5024 68.6216 60.5024 69.2164C60.5024 69.8113 60.9846 70.2935 61.5794 70.2935H61.8501C62.3079 70.2935 62.6599 70.2002 62.9059 70.0136C63.1577 69.8214 63.2836 69.5528 63.2836 69.208ZM88.9626 22.1779C88.9626 21.0733 89.858 20.1779 90.9626 20.1779H120.519C121.623 20.1779 122.519 21.0733 122.519 22.1779V34.3681C122.519 35.4727 121.623 36.3681 120.519 36.3681H90.9626C89.858 36.3681 88.9626 35.4727 88.9626 34.3681V22.1779ZM111.593 28.273C111.593 31.4664 108.973 34.0552 105.741 34.0552C102.508 34.0552 99.8878 31.4664 99.8878 28.273C99.8878 25.0796 102.508 22.4908 105.741 22.4908C108.973 22.4908 111.593 25.0796 111.593 28.273ZM105.225 30.0354C105.092 30.0354 104.984 29.9272 104.984 29.7937C104.984 29.6602 105.092 29.552 105.225 29.552H106.34C107.141 29.552 107.765 29.3824 108.211 29.0432C108.663 28.704 108.889 28.2121 108.889 27.5676C108.889 26.9174 108.663 26.4227 108.211 26.0835C107.765 25.7443 107.141 25.5746 106.34 25.5746H105.868C104.763 25.5746 103.868 26.4701 103.868 27.5746V29.6062C103.868 29.8433 103.676 30.0354 103.439 30.0354H103.306C103.142 30.0354 103.009 30.1683 103.009 30.3322C103.009 30.4962 103.142 30.6291 103.306 30.6291H103.439C103.676 30.6291 103.868 30.8212 103.868 31.0583V31.0701C103.868 31.3136 104.065 31.511 104.309 31.511H104.543C104.786 31.511 104.984 31.3136 104.984 31.0701C104.984 30.8265 105.181 30.6291 105.425 30.6291H106.575C106.739 30.6291 106.872 30.4962 106.872 30.3322C106.872 30.1683 106.739 30.0354 106.575 30.0354H105.225ZM107.396 26.7874C107.642 26.9683 107.765 27.2312 107.765 27.5761C107.765 27.9209 107.639 28.1895 107.387 28.3817C107.141 28.5683 106.789 28.6616 106.331 28.6616H106.061C105.466 28.6616 104.984 28.1794 104.984 27.5845C104.984 26.9897 105.466 26.5075 106.061 26.5075H106.331C106.795 26.5075 107.15 26.6008 107.396 26.7874ZM167 22.1779C167 21.0733 166.105 20.1779 165 20.1779H135.444C134.339 20.1779 133.444 21.0733 133.444 22.1779V34.3681C133.444 35.4727 134.339 36.3681 135.444 36.3681H165C166.105 36.3681 167 35.4727 167 34.3681V22.1779ZM150.222 34.0552C153.454 34.0552 156.075 31.4664 156.075 28.273C156.075 25.0796 153.454 22.4908 150.222 22.4908C146.99 22.4908 144.369 25.0796 144.369 28.273C144.369 31.4664 146.99 34.0552 150.222 34.0552ZM149.707 29.552C149.573 29.552 149.465 29.6602 149.465 29.7937C149.465 29.9272 149.573 30.0354 149.707 30.0354H151.057C151.221 30.0354 151.354 30.1683 151.354 30.3322C151.354 30.4962 151.221 30.6291 151.057 30.6291H149.906C149.662 30.6291 149.465 30.8265 149.465 31.0701C149.465 31.3136 149.268 31.511 149.024 31.511H148.79C148.546 31.511 148.349 31.3136 148.349 31.0701V31.0583C148.349 30.8212 148.157 30.6291 147.92 30.6291H147.787C147.624 30.6291 147.491 30.4962 147.491 30.3322C147.491 30.1683 147.624 30.0354 147.787 30.0354H147.92C148.157 30.0354 148.349 29.8433 148.349 29.6062V27.5746C148.349 26.4701 149.244 25.5746 150.349 25.5746H150.821C151.622 25.5746 152.246 25.7443 152.693 26.0835C153.145 26.4227 153.371 26.9174 153.371 27.5676C153.371 28.2121 153.145 28.704 152.693 29.0432C152.246 29.3824 151.622 29.552 150.821 29.552H149.707ZM152.246 27.5761C152.246 27.2312 152.123 26.9683 151.877 26.7874C151.631 26.6008 151.276 26.5075 150.813 26.5075H150.542C149.947 26.5075 149.465 26.9897 149.465 27.5845C149.465 28.1794 149.947 28.6616 150.542 28.6616H150.813C151.271 28.6616 151.622 28.5683 151.869 28.3817C152.12 28.1895 152.246 27.9209 152.246 27.5761ZM111.593 49.089C111.593 52.2823 108.973 54.8712 105.741 54.8712C102.508 54.8712 99.8878 52.2823 99.8878 49.089C99.8878 45.8956 102.508 43.3067 105.741 43.3067C108.973 43.3067 111.593 45.8956 111.593 49.089ZM88.9626 42.9939C88.9626 41.8893 89.858 40.9939 90.9626 40.9939H120.519C121.623 40.9939 122.519 41.8893 122.519 42.9939V55.184C122.519 56.2886 121.623 57.184 120.519 57.184H90.9626C89.858 57.184 88.9626 56.2886 88.9626 55.184V42.9939ZM105.225 50.8514C105.092 50.8514 104.984 50.7432 104.984 50.6097C104.984 50.4762 105.092 50.368 105.225 50.368H106.34C107.141 50.368 107.765 50.1984 108.211 49.8591C108.663 49.5199 108.889 49.028 108.889 48.3835C108.889 47.7333 108.663 47.2386 108.211 46.8994C107.765 46.5602 107.141 46.3906 106.34 46.3906H105.868C104.763 46.3906 103.868 47.286 103.868 48.3906V50.4222C103.868 50.6592 103.676 50.8514 103.439 50.8514H103.306C103.142 50.8514 103.009 50.9843 103.009 51.1482C103.009 51.3121 103.142 51.445 103.306 51.445H103.439C103.676 51.445 103.868 51.6372 103.868 51.8742V51.886C103.868 52.1296 104.065 52.327 104.309 52.327H104.543C104.786 52.327 104.984 52.1296 104.984 51.886C104.984 51.6424 105.181 51.445 105.425 51.445H106.575C106.739 51.445 106.872 51.3121 106.872 51.1482C106.872 50.9843 106.739 50.8514 106.575 50.8514H105.225ZM107.396 47.6033C107.642 47.7842 107.765 48.0471 107.765 48.392C107.765 48.7369 107.639 49.0054 107.387 49.1977C107.141 49.3842 106.789 49.4775 106.331 49.4775H106.061C105.466 49.4775 104.984 48.9953 104.984 48.4005C104.984 47.8057 105.466 47.3235 106.061 47.3235H106.331C106.795 47.3235 107.15 47.4167 107.396 47.6033ZM150.222 54.8712C153.454 54.8712 156.075 52.2823 156.075 49.089C156.075 45.8956 153.454 43.3067 150.222 43.3067C146.99 43.3067 144.369 45.8956 144.369 49.089C144.369 52.2823 146.99 54.8712 150.222 54.8712ZM167 42.9939C167 41.8893 166.105 40.9939 165 40.9939H135.444C134.339 40.9939 133.444 41.8893 133.444 42.9939V55.184C133.444 56.2886 134.339 57.184 135.444 57.184H165C166.105 57.184 167 56.2886 167 55.184V42.9939ZM149.707 50.368C149.573 50.368 149.465 50.4762 149.465 50.6097C149.465 50.7432 149.573 50.8514 149.707 50.8514H151.057C151.221 50.8514 151.354 50.9843 151.354 51.1482C151.354 51.3121 151.221 51.445 151.057 51.445H149.906C149.662 51.445 149.465 51.6424 149.465 51.886C149.465 52.1296 149.268 52.327 149.024 52.327H148.79C148.546 52.327 148.349 52.1296 148.349 51.886V51.8742C148.349 51.6372 148.157 51.445 147.92 51.445H147.787C147.624 51.445 147.491 51.3121 147.491 51.1482C147.491 50.9843 147.624 50.8514 147.787 50.8514H147.92C148.157 50.8514 148.349 50.6592 148.349 50.4222V48.3906C148.349 47.286 149.244 46.3906 150.349 46.3906H150.821C151.622 46.3906 152.246 46.5602 152.693 46.8994C153.145 47.2386 153.371 47.7333 153.371 48.3835C153.371 49.028 153.145 49.5199 152.693 49.8591C152.246 50.1984 151.622 50.368 150.821 50.368H149.707ZM152.246 48.392C152.246 48.0471 152.123 47.7842 151.877 47.6033C151.631 47.4167 151.276 47.3235 150.813 47.3235H150.542C149.947 47.3235 149.465 47.8057 149.465 48.4005C149.465 48.9953 149.947 49.4775 150.542 49.4775H150.813C151.271 49.4775 151.622 49.3842 151.869 49.1977C152.12 49.0054 152.246 48.7369 152.246 48.392ZM111.593 69.9049C111.593 73.0983 108.973 75.6871 105.741 75.6871C102.508 75.6871 99.8878 73.0983 99.8878 69.9049C99.8878 66.7115 102.508 64.1227 105.741 64.1227C108.973 64.1227 111.593 66.7115 111.593 69.9049ZM88.9626 63.8098C88.9626 62.7052 89.858 61.8098 90.9626 61.8098H120.519C121.623 61.8098 122.519 62.7052 122.519 63.8098V76C122.519 77.1046 121.623 78 120.519 78H90.9626C89.858 78 88.9626 77.1046 88.9626 76V63.8098ZM105.225 71.6673C105.092 71.6673 104.984 71.5591 104.984 71.4256C104.984 71.2921 105.092 71.1839 105.225 71.1839H106.34C107.141 71.1839 107.765 71.0143 108.211 70.6751C108.663 70.3359 108.889 69.844 108.889 69.1995C108.889 68.5493 108.663 68.0546 108.211 67.7154C107.765 67.3762 107.141 67.2065 106.34 67.2065H105.868C104.763 67.2065 103.868 68.102 103.868 69.2065V71.2381C103.868 71.4752 103.676 71.6673 103.439 71.6673H103.306C103.142 71.6673 103.009 71.8002 103.009 71.9641C103.009 72.1281 103.142 72.261 103.306 72.261H103.439C103.676 72.261 103.868 72.4531 103.868 72.6902V72.702C103.868 72.9455 104.065 73.1429 104.309 73.1429H104.543C104.786 73.1429 104.984 72.9455 104.984 72.702C104.984 72.4584 105.181 72.261 105.425 72.261H106.575C106.739 72.261 106.872 72.1281 106.872 71.9641C106.872 71.8002 106.739 71.6673 106.575 71.6673H105.225ZM107.396 68.4193C107.642 68.6002 107.765 68.8631 107.765 69.208C107.765 69.5528 107.639 69.8214 107.387 70.0136C107.141 70.2002 106.789 70.2935 106.331 70.2935H106.061C105.466 70.2935 104.984 69.8113 104.984 69.2164C104.984 68.6216 105.466 68.1394 106.061 68.1394H106.331C106.795 68.1394 107.15 68.2327 107.396 68.4193ZM150.222 75.6871C153.454 75.6871 156.075 73.0983 156.075 69.9049C156.075 66.7115 153.454 64.1227 150.222 64.1227C146.99 64.1227 144.369 66.7115 144.369 69.9049C144.369 73.0983 146.99 75.6871 150.222 75.6871ZM167 63.8098C167 62.7052 166.105 61.8098 165 61.8098H135.444C134.339 61.8098 133.444 62.7052 133.444 63.8098V76C133.444 77.1046 134.339 78 135.444 78H165C166.105 78 167 77.1046 167 76V63.8098ZM149.707 71.1839C149.573 71.1839 149.465 71.2921 149.465 71.4256C149.465 71.5591 149.573 71.6673 149.707 71.6673H151.057C151.221 71.6673 151.354 71.8002 151.354 71.9641C151.354 72.1281 151.221 72.261 151.057 72.261H149.906C149.662 72.261 149.465 72.4584 149.465 72.702C149.465 72.9455 149.268 73.1429 149.024 73.1429H148.79C148.546 73.1429 148.349 72.9455 148.349 72.702V72.6902C148.349 72.4531 148.157 72.261 147.92 72.261H147.787C147.624 72.261 147.491 72.1281 147.491 71.9641C147.491 71.8002 147.624 71.6673 147.787 71.6673H147.92C148.157 71.6673 148.349 71.4752 148.349 71.2381V69.2065C148.349 68.102 149.244 67.2065 150.349 67.2065H150.821C151.622 67.2065 152.246 67.3762 152.693 67.7154C153.145 68.0546 153.371 68.5493 153.371 69.1995C153.371 69.844 153.145 70.3359 152.693 70.6751C152.246 71.0143 151.622 71.1839 150.821 71.1839H149.707ZM152.246 69.208C152.246 68.8631 152.123 68.6002 151.877 68.4193C151.631 68.2327 151.276 68.1394 150.813 68.1394H150.542C149.947 68.1394 149.465 68.6216 149.465 69.2164C149.465 69.8113 149.947 70.2935 150.542 70.2935H150.813C151.271 70.2935 151.622 70.2002 151.869 70.0136C152.12 69.8214 152.246 69.5528 152.246 69.208Z" fill="url(#paint0_linear)"/>
<path fill-rule="evenodd" clip-rule="evenodd" d="M111.593 8.09509C111.593 11.2885 108.973 13.8773 105.741 13.8773C102.508 13.8773 99.8878 11.2885 99.8878 8.09509C99.8878 4.9017 102.508 2.31288 105.741 2.31288C108.973 2.31288 111.593 4.9017 111.593 8.09509ZM88.9626 2C88.9626 0.89543 89.858 0 90.9626 0H120.519C121.623 0 122.519 0.895431 122.519 2V14.1902C122.519 15.2948 121.623 16.1902 120.519 16.1902H90.9626C89.858 16.1902 88.9626 15.2948 88.9626 14.1902V2ZM105.225 9.85751C105.092 9.85751 104.984 9.7493 104.984 9.61581C104.984 9.48233 105.092 9.37411 105.225 9.37411H106.34C107.141 9.37411 107.765 9.2045 108.211 8.86528C108.663 8.52606 108.889 8.03418 108.889 7.38966C108.889 6.73949 108.663 6.24478 108.211 5.90556C107.765 5.56634 107.141 5.39673 106.34 5.39673H105.868C104.763 5.39673 103.868 6.29216 103.868 7.39673V9.42831C103.868 9.66535 103.676 9.85751 103.439 9.85751H103.306C103.142 9.85751 103.009 9.9904 103.009 10.1543C103.009 10.3183 103.142 10.4511 103.306 10.4511H103.439C103.676 10.4511 103.868 10.6433 103.868 10.8804V10.8921C103.868 11.1357 104.065 11.3331 104.309 11.3331H104.543C104.786 11.3331 104.984 11.1357 104.984 10.8921C104.984 10.6486 105.181 10.4511 105.425 10.4511H106.575C106.739 10.4511 106.872 10.3183 106.872 10.1543C106.872 9.9904 106.739 9.85751 106.575 9.85751H105.225ZM107.396 6.60945C107.642 6.79037 107.765 7.05326 107.765 7.39814C107.765 7.74302 107.639 8.01157 107.387 8.2038C107.141 8.39037 106.789 8.48365 106.331 8.48365H106.061C105.466 8.48365 104.984 8.00145 104.984 7.40662C104.984 6.81179 105.466 6.32959 106.061 6.32959H106.331C106.795 6.32959 107.15 6.42288 107.396 6.60945Z" fill="url(#paint1_linear)"/>
<defs>
<linearGradient id="paint0_linear" x1="177.774" y1="26.1097" x2="84.8446" y2="32.1584" gradientUnits="userSpaceOnUse">
<stop stop-color="#D81F9F"/>
<stop offset="1" stop-color="#424AFD"/>
</linearGradient>
<linearGradient id="paint1_linear" x1="177.774" y1="26.1097" x2="84.8446" y2="32.1584" gradientUnits="userSpaceOnUse">
<stop stop-color="#D81F9F"/>
<stop offset="1" stop-color="#424AFD"/>
</linearGradient>
</defs>
</svg>
