<svg width="167" height="31" viewBox="0 0 167 31" fill="none" xmlns="http://www.w3.org/2000/svg">
<path d="M6.46492 26.0805V25.6871H5.95654V26.0805C5.47544 26.0757 5.00841 26.2466 4.63898 26.5624C4.4846 26.7148 4.3618 26.8976 4.27792 27.0997C4.19405 27.3019 4.15082 27.5194 4.15082 27.739C4.15082 27.9587 4.19405 28.1761 4.27792 28.3783C4.3618 28.5805 4.4846 28.7632 4.63898 28.9157C5.00715 29.2341 5.47475 29.4065 5.95654 29.4012V29.8725H6.46492V29.4012C6.94668 29.4065 7.41428 29.2341 7.78242 28.9157C7.93681 28.7632 8.05964 28.5805 8.14351 28.3783C8.22739 28.1761 8.27062 27.9587 8.27062 27.739C8.27062 27.5194 8.22739 27.3019 8.14351 27.0997C8.05964 26.8976 7.93681 26.7148 7.78242 26.5624C7.41305 26.2466 6.946 26.0757 6.46492 26.0805ZM5.94962 28.9511C5.60388 28.9576 5.2683 28.8311 5.009 28.5967C4.78978 28.3692 4.66687 28.0623 4.66687 27.7426C4.66687 27.4228 4.78978 27.116 5.009 26.8885C5.2683 26.654 5.60388 26.5276 5.94962 26.5341V28.9511ZM7.4055 28.5967C7.14486 28.8288 6.81017 28.9549 6.46492 28.9511V26.5412C6.80987 26.5393 7.14387 26.6652 7.4055 26.8956C7.62662 27.1228 7.75076 27.4306 7.75076 27.7514C7.75076 28.0723 7.62662 28.3801 7.4055 28.6073V28.5967ZM9.87462 28.0119H11.4965V27.5264H9.87462V26.2754H11.5692V25.7828H9.36633V29.791H11.6245V29.3055H9.87462V28.0119ZM15.5633 25.7757H13.1945V27.7532C13.1983 28.0299 13.1574 28.3053 13.0735 28.5683C12.972 28.8292 12.8256 29.0693 12.6412 29.2771H12.2954V30.4006H12.7553V29.791H15.4665V30.4183H15.9265V29.2983H15.5633V25.7757ZM15.0515 29.2983H13.1876C13.3514 29.1006 13.476 28.8718 13.5541 28.625C13.6379 28.3437 13.6788 28.0508 13.6752 27.7568V26.2754H15.0584L15.0515 29.2983ZM17.3823 28.0119H19.0215V27.5264H17.3893V26.2754H19.0837V25.7828H16.8809V29.791H19.1391V29.3055H17.3893L17.3823 28.0119ZM21.2659 25.7828H20.2146V29.7839H20.7264V28.2423H21.2901C21.4679 28.252 21.6459 28.2257 21.8138 28.1649C21.9818 28.1041 22.1363 28.0099 22.2687 27.8879C22.3857 27.7718 22.4771 27.6314 22.5367 27.4762C22.5964 27.3209 22.6229 27.1543 22.6146 26.9877C22.6219 26.8244 22.5949 26.6613 22.5352 26.5096C22.4755 26.358 22.3847 26.2212 22.2687 26.1088C21.9884 25.876 21.6329 25.7596 21.2728 25.7828H21.2659ZM21.871 27.5548C21.7006 27.7053 21.4801 27.7826 21.2555 27.7709H20.7195V26.2471H21.259C21.485 26.2359 21.7073 26.3089 21.8849 26.4526C21.9594 26.5178 22.0184 26.5996 22.0573 26.6917C22.0962 26.7839 22.1142 26.8839 22.1097 26.9842C22.1145 27.0899 22.0962 27.1953 22.0562 27.2928C22.0161 27.3903 21.9552 27.4774 21.878 27.5477L21.871 27.5548ZM24.9522 25.7828L23.282 29.791H23.8007L24.1465 28.9334H26.0485L26.3943 29.791H26.9753L25.2808 25.7828H24.9522ZM24.3506 28.4726L25.1044 26.6298L25.8722 28.4655L24.3506 28.4726ZM30.7516 25.758H28.0404V28.8447C28.0518 28.9871 28.0165 29.1293 27.9401 29.2487C27.9026 29.2942 27.8552 29.33 27.8018 29.3534C27.7484 29.3768 27.6904 29.387 27.6323 29.3834C27.5818 29.3881 27.5308 29.3881 27.4802 29.3834V29.8689C27.5435 29.8736 27.6071 29.8736 27.6704 29.8689C27.7907 29.8737 27.9106 29.8522 28.0221 29.8057C28.1336 29.7592 28.2341 29.689 28.317 29.5996C28.4878 29.3843 28.573 29.111 28.5557 28.8341V26.2754H30.2502V29.8193H30.7585V29.791L30.7516 25.758ZM33.2692 27.4519H32.5775V25.7757H32.0761V29.7839H33.2554C33.6096 29.8028 33.9585 29.6895 34.2374 29.4649C34.3501 29.3553 34.4397 29.2234 34.501 29.0772C34.5622 28.931 34.5938 28.7735 34.5938 28.6144C34.5938 28.4553 34.5622 28.2978 34.501 28.1516C34.4397 28.0053 34.3501 27.8734 34.2374 27.7638C33.9624 27.5428 33.6182 27.4319 33.2692 27.4519ZM33.8916 29.1425C33.71 29.2756 33.4885 29.3396 33.2657 29.3232H32.5775V27.9056H33.2692C33.4856 27.8932 33.6996 27.9583 33.8744 28.0899C33.944 28.153 33.9991 28.2312 34.0356 28.3189C34.0721 28.4066 34.0891 28.5015 34.0853 28.5967C34.0948 28.6967 34.0823 28.7976 34.0489 28.8921C34.0153 28.9865 33.9616 29.072 33.8916 29.1425ZM38.2351 27.459H36.1983V25.7828H35.6899V29.791H36.1983V27.9198H38.2351V29.791H38.7331V25.7828H38.2247L38.2351 27.459ZM41.3267 25.7828L39.6564 29.791H40.1752L40.521 28.9334H42.423L42.7688 29.791H43.3117L41.631 25.7898L41.3267 25.7828ZM40.725 28.4726L41.4789 26.6298L42.2466 28.4655L40.725 28.4726ZM44.5048 26.0982C44.3881 26.2047 44.2964 26.3368 44.2365 26.4847C44.1766 26.6326 44.1501 26.7924 44.159 26.9523C44.1499 27.2392 44.2447 27.5195 44.4253 27.739C44.6156 27.9587 44.8774 28.0998 45.1618 28.136L43.8443 29.791H44.4875L45.7601 28.1785H46.0471V29.791H46.552V25.7828H45.5146C45.1511 25.753 44.7902 25.8657 44.5048 26.0982ZM46.0367 26.2612V27.7107H45.518C45.2902 27.7233 45.0657 27.6516 44.8852 27.5087C44.8082 27.4413 44.7474 27.3567 44.7072 27.2615C44.6671 27.1663 44.6487 27.063 44.6535 26.9594C44.649 26.8609 44.6676 26.7629 44.708 26.6734C44.7483 26.5839 44.8091 26.5058 44.8852 26.4455C45.066 26.3129 45.2857 26.2479 45.5077 26.2612H46.0367ZM50.5324 25.9741C50.225 26.1536 49.9714 26.4159 49.7992 26.7326C49.618 27.0558 49.5248 27.423 49.5295 27.7957C49.523 28.0723 49.5711 28.3473 49.6709 28.6043C49.7707 28.8614 49.9203 29.095 50.1105 29.2913C50.301 29.4901 50.5297 29.6462 50.782 29.7499C51.0344 29.8536 51.305 29.9026 51.5767 29.8937C52.0006 29.8942 52.4182 29.7897 52.794 29.589V28.9688C52.4417 29.2273 52.0203 29.3683 51.5871 29.3728C51.3838 29.3804 51.1813 29.3443 50.9924 29.2668C50.8037 29.1893 50.6328 29.072 50.4909 28.9227C50.3482 28.7717 50.2365 28.5929 50.1623 28.3969C50.088 28.2009 50.0528 27.9917 50.0586 27.7816C50.0533 27.5736 50.0888 27.3667 50.1631 27.1731C50.2373 26.9795 50.3488 26.8032 50.4909 26.6546C50.6287 26.505 50.7957 26.3866 50.9809 26.3073C51.1662 26.228 51.3656 26.1893 51.5664 26.1939C52.0059 26.1961 52.4333 26.3413 52.7871 26.6085V26.0025C52.4158 25.789 51.9955 25.6813 51.5698 25.6906C51.2066 25.6886 50.8496 25.7866 50.5358 25.9741H50.5324ZM54.364 28.0119H55.9859V27.5264H54.364V26.2754H56.0585V25.7828H53.8557V29.791H56.1138V29.3055H54.364V28.0119ZM56.8228 26.2754H57.9052V29.8193H58.417V26.2754H59.5063V25.7757H56.8228V26.2754ZM61.64 27.4626H60.9483V25.7757H60.4401V29.7839H61.6193C61.9768 29.8055 62.3293 29.6934 62.612 29.4685C62.7233 29.3584 62.8124 29.2263 62.873 29.0801C62.9336 28.934 62.9652 28.7768 62.9652 28.6179C62.9652 28.4591 62.9336 28.3019 62.873 28.1557C62.8124 28.0096 62.7233 27.8775 62.612 27.7674C62.3349 27.5446 61.9879 27.4325 61.6366 27.4519L61.64 27.4626ZM62.2489 29.1425C62.0671 29.2762 61.8456 29.3402 61.6227 29.3232H60.9553V27.9056H61.6469C61.8623 27.8931 62.0751 27.9583 62.2489 28.0899C62.3188 28.1525 62.3745 28.2307 62.411 28.3184C62.4475 28.4062 62.4642 28.5013 62.4598 28.5967C62.4679 28.6981 62.453 28.8001 62.4165 28.8948C62.38 28.9894 62.3225 29.0742 62.2489 29.1425ZM66.727 25.9741C66.4153 26.151 66.1573 26.4137 65.9835 26.7326C65.8023 27.0558 65.7089 27.423 65.7139 27.7957C65.707 28.0723 65.7553 28.3473 65.8549 28.6043C65.9551 28.8614 66.1048 29.095 66.2946 29.2913C66.4851 29.4901 66.714 29.6462 66.9663 29.7499C67.2187 29.8536 67.489 29.9026 67.7611 29.8937C68.1836 29.8942 68.6005 29.7897 68.9747 29.589V28.9688C68.624 29.2272 68.2034 29.3683 67.7717 29.3728C67.5682 29.3807 67.3653 29.3447 67.1766 29.2671C66.988 29.1895 66.8167 29.0722 66.675 28.9227C66.5315 28.7721 66.4196 28.5934 66.3454 28.3973C66.2711 28.2013 66.2365 27.9918 66.2427 27.7816C66.2384 27.5728 66.2748 27.3651 66.3509 27.1714C66.427 26.9776 66.5408 26.8018 66.6855 26.6546C66.8229 26.5054 66.9892 26.3874 67.1742 26.308C67.3585 26.2286 67.5577 26.1898 67.7574 26.1939C68.1978 26.1966 68.6264 26.3417 68.9815 26.6085V26.0025C68.6104 25.7895 68.1898 25.6818 67.7642 25.6906C67.3962 25.6857 67.0344 25.7838 66.7165 25.9741H66.727ZM69.6804 26.2648H70.7659V29.8087H71.2743V26.2754H72.3635V25.7757H69.6804V26.2648ZM75.1302 25.6906C74.7659 25.688 74.4077 25.7859 74.0929 25.9741C73.7045 26.2058 73.4014 26.5625 73.2307 26.9888C73.06 27.4152 73.0322 27.8873 73.1503 28.3318C73.2684 28.7763 73.527 29.1683 73.8851 29.4469C74.2432 29.7255 74.6805 29.8751 75.1302 29.8725C75.4945 29.8764 75.8526 29.7797 76.1681 29.5925C76.4804 29.4094 76.7402 29.1454 76.9214 28.827C77.1063 28.5049 77.2016 28.1374 77.1985 27.7638C77.1985 27.4882 77.1453 27.2153 77.042 26.9607C76.9387 26.7061 76.7878 26.4749 76.5973 26.2803C76.4068 26.0857 76.1804 25.9316 75.9318 25.8268C75.6831 25.7219 75.4165 25.6684 75.1475 25.6694L75.1302 25.6906ZM76.2095 28.9121C76.0678 29.0583 75.9002 29.1743 75.7147 29.2534C75.5297 29.3326 75.3312 29.3734 75.1302 29.3734C74.9298 29.3734 74.7312 29.3326 74.5457 29.2534C74.3607 29.1743 74.1925 29.0583 74.0515 28.9121C73.7676 28.6091 73.6086 28.2052 73.6086 27.7851C73.6086 27.365 73.7676 26.9611 74.0515 26.6582C74.1931 26.5122 74.362 26.3964 74.5475 26.3174C74.7337 26.2384 74.9329 26.1977 75.1339 26.1977C75.3349 26.1977 75.5341 26.2384 75.7196 26.3174C75.9058 26.3964 76.074 26.5122 76.2163 26.6582C76.3573 26.8074 76.468 26.9838 76.5423 27.1773C76.6165 27.3707 76.6523 27.5773 76.6486 27.7851C76.6517 27.9943 76.6134 28.202 76.5361 28.3957C76.4587 28.5893 76.3443 28.765 76.199 28.9121H76.2095ZM81.6525 25.7828L80.3455 28.9121L79.0176 25.7828H78.6718L78.0143 29.791H78.5023L78.9619 26.9027L80.1859 29.791H80.4729L81.6698 26.9027L82.1398 29.791H82.652L81.9809 25.7828H81.6525ZM84.9931 25.7828L83.3224 29.791H83.8414L84.1871 28.9334H86.0891L86.4348 29.791H86.9748L85.2937 25.7898L84.9931 25.7828ZM84.3807 28.4726L85.1316 26.6298L85.9023 28.4655L84.3807 28.4726ZM87.5451 26.2754H88.6312V29.8193H89.1396V26.2754H90.2288V25.7757H87.5451V26.2754ZM92.9955 25.7013C92.6312 25.6985 92.2724 25.7964 91.9576 25.9848C91.6459 26.1661 91.3879 26.4307 91.211 26.7503C91.031 27.0685 90.9358 27.4298 90.9352 27.7976C90.9352 28.1655 91.0298 28.527 91.2092 28.8455C91.3885 29.164 91.6471 29.4283 91.9582 29.6118C92.2693 29.7952 92.6225 29.8912 92.9812 29.8902C93.3455 29.8941 93.7037 29.7974 94.0191 29.6102C94.3265 29.422 94.5807 29.1544 94.7558 28.8341C94.9364 28.5158 95.0322 28.1541 95.0329 27.7857C95.0335 27.4173 94.9395 27.0553 94.7595 26.7362C94.5801 26.4172 94.3209 26.1525 94.0092 25.9688C93.6981 25.7852 93.3443 25.6893 92.9849 25.6906L92.9955 25.7013ZM94.0636 28.9121C93.9226 29.0583 93.7544 29.1743 93.5694 29.2534C93.3845 29.3326 93.1853 29.3734 92.9849 29.3734C92.7839 29.3734 92.5854 29.3326 92.4004 29.2534C92.2149 29.1743 92.0473 29.0583 91.9056 28.9121C91.6217 28.6091 91.4634 28.2052 91.4634 27.7851C91.4634 27.365 91.6217 26.9611 91.9056 26.6582C92.0479 26.5122 92.2168 26.3964 92.4023 26.3174C92.5879 26.2384 92.787 26.1977 92.988 26.1977C93.1897 26.1977 93.3888 26.2384 93.5744 26.3174C93.7599 26.3964 93.9288 26.5122 94.0704 26.6582C94.3506 26.9632 94.5071 27.3662 94.5071 27.7851C94.5071 28.204 94.3506 28.607 94.0704 28.9121H94.0636ZM99.0192 25.758H96.3045V28.8447C96.3163 28.9871 96.281 29.1293 96.2043 29.2487C96.1666 29.2942 96.1196 29.33 96.0658 29.3534C96.0126 29.3768 95.9545 29.387 95.8969 29.3834C95.8475 29.3883 95.7973 29.3883 95.7479 29.3834V29.8689C95.8103 29.8738 95.8728 29.8738 95.9347 29.8689C96.0553 29.8737 96.1746 29.8522 96.2866 29.8057C96.3979 29.7592 96.4987 29.689 96.5816 29.5996C96.7523 29.3843 96.8371 29.111 96.8198 28.8341V26.2754H98.5145V29.8193H99.0229V25.758H99.0192ZM102.173 25.6906C101.809 25.688 101.451 25.7859 101.136 25.9741C100.747 26.2058 100.444 26.5625 100.274 26.9888C100.103 27.4152 100.075 27.8873 100.193 28.3318C100.311 28.7763 100.57 29.1683 100.928 29.4469C101.286 29.7255 101.723 29.8751 102.173 29.8725C102.537 29.8764 102.895 29.7797 103.211 29.5925C103.523 29.4094 103.783 29.1454 103.965 28.827C104.149 28.5049 104.244 28.1374 104.241 27.7638C104.241 27.4885 104.188 27.2158 104.085 26.9615C103.982 26.7072 103.831 26.4761 103.641 26.2816C103.452 26.0871 103.226 25.9328 102.977 25.8278C102.729 25.7227 102.463 25.6689 102.194 25.6694L102.173 25.6906ZM103.252 28.9121C103.111 29.0579 102.942 29.1736 102.757 29.2526C102.571 29.3316 102.372 29.3722 102.172 29.3722C101.971 29.3722 101.772 29.3316 101.587 29.2526C101.401 29.1736 101.232 29.0579 101.091 28.9121C100.807 28.6091 100.648 28.2052 100.648 27.7851C100.648 27.365 100.807 26.9611 101.091 26.6582C101.23 26.509 101.399 26.3911 101.585 26.3118C101.772 26.2325 101.971 26.1936 102.173 26.1974C102.375 26.1927 102.576 26.2313 102.762 26.3106C102.948 26.39 103.116 26.5083 103.255 26.6582C103.534 26.964 103.689 27.3667 103.689 27.7851C103.689 28.2035 103.534 28.6063 103.255 28.9121H103.252ZM105.327 29.791H105.835V26.2754H107.585V25.7828H105.327V29.791ZM109.021 28.8447V25.7828H108.509V29.791H108.875L111.178 26.7396V29.791H111.701V25.7828H111.355L109.021 28.8447ZM115.56 25.7828H115.051V27.615C114.826 27.7909 114.55 27.8845 114.266 27.8808C114.153 27.8914 114.038 27.877 113.93 27.8385C113.822 27.8 113.723 27.7383 113.64 27.6575C113.491 27.4547 113.419 27.2022 113.44 26.9487V25.7792H112.945V26.9842C112.935 27.1654 112.961 27.347 113.02 27.518C113.079 27.6891 113.172 27.8462 113.292 27.98C113.416 28.1011 113.564 28.1949 113.726 28.2558C113.888 28.3167 114.06 28.3435 114.232 28.3344C114.537 28.3291 114.834 28.2357 115.09 28.0651V29.7874H115.598L115.56 25.7828ZM117.393 28.0119H119.015V27.5264H117.407V26.2754H119.101V25.7828H116.888V29.791H119.146V29.3055H117.407L117.393 28.0119ZM121.038 25.9741C120.726 26.152 120.469 26.4145 120.294 26.7326C120.113 27.0558 120.02 27.423 120.024 27.7957C120.018 28.0723 120.066 28.3473 120.166 28.6043C120.265 28.8614 120.415 29.095 120.605 29.2913C120.796 29.4901 121.024 29.6462 121.277 29.7499C121.529 29.8536 121.8 29.9026 122.071 29.8937C122.495 29.8942 122.913 29.7897 123.289 29.589V28.9688C122.935 29.2287 122.511 29.3698 122.075 29.3728C121.872 29.3804 121.669 29.3443 121.48 29.2668C121.291 29.1893 121.121 29.072 120.978 28.9227C120.836 28.7717 120.724 28.5929 120.65 28.3969C120.576 28.2009 120.541 27.9917 120.547 27.7816C120.542 27.5728 120.58 27.3655 120.656 27.1719C120.732 26.9782 120.845 26.8023 120.989 26.6546C121.126 26.5054 121.293 26.3874 121.478 26.308C121.663 26.2286 121.861 26.1898 122.061 26.1939C122.502 26.1966 122.93 26.3417 123.286 26.6085V26.0025C122.914 25.7895 122.494 25.6818 122.068 25.6906C121.706 25.6893 121.35 25.7872 121.038 25.9741ZM127.3 25.7828H126.661L124.866 27.6504V25.7828H124.357V29.791H124.866V27.8347L126.671 29.791H127.363L125.426 27.7284L127.3 25.7828ZM128.794 28.8447V25.7828H128.286V29.791H128.646L130.949 26.7396V29.791H131.457V25.7828H131.101L128.794 28.8447ZM135.742 25.7828H135.154L134.116 27.3457L133.079 25.7828H132.45L133.802 27.7532L132.419 29.791H133.006L134.103 28.136L135.199 29.791H135.807L134.424 27.7355L135.742 25.7828ZM141.572 25.7828H140.922L139.131 27.6504V25.7828H138.622V29.791H139.131V27.8347L140.936 29.791H141.61L139.674 27.7284L141.572 25.7828ZM145.417 25.758H142.706V28.8447C142.716 28.987 142.681 29.1287 142.606 29.2487C142.568 29.2942 142.521 29.33 142.468 29.3534C142.414 29.3768 142.356 29.387 142.298 29.3834C142.248 29.3883 142.197 29.3883 142.146 29.3834V29.8689C142.21 29.8736 142.273 29.8736 142.337 29.8689C142.457 29.8737 142.577 29.8522 142.688 29.8057C142.8 29.7592 142.9 29.689 142.983 29.5996C143.154 29.3843 143.239 29.111 143.222 28.8341V26.2754H144.899V29.8193H145.407V29.791L145.417 25.758ZM147.254 28.8447V25.7828H146.745V29.791H147.112L149.394 26.7396V29.791H149.903V25.7828H149.54L147.254 28.8447ZM153.78 27.459H151.743V25.7828H151.227V29.791H151.736V27.9198H153.772V29.791H154.281V25.7828H153.772L153.78 27.459ZM156.121 28.8447V25.7828H155.619V29.791H155.965L158.268 26.7396V29.791H158.78V25.7828H158.414L156.121 28.8447ZM161.152 27.7284L163.044 25.7828H162.401L160.609 27.6504V25.7828H160.101V29.791H160.609V27.8347L162.415 29.791H163.089L161.152 27.7284Z" fill="#98989A"/>
<path d="M108.059 1.24445C105.604 -0.0809865 98.9054 -0.42475 95.8277 1.43228C95.5091 7.1345 95.4819 11.8905 95.772 14.9808C96.0868 18.6169 98.2275 19.8502 102.688 19.8502C110.767 19.8502 112.461 12.9891 112.461 9.52314C112.472 5.45113 111.057 2.85341 108.059 1.24445ZM103.145 14.5449C102.865 14.5449 102.287 14.4492 102.27 13.8609C102.232 11.7346 102.27 6.51076 102.27 5.31645C103.761 5.03294 106.143 5.69566 106.122 9.40971C106.122 13.2549 104.577 14.5059 103.145 14.5449Z" fill="#4197CB"/>
<path d="M125.225 6.37961C129.721 6.37961 129.23 1.68034 128.542 0.673862C125.225 0.411608 118.205 0.319465 115.096 0.656141C114.723 3.8457 114.65 12.4788 114.799 15.0765C114.947 17.6742 115.712 18.9217 117.462 19.3753C118.803 19.6978 123.662 19.6588 125.208 19.4497C128.746 18.9784 129.23 15.7002 127.816 13.6731H121.408V12.5177C123.137 12.5177 123.7 12.5532 124.648 12.5177C127.386 12.3831 128.241 10.1858 127.124 7.66611C125.543 7.15575 122.469 7.36484 121.39 7.36484V6.37961H125.225Z" fill="#4197CB"/>
<path d="M142.389 1.71934V8.80725C142.371 8.82496 142.333 8.82496 142.316 8.84622C142.239 8.71159 142.146 8.58044 142.074 8.42804C140.732 6.0217 140.099 4.80967 138.816 2.59115C137.045 -0.460189 133.193 0.0501404 131.412 1.58467C131.191 3.82091 131.246 12.1208 131.412 16.7989C131.485 19.0741 135.116 21.1579 138.169 18.6169C138.225 15.9094 138.059 14.6406 138.003 12.3654C138.042 12.3654 138.097 12.3654 138.135 12.3654C138.215 12.468 138.289 12.5757 138.356 12.6879C138.785 13.3683 140.068 15.9058 141.122 17.3659C143.412 20.5306 147.434 20.1692 149.035 18.5425C149.315 14.715 149.149 5.9969 149.149 3.68624C149.132 0.468327 144.66 -1.08747 142.389 1.71934Z" fill="#4197CB"/>
<path d="M166.339 0.542738C164.216 0.560458 156.415 0.447051 154.07 0.599442C150.532 0.826257 150.266 5.25974 151.462 6.83324C152.72 7.04612 153.998 7.09022 155.267 6.96438C155.211 10.5863 155.377 14.5059 155.564 15.5691C156.387 19.9636 160.46 20.6051 162.027 18.8331C162.373 16.2389 162.511 10.5154 162.373 6.99273C162.466 6.99273 162.93 6.95376 163.583 6.91478C167.764 6.64186 167.318 1.86818 166.339 0.542738Z" fill="#4197CB"/>
<path d="M14.4843 11.7455C14.0382 12.029 12.437 13.1099 11.1714 13.28C9.27283 13.5671 7.4469 12.8441 7.14952 10.6079C6.94547 9.13004 7.22213 7.6912 8.53277 6.85838C9.53564 6.21337 10.3379 6.17793 11.4722 6.46145C13.9137 7.46439 17.2474 5.55064 16.3137 1.93227C12.3264 -0.417374 8.52585 -0.417374 5.41696 1.11361C3.08961 2.29375 1.38473 3.94878 0.537479 6.46145C-0.15976 8.64613 -0.17909 10.9986 0.482149 13.195C1.38473 16.4058 3.42505 18.5286 6.66534 19.3827C8.82329 19.932 12.0843 20.0631 14.0762 19.1169C18.8243 16.8417 17.109 12.2593 14.4843 11.7455Z" fill="#98989A"/>
<path d="M71.6857 11.7451C71.2398 12.0287 69.6353 13.1096 68.3698 13.2797C66.471 13.5667 64.6488 12.8438 64.3476 10.6076C64.1435 9.12975 64.4237 7.69091 65.7312 6.85809C66.7376 6.21306 67.5361 6.17762 68.6741 6.46116C71.0944 7.4641 74.4455 5.55034 73.5153 1.93196C69.511 -0.41768 65.7275 -0.41768 62.6188 1.11331C60.2913 2.2899 58.576 3.94847 57.7392 6.45762C57.0401 8.64198 57.0208 10.995 57.6838 13.1911C58.5968 16.409 60.6267 18.5319 63.8633 19.3859C66.025 19.9353 69.2828 20.0664 71.2744 19.1202C76.0228 16.8414 74.3107 12.259 71.6857 11.7451Z" fill="#98989A"/>
<path d="M32.574 12.1243C36.8034 8.95963 35.0155 3.56217 32.0553 1.53502C28.3101 -1.01308 20.4739 0.149337 18.852 1.76183C18.2364 4.05478 18.4612 13.7723 18.7794 15.4592C19.5782 19.7403 23.6761 20.3463 25.2219 18.624C25.3499 17.6954 25.464 16.292 25.5366 14.7256C25.5366 14.3287 25.5747 13.9282 25.5747 13.588C25.6202 13.5846 25.6648 13.5726 25.7061 13.5526C25.796 13.6837 25.9101 13.8361 26.0035 13.9849C27.1378 15.8207 27.6669 16.6535 28.1441 17.4155C30.34 21.0516 34.7527 20.5412 35.3509 17.2454C34.929 16.1042 33.0582 13.2052 32.1832 12.3724C32.3223 12.3052 32.4533 12.222 32.574 12.1243ZM27.4732 8.50595C27.0158 8.5794 26.5523 8.60433 26.0899 8.58042C26.0376 8.56359 25.9899 8.53423 25.9508 8.49482C25.9118 8.45534 25.8824 8.40694 25.8652 8.35361C25.8652 7.69084 25.8652 7.38964 25.8652 6.58161C27.2795 5.9189 28.2859 6.59933 28.2859 7.51016C28.2968 7.6303 28.2844 7.75151 28.2494 7.86672C28.2144 7.98193 28.1575 8.08891 28.0819 8.18153C28.0064 8.27409 27.9137 8.35045 27.8092 8.40612C27.7048 8.46179 27.5905 8.49577 27.4732 8.50595Z" fill="#98989A"/>
<path d="M93.3895 5.96859C92.8328 4.4695 90.7268 0.0501845 84.3808 0.092712C79.2625 0.113976 76.773 2.95623 75.6108 5.62482C74.7362 7.57752 74.5736 10.3808 75.1475 12.8261C75.7252 15.4203 77.0841 17.4333 79.4462 18.6808C81.8473 19.9424 84.6183 20.2491 87.2272 19.5419C90.54 18.7445 92.7184 16.6607 93.7247 13.3648C94.4274 10.9308 94.3092 8.32531 93.3895 5.96859ZM86.8536 10.2497C86.7429 12.3761 85.5325 13.1664 84.5472 13.2231C83.5612 13.2797 82.1436 12.5143 82.0119 10.3241C81.8634 8.07017 83.0943 6.87584 84.4711 6.87584C85.7916 6.87584 86.9847 8.10914 86.8536 10.2497Z" fill="#98989A"/>
<path d="M54.8932 5.96859C54.3365 4.4695 52.2201 0.0501845 45.8812 0.092712C40.7631 0.113976 38.2732 2.95623 37.1113 5.62482C36.2364 7.57752 36.0738 10.3808 36.6479 12.8261C37.2254 15.4203 38.5845 17.4333 40.9499 18.6808C43.3506 19.943 46.1224 20.2498 48.7308 19.5419C52.0471 18.7445 54.2258 16.6607 55.2287 13.3648C55.9326 10.931 55.8144 8.325 54.8932 5.96859ZM48.3607 10.2497C48.2466 12.3761 47.0363 13.1664 46.0507 13.2231C45.0651 13.2797 43.63 12.5143 43.5193 10.3241C43.3706 8.07017 44.5983 6.87584 45.9746 6.87584C47.351 6.87584 48.4887 8.10914 48.3607 10.2497Z" fill="#98989A"/>
</svg>
