<svg width="159" height="27" viewBox="0 0 159 27" fill="none" xmlns="http://www.w3.org/2000/svg">
<path d="M62.0768 0.403541V10.6006C62.0768 10.8912 61.9667 10.9997 61.636 10.9997H60.9436C60.6437 10.9997 60.5334 10.8912 60.5334 10.6006V1.39287H56.5642V3.80977C56.5642 9.57647 55.2411 10.4443 53.7416 11.156C53.4593 11.2818 53.3005 11.2514 53.1903 10.9694L52.8772 10.3836C52.736 10.1016 52.7978 9.94968 53.08 9.82383C54.0591 9.34218 55.0647 8.76942 55.0647 3.80977V0.403541C55.0647 0.108479 55.1749 0 55.4748 0H61.6493C61.9667 0 62.0768 0.108479 62.0768 0.403541Z" fill="#111111"/>
<path d="M68.031 2.77276C70.4568 2.77276 71.5902 4.15261 71.5902 5.97939V6.88192C71.5902 7.20739 71.4491 7.42431 71.008 7.42431H65.8742V8.16632C65.8742 9.34223 66.5975 10.0235 67.987 10.0235C69.1025 10.0235 69.7818 9.58959 70.192 8.95607C70.3813 8.69135 70.523 8.66097 70.8051 8.8172L71.2462 9.03412C71.5283 9.17299 71.5593 9.3726 71.3873 9.63727C70.836 10.5832 69.8127 11.2341 68 11.2341C65.5433 11.2341 64.5026 9.90199 64.5026 8.01009V6.07485C64.4717 3.9964 65.7109 2.77276 68.031 2.77276ZM67.1976 0.837499V0.958999C67.1976 1.458 67.0386 1.60987 66.5356 1.60987H66.4255C65.9361 1.60987 65.7814 1.458 65.7814 0.958999V0.837499C65.7814 0.355855 65.9361 0.199646 66.4255 0.199646H66.5356C67.0343 0.199646 67.1976 0.355855 67.1976 0.837499ZM68.031 3.95301C66.6154 3.95301 65.8742 4.695 65.8742 5.90563V6.33952H70.192V5.90563C70.192 4.695 69.4644 3.95301 68.031 3.95301ZM70.2848 0.837499V0.958999C70.2848 1.458 70.1258 1.60987 69.6408 1.60987H69.5306C69.0233 1.60987 68.8686 1.458 68.8686 0.958999V0.837499C68.8686 0.355855 69.0233 0.199646 69.5306 0.199646H69.6408C70.1215 0.199646 70.2848 0.355855 70.2848 0.837499Z" fill="#111111"/>
<path d="M79.3255 3.37585V3.90522C79.3255 4.18726 79.2284 4.27839 78.9463 4.27839H75.215V10.6309C75.215 10.9086 75.1185 10.9997 74.8358 10.9997H74.1744C73.9053 10.9997 73.7952 10.9086 73.7952 10.6309V3.37585C73.7952 3.09814 73.8923 3.00702 74.1744 3.00702H78.9419C79.2284 3.00702 79.3255 3.09814 79.3255 3.37585Z" fill="#111111"/>
<path d="M87.7624 10.9997H87.145C86.7039 10.9997 86.6426 10.9563 86.5009 10.6613L85.4164 8.41362C85.3112 8.13429 85.1145 7.89743 84.8571 7.74027C84.6004 7.58312 84.2972 7.5147 83.9959 7.54575H82.5631V10.5832C82.5631 10.8782 82.4703 10.9694 82.1702 10.9694H81.5441C81.244 10.9694 81.1519 10.8782 81.1519 10.5832V3.37585C81.1519 3.09814 81.244 3.00702 81.5441 3.00702H82.1745C82.4746 3.00702 82.5674 3.09814 82.5674 3.37585V6.27442H83.952L86.303 3.28472C86.5059 3.00702 86.616 3.00702 87.0392 3.00702H87.6393C88.0185 3.00702 88.0804 3.16323 87.8775 3.44093L85.3545 6.53908C85.6397 6.65874 85.8977 6.83264 86.1143 7.05085C86.3308 7.26906 86.5009 7.52722 86.616 7.81047L88.0006 10.5658C88.1726 10.8782 88.1287 10.9997 87.7624 10.9997Z" fill="#111111"/>
<path d="M92.9933 2.77271C95.5466 2.77271 96.2525 4.15255 96.2525 5.90557V9.94967C96.2525 10.4921 96.1288 10.6439 95.6877 10.8175C94.8203 11.1231 93.9009 11.2602 92.9797 11.221C90.2062 11.221 89.5312 10.3532 89.5312 8.7564C89.5312 6.94261 90.5366 6.32646 93.0595 6.32646C93.659 6.32873 94.2585 6.36493 94.8543 6.43495V5.85784C94.8543 4.7557 94.4621 4.01371 92.9797 4.01371C92.5974 3.97856 92.212 4.04833 91.8673 4.21528C91.5227 4.38225 91.2313 4.63988 91.0259 4.95964C90.854 5.20697 90.7927 5.2547 90.5056 5.14622L90.0206 4.92926C89.7515 4.82078 89.6723 4.67759 89.8133 4.39988C90.3336 3.37585 91.3879 2.77271 92.9933 2.77271ZM92.8832 7.46764C91.4009 7.46764 90.9468 7.9016 90.9468 8.7694C90.9468 9.57646 91.2777 10.0712 92.8523 10.0712C93.4462 10.103 94.042 10.04 94.6161 9.88457C94.8061 9.80645 94.8543 9.76307 94.8543 9.54615V7.59349C94.5233 7.56312 93.6547 7.46764 92.8832 7.46764Z" fill="#111111"/>
<path d="M105.073 3.37585V10.6309C105.073 10.9086 104.98 10.9997 104.694 10.9997H104.032C103.75 10.9997 103.657 10.9086 103.657 10.6309V8.24438H101.532L99.9702 10.6613C99.7982 10.9563 99.688 10.9867 99.2779 10.9867H98.6957C98.2546 10.9867 98.2063 10.8479 98.4136 10.5528L100.111 8.07513C99.5767 7.93283 99.1083 7.61245 98.7866 7.16855C98.4649 6.72471 98.3096 6.18477 98.3474 5.64088C98.3474 3.99634 99.4016 3.00702 101.073 3.00702H104.663C104.963 3.00702 105.073 3.09814 105.073 3.37585ZM99.8291 5.64088C99.8198 5.82639 99.8508 6.01175 99.92 6.18452C99.9893 6.35726 100.096 6.51343 100.231 6.64248C100.367 6.77153 100.529 6.87051 100.707 6.93279C100.885 6.99501 101.074 7.01907 101.263 7.00336H103.64V4.24367H101.245C101.055 4.23002 100.864 4.25684 100.686 4.32229C100.508 4.38774 100.346 4.49028 100.211 4.62291C100.077 4.75555 99.9733 4.91516 99.9071 5.09084C99.8415 5.26652 99.8149 5.45413 99.8291 5.64088Z" fill="#111111"/>
<path d="M58.0152 14.918C60.3791 14.918 61.6845 15.8465 62.2532 17.5518C62.346 17.8469 62.2841 17.9857 61.9847 18.0812L61.3406 18.2982C61.0406 18.3893 60.8995 18.3416 60.8025 18.0465C60.4099 16.8879 59.5896 16.3109 58.0152 16.3109C56.1408 16.3109 55.1352 17.2438 55.1352 18.871V22.4334C55.1352 24.0432 56.1584 24.9892 58.0152 24.9892C59.6205 24.9892 60.4276 24.386 60.8201 23.2231C60.9304 22.915 61.0539 22.85 61.3538 22.9584L62.002 23.1927C62.2977 23.2839 62.3769 23.4227 62.2668 23.7178C61.7022 25.4231 60.4099 26.3863 58.0152 26.3863C55.1793 26.3863 53.6049 24.8677 53.6049 22.416V18.884C53.6049 16.4367 55.1661 14.918 58.0152 14.918Z" fill="#111111"/>
<path d="M70.4259 18.5281V19.0922C70.4259 19.37 70.3331 19.4654 70.0466 19.4654H67.7489V25.8006C67.7489 26.0826 67.6691 26.1737 67.3869 26.1737H66.7256C66.4435 26.1737 66.3463 26.0826 66.3463 25.8006V19.4437H64.0486C63.7615 19.4437 63.6693 19.3482 63.6693 19.0705V18.5281C63.6693 18.2505 63.7615 18.155 64.0486 18.155H70.0466C70.3331 18.155 70.4259 18.2505 70.4259 18.5281Z" fill="#111111"/>
<path d="M75.4359 17.925C77.7027 17.925 78.9642 19.0532 78.9642 20.8973V23.4314C78.9642 25.2625 77.6897 26.395 75.4359 26.395C73.1821 26.395 71.9076 25.2625 71.9076 23.4314V20.8973C71.9076 19.0532 73.2087 17.925 75.4359 17.925ZM75.4359 19.179C74.1126 19.179 73.3058 19.8125 73.3058 20.8843V23.4314C73.3058 24.5032 74.1126 25.1367 75.4359 25.1367C76.7586 25.1367 77.5747 24.5032 77.5747 23.4314V20.8843C77.5747 19.8125 76.7723 19.179 75.4359 19.179Z" fill="#111111"/>
<path d="M89.4341 18.5585V25.7788C89.4341 26.0739 89.3413 26.152 89.0548 26.152H88.49C88.1906 26.152 88.1107 26.0739 88.1107 25.7788V22.1991C88.1281 21.4856 88.2122 20.7754 88.3625 20.0772H88.3007C88.1015 20.6448 87.8367 21.1878 87.5112 21.6957L85.9986 24.2992C85.8575 24.5335 85.7957 24.5769 85.5265 24.5769H85.1782C85.0792 24.59 84.9784 24.5697 84.893 24.5193C84.807 24.4688 84.7414 24.3912 84.7062 24.2992L83.2114 21.7434C82.8947 21.2091 82.6262 20.6487 82.4084 20.0685H82.3601C82.4925 20.7851 82.5724 21.5102 82.5983 22.2381V25.7528C82.5983 26.0478 82.5185 26.126 82.2364 26.126H81.6852C81.3678 26.126 81.2886 26.0478 81.2886 25.7528V18.5585C81.2886 18.2504 81.3851 18.1549 81.7291 18.1549H82.2191C82.3311 18.1365 82.4461 18.1578 82.5439 18.215C82.6416 18.2722 82.7153 18.3616 82.7524 18.4674L85.3985 23.0539L87.9833 18.4674C88.0192 18.3636 88.0909 18.2756 88.1856 18.2185C88.2809 18.1615 88.3935 18.1389 88.5036 18.1549H89.0369C89.3549 18.1549 89.4341 18.2504 89.4341 18.5585Z" fill="#111111"/>
<path d="M95.0573 17.925C97.6062 17.925 98.3165 19.3049 98.3165 21.0536V25.0977C98.3165 25.6401 98.1927 25.7962 97.7522 25.9655C96.883 26.271 95.9618 26.408 95.0393 26.369C92.2701 26.369 91.5908 25.5012 91.5908 23.9044C91.5908 22.0906 92.6005 21.4701 95.1191 21.4701C95.7186 21.4746 96.3181 21.5108 96.9139 21.5786V21.0058C96.9139 19.908 96.5174 19.1616 95.0393 19.1616C94.652 19.1207 94.2604 19.1876 93.9096 19.3548C93.5588 19.5221 93.2625 19.7829 93.0552 20.1076C92.8832 20.3549 92.817 20.4027 92.5343 20.2942L92.0449 20.0773C91.7801 19.9688 91.7009 19.8299 91.842 19.5522C92.3932 18.5281 93.4518 17.925 95.0573 17.925ZM94.9471 22.62C93.4654 22.62 93.0107 23.0539 93.0107 23.9218C93.0107 24.7244 93.3417 25.2235 94.9162 25.2235C95.5108 25.253 96.1059 25.19 96.6801 25.0369C96.87 24.9588 96.9183 24.9111 96.9183 24.6941V22.7415C96.5829 22.7111 95.7013 22.62 94.9471 22.62Z" fill="#111111"/>
<path d="M106.678 18.5281V19.0922C106.678 19.37 106.586 19.4654 106.299 19.4654H104.001V25.8006C104.001 26.0826 103.922 26.1737 103.64 26.1737H102.978C102.696 26.1737 102.599 26.0826 102.599 25.8006V19.4437H100.301C100.019 19.4437 99.9219 19.3482 99.9219 19.0705V18.5281C99.9219 18.2505 100.019 18.155 100.301 18.155H106.286C106.586 18.155 106.678 18.2505 106.678 18.5281Z" fill="#111111"/>
<path d="M111.689 17.925C113.955 17.925 115.217 19.0532 115.217 20.8973V23.4314C115.217 25.2625 113.942 26.395 111.689 26.395C109.435 26.395 108.16 25.2625 108.16 23.4314V20.8973C108.16 19.0532 109.466 17.925 111.689 17.925ZM111.689 19.179C110.365 19.179 109.563 19.8125 109.563 20.8843V23.4314C109.563 24.5032 110.365 25.1367 111.689 25.1367C113.011 25.1367 113.827 24.5032 113.827 23.4314V20.8843C113.827 19.8125 113.025 19.179 111.689 19.179Z" fill="#111111"/>
<path d="M124.05 18.5281V25.7788C124.05 26.0609 123.958 26.1521 123.671 26.1521H123.045C122.763 26.1521 122.666 26.0609 122.666 25.7788V19.4437H119.627V21.0405C119.627 24.9892 118.507 25.8136 117.422 26.3386C117.202 26.4297 117.078 26.369 116.981 26.1521L116.65 25.5315C116.625 25.4952 116.609 25.4537 116.603 25.4104C116.597 25.367 116.6 25.3227 116.614 25.281C116.627 25.2393 116.65 25.2011 116.681 25.1694C116.712 25.1376 116.749 25.1131 116.791 25.0976C117.47 24.7722 118.286 24.3556 118.286 20.9451V18.5281C118.286 18.2505 118.383 18.155 118.665 18.155H123.72C123.958 18.155 124.05 18.2505 124.05 18.5281Z" fill="#111111"/>
<path d="M129.925 17.925C132.192 17.925 133.453 19.0532 133.453 20.8973V23.4314C133.453 25.2625 132.179 26.395 129.925 26.395C127.671 26.395 126.397 25.2625 126.397 23.4314V20.8973C126.397 19.0532 127.702 17.925 129.925 17.925ZM129.925 19.179C128.602 19.179 127.8 19.8125 127.8 20.8843V23.4314C127.8 24.5032 128.602 25.1367 129.925 25.1367C131.248 25.1367 132.068 24.5032 132.068 23.4314V20.8843C132.068 19.8125 131.262 19.179 129.925 19.179Z" fill="#111111"/>
<path d="M141.326 18.5281V19.0922C141.326 19.37 141.233 19.4654 140.946 19.4654H137.215V25.8006C137.215 26.0826 137.122 26.1737 136.836 26.1737H136.175C135.91 26.1737 135.8 26.0826 135.8 25.8006V18.5281C135.8 18.2505 135.892 18.155 136.175 18.155H140.946C141.233 18.155 141.326 18.2505 141.326 18.5281Z" fill="#111111"/>
<path d="M144.572 18.5281V22.3075C144.579 22.988 144.495 23.6665 144.32 24.3252H144.365C144.594 23.8292 144.879 23.3605 145.215 22.928L148.651 18.3415C148.686 18.279 148.739 18.2279 148.804 18.1948C148.868 18.1616 148.94 18.1477 149.013 18.1549H149.674C149.957 18.1549 150.049 18.2504 150.049 18.5281V25.7788C150.049 26.0609 149.957 26.152 149.674 26.152H149.013C148.726 26.152 148.633 26.0609 148.633 25.7788V22.0602C148.64 21.3661 148.724 20.6749 148.885 19.9991H148.836C148.591 20.5024 148.296 20.9805 147.954 21.4266L144.572 25.9654C144.529 26.0254 144.473 26.0739 144.406 26.1065C144.34 26.1391 144.266 26.1548 144.193 26.152H143.531C143.261 26.152 143.151 26.0609 143.151 25.7788V18.5281C143.151 18.2504 143.249 18.1549 143.531 18.1549H144.214C144.475 18.1549 144.572 18.2504 144.572 18.5281Z" fill="#111111"/>
<path d="M158.998 18.5281V25.7788C158.998 26.0609 158.9 26.1521 158.618 26.1521H157.957C157.675 26.1521 157.578 26.0609 157.578 25.7788V23.4314H155.452L153.917 25.8266C153.741 26.1217 153.63 26.1521 153.225 26.1521H152.638C152.197 26.1521 152.153 26.0132 152.356 25.7181L154.041 23.2231C153.511 23.0757 153.05 22.753 152.733 22.3095C152.418 21.866 152.267 21.3289 152.307 20.7888C152.307 19.1486 153.366 18.155 155.033 18.155H158.623C158.887 18.155 158.998 18.2505 158.998 18.5281ZM153.754 20.7888C153.744 20.9747 153.774 21.1606 153.843 21.3339C153.913 21.5071 154.018 21.6638 154.154 21.7933C154.29 21.9229 154.453 22.0223 154.631 22.0848C154.809 22.1473 154.998 22.1715 155.187 22.1557H157.578V19.396H155.187C154.997 19.3798 154.804 19.4045 154.624 19.4685C154.444 19.5325 154.28 19.6343 154.143 19.7667C154.007 19.8992 153.902 20.0592 153.835 20.2357C153.767 20.4121 153.74 20.6009 153.754 20.7888Z" fill="#111111"/>
<path d="M44.7578 0.83739C44.7205 0.800523 44.6762 0.771271 44.6273 0.751309C44.5785 0.731348 44.5262 0.721069 44.4734 0.721069C44.4205 0.721069 44.3681 0.731348 44.3193 0.751309C44.2705 0.771271 44.2262 0.800523 44.1889 0.83739C38.4724 6.42011 30.7432 9.55088 22.6887 9.54603C14.6398 9.55972 6.91217 6.43993 1.19289 0.867765C1.11626 0.794086 1.01337 0.752837 0.906226 0.752837C0.799077 0.752837 0.696185 0.794086 0.619556 0.867765L0.121191 1.30168C0.082787 1.33919 0.0523074 1.3838 0.0315079 1.43296C0.0107083 1.48211 0 1.53482 0 1.58806C0 1.6413 0.0107083 1.69402 0.0315079 1.74317C0.0523074 1.79233 0.082787 1.83694 0.121191 1.87445C6.12744 7.72451 14.2415 11.0001 22.6931 10.9867C31.1447 11.0001 39.2588 7.72451 45.265 1.87445C45.3039 1.83724 45.3349 1.79272 45.356 1.74353C45.3772 1.69434 45.3881 1.64147 45.3881 1.58806C45.3881 1.53465 45.3772 1.48179 45.356 1.4326C45.3349 1.3834 45.3039 1.33889 45.265 1.30168L44.7578 0.83739Z" fill="#111111"/>
</svg>
