<svg width="30" height="30" viewBox="0 0 30 30" fill="none" xmlns="http://www.w3.org/2000/svg">
<path d="M27.1662 8.10295C25.8682 5.88987 24.1075 4.13777 21.8838 2.84626C19.6596 1.55468 17.2315 0.909058 14.5978 0.909058C11.9644 0.909058 9.53549 1.55488 7.31182 2.84626C5.08783 4.13771 3.32723 5.88987 2.02921 8.10295C0.731399 10.316 0.0824585 12.7326 0.0824585 15.3528C0.0824585 18.5002 1.00526 21.3304 2.85133 23.8442C4.6972 26.3582 7.08179 28.0978 10.0049 29.0632C10.3452 29.126 10.597 29.0818 10.7608 28.9317C10.9247 28.7814 11.0065 28.5931 11.0065 28.3677C11.0065 28.3301 11.0032 27.9917 10.9969 27.3521C10.9905 26.7126 10.9874 26.1546 10.9874 25.6785L10.5527 25.7534C10.2755 25.8039 9.92586 25.8253 9.50371 25.8192C9.08176 25.8134 8.64373 25.7694 8.19021 25.6876C7.73649 25.6065 7.31447 25.4184 6.92384 25.1238C6.5334 24.8291 6.25623 24.4434 6.09239 23.9673L5.90339 23.5345C5.77742 23.2464 5.57909 22.9263 5.30814 22.5754C5.03719 22.2243 4.7632 21.9862 4.48602 21.8609L4.35369 21.7666C4.26552 21.7039 4.1837 21.6284 4.10803 21.5407C4.03243 21.453 3.97584 21.3653 3.93804 21.2774C3.90017 21.1895 3.93155 21.1173 4.0325 21.0608C4.13345 21.0042 4.3159 20.9767 4.58062 20.9767L4.95848 21.0329C5.2105 21.0832 5.52222 21.2333 5.89406 21.4842C6.2657 21.7349 6.5712 22.0608 6.81064 22.4619C7.10059 22.9761 7.44991 23.3679 7.85961 23.6375C8.26898 23.9071 8.68173 24.0417 9.09745 24.0417C9.51318 24.0417 9.87224 24.0104 10.1748 23.948C10.477 23.8853 10.7605 23.791 11.0252 23.6657C11.1386 22.8253 11.4474 22.1797 11.9512 21.7284C11.2331 21.6533 10.5874 21.5402 10.014 21.3898C9.44082 21.2392 8.84855 20.9948 8.23754 20.656C7.6262 20.3176 7.11906 19.8974 6.71598 19.3961C6.31283 18.8945 5.98197 18.236 5.72386 17.4213C5.46562 16.6061 5.33647 15.6659 5.33647 14.6002C5.33647 13.0828 5.83428 11.7915 6.8297 10.7257C6.3634 9.5849 6.40743 8.30604 6.9619 6.88923C7.32731 6.77626 7.86921 6.86104 8.58733 7.14304C9.30558 7.42518 9.83146 7.66687 10.1655 7.86726C10.4995 8.06758 10.7672 8.23733 10.9688 8.37501C12.1408 8.04913 13.3504 7.88616 14.5977 7.88616C15.845 7.88616 17.0547 8.04913 18.2268 8.37501L18.945 7.92384C19.4361 7.6228 20.0161 7.34692 20.6835 7.09614C21.3513 6.84549 21.862 6.77646 22.2149 6.88943C22.7817 8.3063 22.8322 9.5851 22.3658 10.7259C23.3612 11.7917 23.8592 13.0833 23.8592 14.6004C23.8592 15.6661 23.7296 16.6093 23.4717 17.4307C23.2135 18.2522 22.8798 18.91 22.4705 19.4055C22.0606 19.9009 21.5503 20.3178 20.9392 20.6562C20.3281 20.9948 19.7356 21.2391 19.1625 21.3897C18.5891 21.5403 17.9434 21.6535 17.2253 21.7287C17.8803 22.2927 18.2078 23.183 18.2078 24.3991V28.3672C18.2078 28.5926 18.2866 28.7808 18.4443 28.9312C18.6018 29.0813 18.8505 29.1255 19.1907 29.0626C22.1143 28.0973 24.4988 26.3577 26.3447 23.8437C28.1903 21.3299 29.1134 18.4997 29.1134 15.3522C29.1127 12.7324 28.4635 10.316 27.1662 8.10295Z" fill="white"/>
</svg>
