<svg width="161" height="95" viewBox="0 0 161 95" fill="none" xmlns="http://www.w3.org/2000/svg">
<path fill-rule="evenodd" clip-rule="evenodd" d="M10.2786 3.3758C10.2786 5.23723 8.76662 6.75161 6.9081 6.75161C5.04958 6.75161 3.53788 5.23723 3.53788 3.3758C3.53788 1.51438 5.04958 0 6.9081 0C8.76662 0 10.2786 1.51438 10.2786 3.3758ZM11.0426 8.35229L13.773 16.8254C13.8538 17.0768 13.8209 17.3311 13.6809 17.5233C13.5409 17.7155 13.3098 17.8258 13.046 17.8258H12.3462C11.8703 17.8258 11.3832 17.4706 11.237 17.017C11.0974 16.5838 10.4587 16.6844 10.4587 17.1397V17.8632V18.0199V27.1061C10.4587 27.965 9.76104 28.6638 8.90348 28.6638H8.79399C7.93642 28.6638 7.23874 27.965 7.23874 27.1061V19.2858C7.23874 19.1028 7.09064 18.9545 6.90794 18.9545C6.72524 18.9545 6.57714 19.1028 6.57714 19.2858V27.1061C6.57714 27.965 5.87945 28.6638 5.02189 28.6638H4.9124C4.05484 28.6638 3.35715 27.965 3.35715 27.1061V18.0199V17.8632V17.1395C3.35715 16.6846 2.71897 16.5841 2.57953 17.017C2.43334 17.4706 1.94623 17.8258 1.47033 17.8258H0.770465C0.506695 17.8258 0.275275 17.7155 0.135613 17.5233C-0.00404787 17.3311 -0.0376415 17.0768 0.0432314 16.8254L2.773 8.35229C2.91919 7.89869 3.4063 7.54354 3.8822 7.54354H4.2903H4.58207H9.2335H9.52526H9.93336C10.4093 7.54354 10.8964 7.89869 11.0426 8.35229ZM28.168 6.75161C30.0265 6.75161 31.5385 5.23723 31.5385 3.3758C31.5385 1.51438 30.0265 0 28.168 0C26.3094 0 24.7977 1.51438 24.7977 3.3758C24.7977 5.23723 26.3094 6.75161 28.168 6.75161ZM32.3024 8.35229L35.0328 16.8254C35.1137 17.0768 35.0807 17.3311 34.9408 17.5233C34.8008 17.7155 34.5697 17.8258 34.3059 17.8258H33.606C33.1301 17.8258 32.643 17.4706 32.4968 17.017C32.3572 16.5838 31.7186 16.6844 31.7186 17.1397V17.8632V18.0199V27.1061C31.7186 27.965 31.0209 28.6638 30.1633 28.6638H30.0538C29.1963 28.6638 28.4986 27.965 28.4986 27.1061V19.2858C28.4986 19.1028 28.3505 18.9545 28.1678 18.9545C27.9851 18.9545 27.837 19.1028 27.837 19.2858V27.1061C27.837 27.965 27.1393 28.6638 26.2818 28.6638H26.1723C25.3147 28.6638 24.617 27.965 24.617 27.1061V18.0199V17.8632V17.1395C24.617 16.6846 23.9788 16.5841 23.8394 17.017C23.6932 17.4706 23.2061 17.8258 22.7302 17.8258H22.0303C21.7666 17.8258 21.5351 17.7155 21.3955 17.5233C21.2558 17.3311 21.2222 17.0768 21.3031 16.8254L24.0329 8.35229C24.1791 7.89869 24.6662 7.54354 25.1421 7.54354H25.5502H25.8419H30.4934H30.7851H31.1932C31.6691 7.54354 32.1562 7.89869 32.3024 8.35229ZM49.4278 6.75161C51.2863 6.75161 52.7984 5.23723 52.7984 3.3758C52.7984 1.51438 51.2863 0 49.4278 0C47.5693 0 46.0576 1.51438 46.0576 3.3758C46.0576 5.23723 47.5693 6.75161 49.4278 6.75161ZM53.5623 8.35229L56.2927 16.8254C56.3736 17.0768 56.3406 17.3311 56.2006 17.5233C56.0606 17.7155 55.8295 17.8258 55.5658 17.8258H54.8659C54.39 17.8258 53.9029 17.4706 53.7567 17.017C53.6171 16.5838 52.9784 16.6844 52.9784 17.1397V17.8632V18.0199V27.1061C52.9784 27.965 52.2808 28.6638 51.4232 28.6638H51.3137C50.4561 28.6638 49.7585 27.965 49.7585 27.1061V19.2858C49.7585 19.1028 49.6104 18.9545 49.4277 18.9545C49.245 18.9545 49.0969 19.1028 49.0969 19.2858V27.1061C49.0969 27.965 48.3992 28.6638 47.5416 28.6638H47.4321C46.5746 28.6638 45.8769 27.965 45.8769 27.1061V18.0199V17.8632V17.1395C45.8769 16.6846 45.2387 16.5841 45.0993 17.017C44.9531 17.4706 44.466 17.8258 43.99 17.8258H43.2902C43.0264 17.8258 42.795 17.7155 42.6553 17.5233C42.5157 17.3311 42.4821 17.0768 42.563 16.8254L45.2927 8.35229C45.4389 7.89869 45.926 7.54354 46.4019 7.54354H46.81H47.1018H51.7532H52.045H52.4531C52.929 7.54354 53.4161 7.89869 53.5623 8.35229ZM70.6877 6.75161C72.5462 6.75161 74.0582 5.23723 74.0582 3.3758C74.0582 1.51438 72.5462 0 70.6877 0C68.8292 0 67.3175 1.51438 67.3175 3.3758C67.3175 5.23723 68.8292 6.75161 70.6877 6.75161ZM74.8222 8.35229L77.5525 16.8254C77.6334 17.0768 77.6004 17.3311 77.4605 17.5233C77.3205 17.7155 77.0894 17.8258 76.8256 17.8258H76.1258C75.6499 17.8258 75.1627 17.4706 75.0166 17.017C74.877 16.5838 74.2383 16.6844 74.2383 17.1397V17.8632V18.0199V27.1061C74.2383 27.965 73.5406 28.6638 72.6831 28.6638H72.5736C71.716 28.6638 71.0183 27.965 71.0183 27.1061V19.2858C71.0183 19.1028 70.8702 18.9545 70.6875 18.9545C70.5048 18.9545 70.3567 19.1028 70.3567 19.2858V27.1061C70.3567 27.965 69.659 28.6638 68.8015 28.6638H68.692C67.8344 28.6638 67.1367 27.965 67.1367 27.1061V18.0199V17.8632V17.1395C67.1367 16.6846 66.4986 16.5841 66.3591 17.017C66.2129 17.4706 65.7258 17.8258 65.2499 17.8258H64.55C64.2863 17.8258 64.0549 17.7155 63.9152 17.5233C63.7755 17.3311 63.7419 17.0768 63.8228 16.8254L66.5526 8.35229C66.6988 7.89869 67.1859 7.54354 67.6618 7.54354H68.0699H68.3616H73.0131H73.3048H73.7129C74.1889 7.54354 74.676 7.89869 74.8222 8.35229ZM93.6827 3.37581C93.6827 5.23724 92.1707 6.75161 90.3122 6.75161C88.4536 6.75161 86.9419 5.23724 86.9419 3.37581C86.9419 1.51438 88.4536 7.01165e-06 90.3122 7.01165e-06C92.1707 7.01165e-06 93.6827 1.51438 93.6827 3.37581ZM94.4466 8.35229L97.177 16.8254C97.2579 17.0769 97.2249 17.3311 97.085 17.5233C96.945 17.7155 96.7139 17.8258 96.4501 17.8258H95.7502C95.2743 17.8258 94.7872 17.4706 94.641 17.017C94.5015 16.5838 93.8628 16.6844 93.8628 17.1397V17.8632V18.0199V27.1061C93.8628 27.965 93.1651 28.6638 92.3075 28.6638H92.1981C91.3405 28.6638 90.6428 27.965 90.6428 27.1061V19.2858C90.6428 19.1028 90.4947 18.9545 90.312 18.9545C90.1293 18.9545 89.9812 19.1028 89.9812 19.2858V27.1061C89.9812 27.965 89.2835 28.6638 88.426 28.6638H88.3165C87.4589 28.6638 86.7612 27.965 86.7612 27.1061V18.0199V17.8632V17.1396C86.7612 16.6846 86.123 16.5841 85.9836 17.017C85.8374 17.4706 85.3503 17.8258 84.8744 17.8258H84.1745C83.9108 17.8258 83.6793 17.7155 83.5397 17.5233C83.4 17.3311 83.3664 17.0769 83.4473 16.8254L86.1771 8.35229C86.3233 7.8987 86.8104 7.54355 87.2863 7.54355H87.6944H87.9861H92.6376H92.9293H93.3374C93.8133 7.54355 94.3004 7.8987 94.4466 8.35229ZM111.572 6.75161C113.431 6.75161 114.943 5.23724 114.943 3.37581C114.943 1.51438 113.431 7.01165e-06 111.572 7.01165e-06C109.714 7.01165e-06 108.202 1.51438 108.202 3.37581C108.202 5.23724 109.714 6.75161 111.572 6.75161ZM115.706 8.35229L118.437 16.8254C118.518 17.0769 118.485 17.3311 118.345 17.5233C118.205 17.7155 117.974 17.8258 117.71 17.8258H117.01C116.534 17.8258 116.047 17.4706 115.901 17.017C115.761 16.5838 115.123 16.6844 115.123 17.1397V17.8632V18.0199V27.1061C115.123 27.965 114.425 28.6638 113.567 28.6638H113.458C112.6 28.6638 111.903 27.965 111.903 27.1061V19.2858C111.903 19.1028 111.755 18.9545 111.572 18.9545C111.389 18.9545 111.241 19.1028 111.241 19.2858V27.1061C111.241 27.965 110.543 28.6638 109.686 28.6638H109.576C108.719 28.6638 108.021 27.965 108.021 27.1061V18.0199V17.8632V17.1396C108.021 16.6846 107.383 16.5841 107.243 17.017C107.097 17.4706 106.61 17.8258 106.134 17.8258H105.434C105.171 17.8258 104.939 17.7155 104.8 17.5233C104.66 17.3311 104.626 17.0769 104.707 16.8254L107.437 8.35229C107.583 7.8987 108.07 7.54355 108.546 7.54355H108.954H109.246H113.897H114.189H114.597C115.073 7.54355 115.56 7.8987 115.706 8.35229ZM132.832 6.75161C134.69 6.75161 136.202 5.23724 136.202 3.37581C136.202 1.51438 134.69 7.01165e-06 132.832 7.01165e-06C130.973 7.01165e-06 129.462 1.51438 129.462 3.37581C129.462 5.23724 130.973 6.75161 132.832 6.75161ZM136.966 8.35229L139.697 16.8254C139.778 17.0769 139.745 17.3311 139.605 17.5233C139.465 17.7155 139.234 17.8258 138.97 17.8258H138.27C137.794 17.8258 137.307 17.4706 137.161 17.017C137.021 16.5838 136.383 16.6844 136.383 17.1397V17.8632V18.0199V27.1061C136.383 27.965 135.685 28.6638 134.827 28.6638H134.718C133.86 28.6638 133.163 27.965 133.163 27.1061V19.2858C133.163 19.1028 133.014 18.9545 132.832 18.9545C132.649 18.9545 132.501 19.1028 132.501 19.2858V27.1061C132.501 27.965 131.803 28.6638 130.946 28.6638H130.836C129.979 28.6638 129.281 27.965 129.281 27.1061V18.0199V17.8632V17.1396C129.281 16.6846 128.643 16.5841 128.503 17.017C128.357 17.4706 127.87 17.8258 127.394 17.8258H126.694C126.43 17.8258 126.199 17.7155 126.059 17.5233C125.92 17.3311 125.886 17.0769 125.967 16.8254L128.697 8.35229C128.843 7.8987 129.33 7.54355 129.806 7.54355H130.214H130.506H135.157H135.449H135.857C136.333 7.54355 136.82 7.8987 136.966 8.35229ZM154.092 6.75161C155.95 6.75161 157.462 5.23724 157.462 3.37581C157.462 1.51438 155.95 7.01165e-06 154.092 7.01165e-06C152.233 7.01165e-06 150.722 1.51438 150.722 3.37581C150.722 5.23724 152.233 6.75161 154.092 6.75161ZM158.226 8.35229L160.957 16.8254C161.037 17.0769 161.005 17.3311 160.865 17.5233C160.725 17.7155 160.493 17.8258 160.23 17.8258H159.53C159.054 17.8258 158.567 17.4706 158.421 17.017C158.281 16.5838 157.642 16.6844 157.642 17.1397V17.8632V18.0199V27.1061C157.642 27.965 156.945 28.6638 156.087 28.6638H155.978C155.12 28.6638 154.422 27.965 154.422 27.1061V19.2858C154.422 19.1028 154.274 18.9545 154.092 18.9545C153.909 18.9545 153.761 19.1028 153.761 19.2858V27.1061C153.761 27.965 153.063 28.6638 152.206 28.6638H152.096C151.238 28.6638 150.541 27.965 150.541 27.1061V18.0199V17.8632V17.1395C150.541 16.6846 149.903 16.5841 149.763 17.017C149.617 17.4706 149.13 17.8258 148.654 17.8258H147.954C147.69 17.8258 147.459 17.7155 147.319 17.5233C147.18 17.3311 147.146 17.0769 147.227 16.8254L149.957 8.35229C150.103 7.8987 150.59 7.54355 151.066 7.54355H151.474H151.766H156.417H156.709H157.117C157.593 7.54355 158.08 7.8987 158.226 8.35229ZM93.6827 36.9534C93.6827 38.8148 92.1707 40.3292 90.3122 40.3292C88.4537 40.3292 86.942 38.8148 86.942 36.9534C86.942 35.092 88.4537 33.5776 90.3122 33.5776C92.1707 33.5776 93.6827 35.092 93.6827 36.9534ZM94.4466 41.9299L97.177 50.403C97.2579 50.6544 97.2249 50.9086 97.085 51.1009C96.945 51.2931 96.7139 51.4034 96.4501 51.4034H95.7503C95.2743 51.4034 94.7872 51.0482 94.6411 50.5946C94.5015 50.1613 93.8628 50.262 93.8628 50.7173V51.4407V51.5974V60.6837C93.8628 61.5426 93.1651 62.2414 92.3076 62.2414H92.1981C91.3405 62.2414 90.6428 61.5426 90.6428 60.6837V52.8634C90.6428 52.6804 90.4947 52.5321 90.312 52.5321C90.1293 52.5321 89.9812 52.6804 89.9812 52.8634V60.6837C89.9812 61.5426 89.2835 62.2414 88.426 62.2414H88.3165C87.4589 62.2414 86.7612 61.5426 86.7612 60.6837V51.5974V51.4407V50.7171C86.7612 50.2622 86.1231 50.1617 85.9836 50.5946C85.8374 51.0482 85.3503 51.4034 84.8744 51.4034H84.1745C83.9108 51.4034 83.6794 51.2931 83.5397 51.1009C83.4 50.9086 83.3664 50.6544 83.4473 50.403L86.1771 41.9299C86.3233 41.4763 86.8104 41.1211 87.2863 41.1211H87.6944H87.9861H92.6376H92.9293H93.3374C93.8134 41.1211 94.3005 41.4763 94.4466 41.9299ZM111.572 40.3292C113.431 40.3292 114.943 38.8148 114.943 36.9534C114.943 35.092 113.431 33.5776 111.572 33.5776C109.714 33.5776 108.202 35.092 108.202 36.9534C108.202 38.8148 109.714 40.3292 111.572 40.3292ZM115.706 41.9299L118.437 50.403C118.518 50.6544 118.485 50.9086 118.345 51.1009C118.205 51.2931 117.974 51.4034 117.71 51.4034H117.01C116.534 51.4034 116.047 51.0482 115.901 50.5946C115.761 50.1613 115.123 50.262 115.123 50.7173V51.4407V51.5974V60.6837C115.123 61.5426 114.425 62.2414 113.567 62.2414H113.458C112.6 62.2414 111.903 61.5426 111.903 60.6837V52.8634C111.903 52.6804 111.755 52.5321 111.572 52.5321C111.389 52.5321 111.241 52.6804 111.241 52.8634V60.6837C111.241 61.5426 110.543 62.2414 109.686 62.2414H109.576C108.719 62.2414 108.021 61.5426 108.021 60.6837V51.5974V51.4407V50.7171C108.021 50.2622 107.383 50.1617 107.243 50.5946C107.097 51.0482 106.61 51.4034 106.134 51.4034H105.434C105.171 51.4034 104.939 51.2931 104.8 51.1009C104.66 50.9086 104.626 50.6544 104.707 50.403L107.437 41.9299C107.583 41.4763 108.07 41.1211 108.546 41.1211H108.954H109.246H113.897H114.189H114.597C115.073 41.1211 115.56 41.4763 115.706 41.9299ZM90.3122 73.0878C92.1707 73.0878 93.6827 71.5734 93.6827 69.712C93.6827 67.8506 92.1707 66.3362 90.3122 66.3362C88.4537 66.3362 86.942 67.8506 86.942 69.712C86.942 71.5734 88.4537 73.0878 90.3122 73.0878ZM94.4466 74.6885L97.177 83.1616C97.2579 83.413 97.2249 83.6673 97.085 83.8595C96.945 84.0517 96.7139 84.162 96.4501 84.162H95.7503C95.2743 84.162 94.7872 83.8068 94.6411 83.3532C94.5015 82.92 93.8628 83.0206 93.8628 83.4759V84.1994V84.3561V93.4423C93.8628 94.3012 93.1651 95 92.3076 95H92.1981C91.3405 95 90.6428 94.3012 90.6428 93.4423V85.622C90.6428 85.439 90.4947 85.2907 90.312 85.2907C90.1293 85.2907 89.9812 85.439 89.9812 85.622V93.4423C89.9812 94.3012 89.2835 95 88.426 95H88.3165C87.4589 95 86.7612 94.3012 86.7612 93.4423V84.3561V84.1994V83.4757C86.7612 83.0208 86.1231 82.9203 85.9836 83.3532C85.8374 83.8068 85.3503 84.162 84.8744 84.162H84.1745C83.9108 84.162 83.6794 84.0517 83.5397 83.8595C83.4 83.6673 83.3664 83.413 83.4473 83.1616L86.1771 74.6885C86.3233 74.2349 86.8104 73.8797 87.2863 73.8797H87.6944H87.9861H92.6376H92.9293H93.3374C93.8134 73.8797 94.3005 74.2349 94.4466 74.6885ZM111.572 73.0878C113.431 73.0878 114.943 71.5734 114.943 69.712C114.943 67.8506 113.431 66.3362 111.572 66.3362C109.714 66.3362 108.202 67.8506 108.202 69.712C108.202 71.5734 109.714 73.0878 111.572 73.0878ZM115.706 74.6885L118.437 83.1616C118.518 83.413 118.485 83.6673 118.345 83.8595C118.205 84.0517 117.974 84.162 117.71 84.162H117.01C116.534 84.162 116.047 83.8068 115.901 83.3532C115.761 82.92 115.123 83.0206 115.123 83.4759V84.1994V84.3561V93.4423C115.123 94.3012 114.425 95 113.567 95H113.458C112.6 95 111.903 94.3012 111.903 93.4423V85.622C111.903 85.439 111.755 85.2907 111.572 85.2907C111.389 85.2907 111.241 85.439 111.241 85.622V93.4423C111.241 94.3012 110.543 95 109.686 95H109.576C108.719 95 108.021 94.3012 108.021 93.4423V84.3561V84.1994V83.4757C108.021 83.0208 107.383 82.9203 107.243 83.3532C107.097 83.8068 106.61 84.162 106.134 84.162H105.434C105.171 84.162 104.939 84.0517 104.8 83.8595C104.66 83.6673 104.626 83.413 104.707 83.1616L107.437 74.6885C107.583 74.2349 108.07 73.8797 108.546 73.8797H108.954H109.246H113.897H114.189H114.597C115.073 73.8797 115.56 74.2349 115.706 74.6885ZM132.832 40.3292C134.69 40.3292 136.202 38.8148 136.202 36.9534C136.202 35.092 134.69 33.5776 132.832 33.5776C130.973 33.5776 129.462 35.092 129.462 36.9534C129.462 38.8148 130.973 40.3292 132.832 40.3292ZM136.966 41.9299L139.697 50.403C139.778 50.6544 139.745 50.9086 139.605 51.1009C139.465 51.2931 139.234 51.4034 138.97 51.4034H138.27C137.794 51.4034 137.307 51.0482 137.161 50.5946C137.021 50.1613 136.383 50.262 136.383 50.7173V51.4407V51.5974V60.6837C136.383 61.5426 135.685 62.2414 134.827 62.2414H134.718C133.86 62.2414 133.163 61.5426 133.163 60.6837V52.8634C133.163 52.6804 133.014 52.5321 132.832 52.5321C132.649 52.5321 132.501 52.6804 132.501 52.8634V60.6837C132.501 61.5426 131.803 62.2414 130.946 62.2414H130.836C129.979 62.2414 129.281 61.5426 129.281 60.6837V51.5974V51.4407V50.7171C129.281 50.2622 128.643 50.1617 128.503 50.5946C128.357 51.0482 127.87 51.4034 127.394 51.4034H126.694C126.43 51.4034 126.199 51.2931 126.059 51.1009C125.92 50.9086 125.886 50.6544 125.967 50.403L128.697 41.9299C128.843 41.4763 129.33 41.1211 129.806 41.1211H130.214H130.506H135.157H135.449H135.857C136.333 41.1211 136.82 41.4763 136.966 41.9299ZM132.832 73.0878C134.69 73.0878 136.202 71.5734 136.202 69.712C136.202 67.8506 134.69 66.3362 132.832 66.3362C130.973 66.3362 129.462 67.8506 129.462 69.712C129.462 71.5734 130.973 73.0878 132.832 73.0878ZM136.966 74.6885L139.697 83.1616C139.778 83.413 139.745 83.6673 139.605 83.8595C139.465 84.0517 139.234 84.162 138.97 84.162H138.27C137.794 84.162 137.307 83.8068 137.161 83.3532C137.021 82.92 136.383 83.0206 136.383 83.4759V84.1994V84.3561V93.4423C136.383 94.3012 135.685 95 134.827 95H134.718C133.86 95 133.163 94.3012 133.163 93.4423V85.622C133.163 85.439 133.014 85.2907 132.832 85.2907C132.649 85.2907 132.501 85.439 132.501 85.622V93.4423C132.501 94.3012 131.803 95 130.946 95H130.836C129.979 95 129.281 94.3012 129.281 93.4423V84.3561V84.1994V83.4757C129.281 83.0208 128.643 82.9203 128.503 83.3532C128.357 83.8068 127.87 84.162 127.394 84.162H126.694C126.43 84.162 126.199 84.0517 126.059 83.8595C125.92 83.6673 125.886 83.413 125.967 83.1616L128.697 74.6885C128.843 74.2349 129.33 73.8797 129.806 73.8797H130.214H130.506H135.157H135.449H135.857C136.333 73.8797 136.82 74.2349 136.966 74.6885ZM154.092 40.3292C155.95 40.3292 157.462 38.8148 157.462 36.9534C157.462 35.092 155.95 33.5776 154.092 33.5776C152.233 33.5776 150.722 35.092 150.722 36.9534C150.722 38.8148 152.233 40.3292 154.092 40.3292ZM158.226 41.9299L160.957 50.403C161.037 50.6544 161.005 50.9086 160.865 51.1009C160.725 51.2931 160.493 51.4034 160.23 51.4034H159.53C159.054 51.4034 158.567 51.0482 158.421 50.5946C158.281 50.1613 157.642 50.262 157.642 50.7173V51.4407V51.5974V60.6837C157.642 61.5426 156.945 62.2414 156.087 62.2414H155.978C155.12 62.2414 154.422 61.5426 154.422 60.6837V52.8634C154.422 52.6804 154.274 52.5321 154.092 52.5321C153.909 52.5321 153.761 52.6804 153.761 52.8634V60.6837C153.761 61.5426 153.063 62.2414 152.206 62.2414H152.096C151.238 62.2414 150.541 61.5426 150.541 60.6837V51.5974V51.4407V50.7171C150.541 50.2622 149.903 50.1617 149.763 50.5946C149.617 51.0482 149.13 51.4034 148.654 51.4034H147.954C147.69 51.4034 147.459 51.2931 147.319 51.1009C147.18 50.9086 147.146 50.6544 147.227 50.403L149.957 41.9299C150.103 41.4763 150.59 41.1211 151.066 41.1211H151.474H151.766H156.417H156.709H157.117C157.593 41.1211 158.08 41.4763 158.226 41.9299ZM154.092 73.0878C155.95 73.0878 157.462 71.5734 157.462 69.712C157.462 67.8506 155.95 66.3362 154.092 66.3362C152.233 66.3362 150.722 67.8506 150.722 69.712C150.722 71.5734 152.233 73.0878 154.092 73.0878ZM158.226 74.6885L160.957 83.1616C161.037 83.413 161.005 83.6673 160.865 83.8595C160.725 84.0517 160.493 84.162 160.23 84.162H159.53C159.054 84.162 158.567 83.8068 158.421 83.3532C158.281 82.92 157.642 83.0206 157.642 83.4759V84.1994V84.3561V93.4423C157.642 94.3012 156.945 95 156.087 95H155.978C155.12 95 154.422 94.3012 154.422 93.4423V85.622C154.422 85.439 154.274 85.2907 154.092 85.2907C153.909 85.2907 153.761 85.439 153.761 85.622V93.4423C153.761 94.3012 153.063 95 152.206 95H152.096C151.238 95 150.541 94.3012 150.541 93.4423V84.3561V84.1994V83.4757C150.541 83.0208 149.903 82.9203 149.763 83.3532C149.617 83.8068 149.13 84.162 148.654 84.162H147.954C147.69 84.162 147.459 84.0517 147.319 83.8595C147.18 83.6673 147.146 83.413 147.227 83.1616L149.957 74.6885C150.103 74.2349 150.59 73.8797 151.066 73.8797H151.474H151.766H156.417H156.709H157.117C157.593 73.8797 158.08 74.2349 158.226 74.6885ZM10.2786 36.9534C10.2786 38.8148 8.76662 40.3292 6.9081 40.3292C5.04958 40.3292 3.53788 38.8148 3.53788 36.9534C3.53788 35.092 5.04958 33.5776 6.9081 33.5776C8.76662 33.5776 10.2786 35.092 10.2786 36.9534ZM11.0426 41.9299L13.773 50.403C13.8538 50.6544 13.8209 50.9087 13.6809 51.1009C13.5409 51.2931 13.3098 51.4034 13.046 51.4034H12.3462C11.8703 51.4034 11.3832 51.0482 11.237 50.5946C11.0974 50.1613 10.4587 50.262 10.4587 50.7173V51.4408V51.5975V60.6837C10.4587 61.5426 9.76104 62.2414 8.90348 62.2414H8.79399C7.93642 62.2414 7.23874 61.5426 7.23874 60.6837V52.8634C7.23874 52.6804 7.09064 52.5321 6.90794 52.5321C6.72524 52.5321 6.57714 52.6804 6.57714 52.8634V60.6837C6.57714 61.5426 5.87945 62.2414 5.02189 62.2414H4.9124C4.05484 62.2414 3.35715 61.5426 3.35715 60.6837V51.5975V51.4408V50.7171C3.35715 50.2622 2.71897 50.1617 2.57953 50.5946C2.43334 51.0482 1.94623 51.4034 1.47033 51.4034H0.770465C0.506695 51.4034 0.275275 51.2931 0.135613 51.1009C-0.00404787 50.9087 -0.0376415 50.6544 0.0432314 50.403L2.773 41.9299C2.91919 41.4763 3.4063 41.1211 3.8822 41.1211H4.2903H4.58207H9.2335H9.52526H9.93336C10.4093 41.1211 10.8964 41.4763 11.0426 41.9299ZM28.168 40.3292C30.0265 40.3292 31.5385 38.8148 31.5385 36.9534C31.5385 35.092 30.0265 33.5776 28.168 33.5776C26.3094 33.5776 24.7977 35.092 24.7977 36.9534C24.7977 38.8148 26.3094 40.3292 28.168 40.3292ZM32.3024 41.9299L35.0328 50.403C35.1137 50.6544 35.0807 50.9087 34.9408 51.1009C34.8008 51.2931 34.5697 51.4034 34.3059 51.4034H33.606C33.1301 51.4034 32.643 51.0482 32.4968 50.5946C32.3572 50.1613 31.7186 50.262 31.7186 50.7173V51.4408V51.5975V60.6837C31.7186 61.5426 31.0209 62.2414 30.1633 62.2414H30.0538C29.1963 62.2414 28.4986 61.5426 28.4986 60.6837V52.8634C28.4986 52.6804 28.3505 52.5321 28.1678 52.5321C27.9851 52.5321 27.837 52.6804 27.837 52.8634V60.6837C27.837 61.5426 27.1393 62.2414 26.2818 62.2414H26.1723C25.3147 62.2414 24.617 61.5426 24.617 60.6837V51.5975V51.4408V50.7171C24.617 50.2622 23.9788 50.1617 23.8394 50.5946C23.6932 51.0482 23.2061 51.4034 22.7302 51.4034H22.0303C21.7666 51.4034 21.5351 51.2931 21.3955 51.1009C21.2558 50.9087 21.2222 50.6544 21.3031 50.403L24.0329 41.9299C24.1791 41.4763 24.6662 41.1211 25.1421 41.1211H25.5502H25.8419H30.4934H30.7851H31.1932C31.6691 41.1211 32.1562 41.4763 32.3024 41.9299ZM6.9081 73.0878C8.76662 73.0878 10.2786 71.5734 10.2786 69.712C10.2786 67.8506 8.76662 66.3362 6.9081 66.3362C5.04958 66.3362 3.53788 67.8506 3.53788 69.712C3.53788 71.5734 5.04958 73.0878 6.9081 73.0878ZM11.0426 74.6885L13.773 83.1616C13.8538 83.413 13.8209 83.6673 13.6809 83.8595C13.5409 84.0517 13.3098 84.162 13.046 84.162H12.3462C11.8703 84.162 11.3832 83.8068 11.237 83.3532C11.0974 82.92 10.4587 83.0206 10.4587 83.4759V84.1994V84.3561V93.4423C10.4587 94.3012 9.76104 95 8.90348 95H8.79399C7.93642 95 7.23874 94.3012 7.23874 93.4423V85.622C7.23874 85.439 7.09064 85.2907 6.90794 85.2907C6.72524 85.2907 6.57714 85.439 6.57714 85.622V93.4423C6.57714 94.3012 5.87945 95 5.02189 95H4.9124C4.05484 95 3.35715 94.3012 3.35715 93.4423V84.3561V84.1994V83.4757C3.35715 83.0208 2.71897 82.9203 2.57953 83.3532C2.43334 83.8068 1.94623 84.162 1.47033 84.162H0.770465C0.506695 84.162 0.275275 84.0517 0.135613 83.8595C-0.00404787 83.6673 -0.0376415 83.413 0.0432314 83.1616L2.773 74.6885C2.91919 74.2349 3.4063 73.8797 3.8822 73.8797H4.2903H4.58207H9.2335H9.52526H9.93336C10.4093 73.8797 10.8964 74.2349 11.0426 74.6885ZM28.168 73.0878C30.0265 73.0878 31.5385 71.5734 31.5385 69.712C31.5385 67.8506 30.0265 66.3362 28.168 66.3362C26.3094 66.3362 24.7977 67.8506 24.7977 69.712C24.7977 71.5734 26.3094 73.0878 28.168 73.0878ZM32.3024 74.6885L35.0328 83.1616C35.1137 83.413 35.0807 83.6673 34.9408 83.8595C34.8008 84.0517 34.5697 84.162 34.3059 84.162H33.606C33.1301 84.162 32.643 83.8068 32.4968 83.3532C32.3572 82.92 31.7186 83.0206 31.7186 83.4759V84.1994V84.3561V93.4423C31.7186 94.3012 31.0209 95 30.1633 95H30.0538C29.1963 95 28.4986 94.3012 28.4986 93.4423V85.622C28.4986 85.439 28.3505 85.2907 28.1678 85.2907C27.9851 85.2907 27.837 85.439 27.837 85.622V93.4423C27.837 94.3012 27.1393 95 26.2818 95H26.1723C25.3147 95 24.617 94.3012 24.617 93.4423V84.3561V84.1994V83.4757C24.617 83.0208 23.9788 82.9203 23.8394 83.3532C23.6932 83.8068 23.2061 84.162 22.7302 84.162H22.0303C21.7666 84.162 21.5351 84.0517 21.3955 83.8595C21.2558 83.6673 21.2222 83.413 21.3031 83.1616L24.0329 74.6885C24.1791 74.2349 24.6662 73.8797 25.1421 73.8797H25.5502H25.8419H30.4934H30.7851H31.1932C31.6691 73.8797 32.1562 74.2349 32.3024 74.6885ZM49.4278 40.3292C51.2863 40.3292 52.7984 38.8148 52.7984 36.9534C52.7984 35.092 51.2863 33.5776 49.4278 33.5776C47.5693 33.5776 46.0576 35.092 46.0576 36.9534C46.0576 38.8148 47.5693 40.3292 49.4278 40.3292ZM53.5623 41.9299L56.2927 50.403C56.3736 50.6544 56.3406 50.9087 56.2006 51.1009C56.0606 51.2931 55.8295 51.4034 55.5658 51.4034H54.8659C54.39 51.4034 53.9029 51.0482 53.7567 50.5946C53.6171 50.1613 52.9784 50.262 52.9784 50.7173V51.4408V51.5975V60.6837C52.9784 61.5426 52.2808 62.2414 51.4232 62.2414H51.3137C50.4561 62.2414 49.7585 61.5426 49.7585 60.6837V52.8634C49.7585 52.6804 49.6104 52.5321 49.4277 52.5321C49.245 52.5321 49.0969 52.6804 49.0969 52.8634V60.6837C49.0969 61.5426 48.3992 62.2414 47.5416 62.2414H47.4321C46.5746 62.2414 45.8769 61.5426 45.8769 60.6837V51.5975V51.4408V50.7171C45.8769 50.2622 45.2387 50.1617 45.0993 50.5946C44.9531 51.0482 44.466 51.4034 43.99 51.4034H43.2902C43.0264 51.4034 42.795 51.2931 42.6553 51.1009C42.5157 50.9087 42.4821 50.6544 42.563 50.403L45.2927 41.9299C45.4389 41.4763 45.926 41.1211 46.4019 41.1211H46.81H47.1018H51.7532H52.045H52.4531C52.929 41.1211 53.4161 41.4763 53.5623 41.9299ZM49.4278 73.0878C51.2863 73.0878 52.7984 71.5734 52.7984 69.712C52.7984 67.8506 51.2863 66.3362 49.4278 66.3362C47.5693 66.3362 46.0576 67.8506 46.0576 69.712C46.0576 71.5734 47.5693 73.0878 49.4278 73.0878ZM53.5623 74.6885L56.2927 83.1616C56.3736 83.413 56.3406 83.6673 56.2006 83.8595C56.0606 84.0517 55.8295 84.162 55.5658 84.162H54.8659C54.39 84.162 53.9029 83.8068 53.7567 83.3532C53.6171 82.92 52.9784 83.0206 52.9784 83.4759V84.1994V84.3561V93.4423C52.9784 94.3012 52.2808 95 51.4232 95H51.3137C50.4561 95 49.7585 94.3012 49.7585 93.4423V85.622C49.7585 85.439 49.6104 85.2907 49.4277 85.2907C49.245 85.2907 49.0969 85.439 49.0969 85.622V93.4423C49.0969 94.3012 48.3992 95 47.5416 95H47.4321C46.5746 95 45.8769 94.3012 45.8769 93.4423V84.3561V84.1994V83.4757C45.8769 83.0208 45.2387 82.9203 45.0993 83.3532C44.9531 83.8068 44.466 84.162 43.99 84.162H43.2902C43.0264 84.162 42.795 84.0517 42.6553 83.8595C42.5157 83.6673 42.4821 83.413 42.563 83.1616L45.2927 74.6885C45.4389 74.2349 45.926 73.8797 46.4019 73.8797H46.81H47.1018H51.7532H52.045H52.4531C52.929 73.8797 53.4161 74.2349 53.5623 74.6885ZM70.6877 40.3292C72.5462 40.3292 74.0582 38.8148 74.0582 36.9534C74.0582 35.092 72.5462 33.5776 70.6877 33.5776C68.8292 33.5776 67.3175 35.092 67.3175 36.9534C67.3175 38.8148 68.8292 40.3292 70.6877 40.3292ZM74.8222 41.9299L77.5525 50.403C77.6334 50.6544 77.6004 50.9087 77.4605 51.1009C77.3205 51.2931 77.0894 51.4034 76.8256 51.4034H76.1258C75.6499 51.4034 75.1627 51.0482 75.0166 50.5946C74.877 50.1613 74.2383 50.262 74.2383 50.7173V51.4408V51.5975V60.6837C74.2383 61.5426 73.5406 62.2414 72.6831 62.2414H72.5736C71.716 62.2414 71.0183 61.5426 71.0183 60.6837V52.8634C71.0183 52.6804 70.8702 52.5321 70.6875 52.5321C70.5048 52.5321 70.3567 52.6804 70.3567 52.8634V60.6837C70.3567 61.5426 69.659 62.2414 68.8015 62.2414H68.692C67.8344 62.2414 67.1367 61.5426 67.1367 60.6837V51.5975V51.4408V50.7171C67.1367 50.2622 66.4986 50.1617 66.3591 50.5946C66.2129 51.0482 65.7258 51.4034 65.2499 51.4034H64.55C64.2863 51.4034 64.0549 51.2931 63.9152 51.1009C63.7755 50.9087 63.7419 50.6544 63.8228 50.403L66.5526 41.9299C66.6988 41.4763 67.1859 41.1211 67.6618 41.1211H68.0699H68.3616H73.0131H73.3048H73.7129C74.1889 41.1211 74.676 41.4763 74.8222 41.9299ZM70.6877 73.0878C72.5462 73.0878 74.0582 71.5734 74.0582 69.712C74.0582 67.8506 72.5462 66.3362 70.6877 66.3362C68.8292 66.3362 67.3175 67.8506 67.3175 69.712C67.3175 71.5734 68.8292 73.0878 70.6877 73.0878ZM74.8222 74.6885L77.5525 83.1616C77.6334 83.413 77.6004 83.6673 77.4605 83.8595C77.3205 84.0517 77.0894 84.162 76.8256 84.162H76.1258C75.6499 84.162 75.1627 83.8068 75.0166 83.3532C74.877 82.92 74.2383 83.0206 74.2383 83.4759V84.1994V84.3561V93.4423C74.2383 94.3012 73.5406 95 72.6831 95H72.5736C71.716 95 71.0183 94.3012 71.0183 93.4423V85.622C71.0183 85.439 70.8702 85.2907 70.6875 85.2907C70.5048 85.2907 70.3567 85.439 70.3567 85.622V93.4423C70.3567 94.3012 69.659 95 68.8015 95H68.692C67.8344 95 67.1367 94.3012 67.1367 93.4423V84.3561V84.1994V83.4757C67.1367 83.0208 66.4986 82.9203 66.3591 83.3532C66.2129 83.8068 65.7258 84.162 65.2499 84.162H64.55C64.2863 84.162 64.0549 84.0517 63.9152 83.8595C63.7755 83.6673 63.7419 83.413 63.8228 83.1616L66.5526 74.6885C66.6988 74.2349 67.1859 73.8797 67.6618 73.8797H68.0699H68.3616H73.0131H73.3048H73.7129C74.1889 73.8797 74.676 74.2349 74.8222 74.6885Z" fill="url(#paint0_linear)"/>
<defs>
<linearGradient id="paint0_linear" x1="171.387" y1="9.7457" x2="81.5478" y2="13.177" gradientUnits="userSpaceOnUse">
<stop stop-color="#D81F9F"/>
<stop offset="1" stop-color="#424AFD"/>
</linearGradient>
</defs>
</svg>
