<svg width="232" height="232" viewBox="0 0 232 232" fill="none" xmlns="http://www.w3.org/2000/svg">
<circle cx="116" cy="116" r="115.5" fill="white" stroke="#F7F7F7"/>
<path d="M207.5 119C207.5 168.984 167.203 209.5 117.5 209.5C67.797 209.5 27.5 168.984 27.5 119C27.5 69.0156 67.797 28.5 117.5 28.5C167.203 28.5 207.5 69.0156 207.5 119Z" stroke="#23B0E8"/>
<path d="M118 35.5V118.5M118 201.5V118.5M118 118.5H200.5M118 118.5H33.5M118 118.5C118 118.5 118 82.5 138.25 82.5C158.5 82.5 158.5 46.5 158.5 46.5M118 118.5C118 118.5 118 82.5 97.25 82.5C76.5 82.5 76.5 46.5 76.5 46.5M118 118.5C118 118.5 81 118.5 81 98.25C81 78 44 78 44 78M118 118.5C118 118.5 81 118.5 81 139.75C81 161 44 161 44 161M118 118.5C118 118.5 118 155.25 97.25 155.25C76.5 155.25 76.5 192 76.5 192M118 118.5C118 118.5 118 155.25 138.25 155.25C158.5 155.25 158.5 192 158.5 192M118 118.5C118 118.5 154 118.5 154 139.75C154 161 190 161 190 161M118 118.5C118 118.5 154 118.5 154 98.25C154 78 190 78 190 78" stroke="url(#paint0_radial)"/>
<g filter="url(#filter0_i)">
<mask id="mask0" mask-type="alpha" maskUnits="userSpaceOnUse" x="69" y="86" width="94" height="67">
<path d="M102.511 87.4972V153H80.4272V104.154H69.1982V99.4972C69.1982 92.8698 74.5708 87.4972 81.1982 87.4972H102.511Z" fill="black"/>
<path d="M162.958 135.876V153H110.462V139.432L134.137 117.535C136.195 115.601 137.568 113.948 138.254 112.575C138.94 111.203 139.283 109.862 139.283 108.552C139.283 106.93 138.722 105.682 137.599 104.809C136.538 103.873 134.979 103.405 132.92 103.405C130.924 103.405 129.052 103.935 127.306 104.996C125.559 106.056 124.218 107.554 123.282 109.487L106.625 101.159C109.121 96.4804 112.77 92.7998 117.574 90.1173C122.377 87.3724 128.179 86 134.979 86C140.157 86 144.742 86.8422 148.734 88.5265C152.727 90.2109 155.846 92.6127 158.092 95.7318C160.338 98.851 161.461 102.438 161.461 106.493C161.461 110.111 160.681 113.511 159.121 116.693C157.624 119.812 154.661 123.368 150.232 127.36L140.874 135.876H162.958Z" fill="black"/>
</mask>
<g mask="url(#mask0)">
<rect x="69.1982" y="86" width="93.9003" height="5.52355" fill="#12CBF5"/>
<rect x="69.1982" y="91.5236" width="93.9003" height="5.19863" fill="#15C6F3"/>
<rect x="69.1982" y="96.7222" width="93.9003" height="5.84846" fill="#19C0F0"/>
<rect x="69.1982" y="102.571" width="93.9003" height="5.52355" fill="#1DBBEE"/>
<rect x="69.1982" y="108.094" width="93.9003" height="5.52355" fill="#20B6EB"/>
<rect x="69.1982" y="113.618" width="93.9003" height="5.52355" fill="#24B0E8"/>
<rect x="69.1982" y="119.141" width="93.9003" height="5.19863" fill="#27AAE5"/>
<rect x="69.1982" y="124.34" width="93.9003" height="5.52355" fill="#2AA6E3"/>
<rect x="69.1982" y="129.864" width="93.9003" height="5.52355" fill="#2F9FE0"/>
<rect x="69.1982" y="135.387" width="93.9003" height="5.84846" fill="#329ADE"/>
<rect x="69.1982" y="141.235" width="93.9003" height="5.19863" fill="#3694DB"/>
<rect x="69.1982" y="146.434" width="93.9003" height="5.52355" fill="#3A8ED8"/>
</g>
</g>
<path fill-rule="evenodd" clip-rule="evenodd" d="M124.188 28.6881C124.188 32.3818 121.194 35.3762 117.5 35.3762C113.806 35.3762 110.812 32.3818 110.812 28.6881C110.812 24.9944 113.806 22 117.5 22C121.194 22 124.188 24.9944 124.188 28.6881ZM124.188 208.312C124.188 212.006 121.194 215 117.5 215C113.806 215 110.812 212.006 110.812 208.312C110.812 204.618 113.806 201.624 117.5 201.624C121.194 201.624 124.188 204.618 124.188 208.312ZM207.312 125.188C203.618 125.188 200.624 122.194 200.624 118.5C200.624 114.806 203.618 111.812 207.312 111.812C211.006 111.812 214 114.806 214 118.5C214 122.194 211.006 125.188 207.312 125.188ZM27.6881 125.188C23.9943 125.188 21 122.194 21 118.5C21 114.806 23.9944 111.812 27.6881 111.812C31.3818 111.812 34.3762 114.806 34.3762 118.5C34.3762 122.194 31.3818 125.188 27.6881 125.188ZM159.062 190.487C155.863 192.334 154.767 196.424 156.614 199.623C158.461 202.822 162.551 203.918 165.75 202.071C168.949 200.225 170.045 196.134 168.198 192.935C166.351 189.736 162.261 188.64 159.062 190.487ZM69.2499 34.9285C66.0511 36.7753 64.955 40.8657 66.8019 44.0646C68.6488 47.2636 72.7392 48.3595 75.9381 46.5127C79.137 44.6658 80.233 40.5754 78.3861 37.3765C76.5392 34.1776 72.4488 33.0816 69.2499 34.9285ZM66.802 192.935C68.6488 189.736 72.7392 188.64 75.9381 190.487C79.137 192.334 80.233 196.424 78.3861 199.623C76.5392 202.822 72.4488 203.918 69.2499 202.071C66.0511 200.225 64.955 196.134 66.802 192.935ZM156.614 37.3765C158.461 34.1776 162.551 33.0816 165.75 34.9285C168.949 36.7753 170.045 40.8657 168.198 44.0646C166.351 47.2636 162.261 48.3595 159.062 46.5127C155.863 44.6658 154.767 40.5754 156.614 37.3765ZM45.5126 160.062C43.6658 156.863 39.5754 155.767 36.3765 157.614C33.1776 159.461 32.0816 163.551 33.9285 166.75C35.7753 169.949 39.8657 171.045 43.0646 169.198C46.2635 167.351 47.3595 163.261 45.5126 160.062ZM201.071 70.25C199.225 67.051 195.134 65.955 191.935 67.8019C188.736 69.6488 187.64 73.7391 189.487 76.9381C191.334 80.137 195.424 81.233 198.623 79.3861C201.822 77.5392 202.918 73.4489 201.071 70.25ZM43.0646 67.8019C46.2635 69.6488 47.3595 73.7391 45.5126 76.9381C43.6658 80.137 39.5754 81.233 36.3765 79.3861C33.1776 77.5392 32.0816 73.4489 33.9285 70.25C35.7753 67.051 39.8657 65.955 43.0646 67.8019ZM198.623 157.614C201.822 159.461 202.918 163.551 201.071 166.75C199.225 169.949 195.134 171.045 191.935 169.198C188.736 167.351 187.64 163.261 189.487 160.062C191.334 156.863 195.424 155.767 198.623 157.614Z" fill="url(#paint1_linear)"/>
<defs>
<filter id="filter0_i" x="69.1982" y="86" width="93.7596" height="66.9576" filterUnits="userSpaceOnUse" color-interpolation-filters="sRGB">
<feFlood flood-opacity="0" result="BackgroundImageFix"/>
<feBlend mode="normal" in="SourceGraphic" in2="BackgroundImageFix" result="shape"/>
<feColorMatrix in="SourceAlpha" type="matrix" values="0 0 0 0 0 0 0 0 0 0 0 0 0 0 0 0 0 0 127 0" result="hardAlpha"/>
<feOffset dy="1"/>
<feGaussianBlur stdDeviation="1.5"/>
<feComposite in2="hardAlpha" operator="arithmetic" k2="-1" k3="1"/>
<feColorMatrix type="matrix" values="0 0 0 0 0 0 0 0 0 0 0 0 0 0 0 0 0 0 0.25 0"/>
<feBlend mode="normal" in2="shape" result="effect1_innerShadow"/>
</filter>
<radialGradient id="paint0_radial" cx="0" cy="0" r="1" gradientUnits="userSpaceOnUse" gradientTransform="translate(117 35) rotate(90) scale(171 172.03)">
<stop stop-color="#E8E8E8"/>
<stop offset="0.5" stop-color="#E8E8E8" stop-opacity="0"/>
<stop offset="1" stop-color="#E8E8E8"/>
</radialGradient>
<linearGradient id="paint1_linear" x1="233.166" y1="-6.74708" x2="-25.5913" y2="88.7285" gradientUnits="userSpaceOnUse">
<stop stop-color="#0FCDF5"/>
<stop offset="1" stop-color="#3A8BD5"/>
</linearGradient>
</defs>
</svg>
