<svg width="30" height="30" viewBox="0 0 30 30" fill="none" xmlns="http://www.w3.org/2000/svg">
<path d="M14.5767 17.4574C16.1782 17.4574 17.4838 16.1514 17.4838 14.5454C17.4838 13.9115 17.2768 13.3262 16.9342 12.8481C16.4062 12.1146 15.5479 11.6335 14.5785 11.6335C13.6085 11.6335 12.7507 12.114 12.2216 12.8475C11.8778 13.3256 11.6726 13.9109 11.672 14.5449C11.6702 16.1508 12.9747 17.4574 14.5767 17.4574Z" fill="white"/>
<path d="M20.9223 10.9833V8.54245V8.1792L20.5581 8.18037L18.1234 8.18799L18.1328 10.9927L20.9223 10.9833Z" fill="white"/>
<path fill-rule="evenodd" clip-rule="evenodd" d="M0.0618591 14.5455C0.0618591 6.52512 6.57353 0 14.5773 0C22.5817 0 29.0928 6.52512 29.0928 14.5455C29.0928 22.5652 22.5805 29.0909 14.5773 29.0909C6.57353 29.0909 0.0618591 22.5652 0.0618591 14.5455ZM22.8325 19.6211V12.8481V9.47101C22.8325 7.70746 21.4012 6.27377 19.6413 6.27377H9.51276C7.75284 6.27377 6.32211 7.70746 6.32211 9.47101V12.8481V19.6211C6.32211 21.3852 7.75284 22.8189 9.51276 22.8189H19.6419C21.4012 22.8189 22.8325 21.3852 22.8325 19.6211Z" fill="white"/>
<path d="M19.0929 14.5455C19.0929 17.0396 17.0675 19.0704 14.5773 19.0704C12.0871 19.0704 10.0623 17.0396 10.0623 14.5455C10.0623 13.9455 10.1816 13.3719 10.3945 12.8481H7.92999V19.6211C7.92999 20.4964 8.63922 21.2054 9.51216 21.2054H19.6407C20.5125 21.2054 21.2229 20.4964 21.2229 19.6211V12.8481H18.7572C18.9718 13.3719 19.0929 13.9455 19.0929 14.5455Z" fill="white"/>
</svg>
