<svg width="184" height="49" viewBox="0 0 184 49" fill="none" xmlns="http://www.w3.org/2000/svg">
<g clip-path="url(#clip0)">
<path fill-rule="evenodd" clip-rule="evenodd" d="M38.1982 0.675787C43.3994 2.36544 47.4262 6.75855 48.6006 12.2218H38.1982V0.675787ZM15.5477 -0.0563965H30.1447V8.11027H18.1204C15.2681 8.11027 12.8073 9.79992 11.6328 12.2218H0.503357C1.95746 5.23786 8.16536 -0.0563965 15.5477 -0.0563965ZM48.8802 20.3884V33.5677C48.8802 42.0723 42.0012 48.9999 33.5562 48.9999H15.5477C7.04681 48.9999 0.167786 42.0723 0.167786 33.5677V20.3884H10.9058V33.5677C10.9058 37.5666 14.1496 40.8332 18.1204 40.8332H30.9277C34.8985 40.8332 38.1423 37.5666 38.1423 33.5677V20.3884H48.8802ZM21.0286 16.2769H28.0754C29.1939 16.2769 30.1447 17.1781 30.1447 18.3608V30.5827C30.1447 31.7091 29.2499 32.6666 28.0754 32.6666H21.0286C19.91 32.6666 18.9593 31.7654 18.9593 30.5827V18.3608C18.9593 17.2344 19.91 16.2769 21.0286 16.2769ZM154.582 16.3332V24.3873C154.582 30.6953 157.099 32.6103 162.356 32.6103H165.936V28.6677H162.915C159.951 28.6677 159.336 28.2735 159.336 24.4436V16.3332H154.582ZM146.976 28.6677C144.515 28.6677 143.677 28.4424 143.453 26.1896V26.1332H150.108V22.3034H143.509C143.788 20.3884 144.683 20.2195 146.976 20.2195H151.786V16.2769H146.417C141.16 16.2769 138.643 17.9666 138.643 24.3309C138.643 30.6953 141.216 32.6103 146.417 32.6103H151.786V28.6677H146.976ZM120.97 32.6103V16.3332V16.2769H128.297C133.554 16.2769 136.071 17.9666 136.071 24.3309C136.071 30.6953 133.498 32.6103 128.297 32.6103H120.97ZM127.793 28.6677C130.757 28.6677 131.373 28.2735 131.373 24.4436C131.373 20.5574 130.702 20.2758 127.793 20.2758H125.5V28.6677H127.793ZM184 24.2746C184 17.685 181.148 15.939 175.947 15.939C170.689 15.939 167.893 17.685 167.893 24.2746C167.893 30.9769 170.689 32.9482 175.947 32.9482C181.204 32.9482 184 30.9769 184 24.2746ZM179.246 24.2746C179.246 28.4424 178.911 28.8367 175.947 28.8367C172.926 28.8367 172.591 28.4424 172.647 24.2746C172.647 20.3884 172.926 20.0505 175.947 20.0505C178.911 20.0505 179.246 20.3884 179.246 24.2746ZM93.1185 26.1896C93.3422 28.4424 94.1812 28.6677 96.6419 28.6677H101.452V32.6102H96.0827C90.8815 32.6102 88.3088 30.6953 88.3088 24.3309C88.3088 17.9666 90.8255 16.2769 96.0827 16.2769H101.452V20.2194H96.6419C94.3489 20.2194 93.4541 20.3884 93.1745 22.3034H99.7739V26.1332H93.1185V26.1896ZM72.7052 32.6102C67.504 32.6102 64.9313 30.6953 64.9313 24.3309V16.3332H69.6851V24.4436C69.6851 28.2171 70.3003 28.6677 73.1526 28.6677V16.3332H77.5708V28.6677C80.479 28.6677 81.0942 28.2171 81.0942 24.4436V16.3332H85.848V24.3873C85.848 30.7516 83.3313 32.6666 78.0742 32.6666C76.3404 32.6102 74.5508 32.6102 72.7052 32.6102ZM108.666 20.1068H112.469C112.861 20.1068 113.14 20.3321 113.14 21.2896C113.14 22.3034 112.861 22.416 112.469 22.416H108.666V20.1068ZM108.666 28.7804V26.0206H112.469C113.029 26.0206 113.42 26.3022 113.42 27.4286C113.42 28.4988 113.084 28.7804 112.581 28.7804H108.666ZM114.427 24.1057C117.335 23.8804 117.95 22.585 117.95 20.2758C117.95 17.516 117.111 16.3332 113.867 16.3332H104.248V32.6102H113.867C116.496 32.6102 118.23 31.5965 118.23 28.2735C118.174 25.6263 117.503 24.2746 114.427 24.1057ZM123.655 38.4114C124.438 38.4114 125.221 38.5241 125.668 38.693L125.277 40.0447C125.207 40.0348 125.133 40.023 125.053 40.0105C124.682 39.9521 124.197 39.8758 123.599 39.8758C122.76 39.8758 122.648 40.0447 122.648 40.27C122.648 40.608 122.76 40.6643 123.767 40.7769C125.109 40.9459 125.724 41.5091 125.724 42.6355C125.724 44.2126 124.997 44.6631 123.04 44.6631C122.257 44.6631 121.529 44.5505 121.026 44.3815L121.362 42.9735C121.422 42.9822 121.488 42.9922 121.559 43.003C121.945 43.062 122.472 43.1424 123.04 43.1424C123.878 43.1424 123.99 43.0298 123.99 42.7482C123.99 42.4666 123.878 42.3539 122.76 42.2413C121.529 42.0723 120.97 41.6781 120.97 40.5516C120.97 39.0309 121.753 38.4114 123.655 38.4114ZM132.156 39.9884V44.5505H130.534V39.9884H128.576V38.5241H134.113V39.9884H132.156ZM142.39 38.5804H140.768V42.6355C140.768 42.9735 140.545 43.1424 139.818 43.1424C139.091 43.1424 138.867 42.9735 138.867 42.6355V38.5804H137.245V43.0298C137.245 44.3815 138.252 44.7195 139.818 44.7195C141.328 44.7195 142.39 44.3252 142.39 43.0298V38.5804ZM145.858 44.5505V38.5804H148.542C150.444 38.5804 151.395 39.1999 151.395 41.5091C151.395 43.8746 150.444 44.5505 148.542 44.5505H145.858ZM148.319 43.1424C149.437 43.1424 149.661 42.9735 149.661 41.5654C149.661 40.1011 149.437 39.9884 148.319 39.9884H147.48V43.1424H148.319ZM156.26 44.5505V38.5804H154.638V44.5505H156.26ZM165.936 41.4528C165.936 39.0309 164.873 38.4114 162.971 38.4114C161.014 38.4114 160.007 39.0309 160.007 41.4528C160.007 43.9309 161.07 44.6631 162.971 44.6631C164.929 44.6631 165.936 43.9309 165.936 41.4528ZM164.202 41.4528C164.202 42.9735 164.09 43.1424 162.971 43.1424C161.853 43.1424 161.741 43.0298 161.741 41.4528C161.741 39.9884 161.853 39.8758 162.971 39.8758C164.09 39.8758 164.202 40.0447 164.202 41.4528Z" fill="white"/>
</g>
<defs>
<clipPath id="clip0">
<rect width="184" height="49" fill="white"/>
</clipPath>
</defs>
</svg>
