<svg width="684" height="299" viewBox="0 0 684 299" fill="none" xmlns="http://www.w3.org/2000/svg">
<rect width="684" height="299" rx="10" fill="white"/>
<line x1="72" y1="46.5" x2="581" y2="46.5" stroke="#EBEBEB"/>
<line x1="72" y1="82.5" x2="581" y2="82.5" stroke="#EBEBEB"/>
<line x1="72" y1="118.5" x2="581" y2="118.5" stroke="#EBEBEB"/>
<line x1="72" y1="154.5" x2="581" y2="154.5" stroke="#EBEBEB"/>
<line x1="72" y1="190.5" x2="581" y2="190.5" stroke="#EBEBEB"/>
<line x1="72" y1="226.5" x2="581" y2="226.5" stroke="#EBEBEB"/>
<line x1="72" y1="262.5" x2="581" y2="262.5" stroke="#EBEBEB"/>
<path d="M80.3223 279.473C80.3223 280.652 80.0781 281.555 79.5898 282.18C79.1016 282.805 78.3867 283.117 77.4453 283.117C76.5156 283.117 75.8047 282.811 75.3125 282.197C74.8203 281.584 74.5684 280.705 74.5566 279.561V277.99C74.5566 276.799 74.8027 275.895 75.2949 275.277C75.791 274.66 76.5039 274.352 77.4336 274.352C78.3633 274.352 79.0742 274.658 79.5664 275.271C80.0586 275.881 80.3105 276.758 80.3223 277.902V279.473ZM78.6289 277.75C78.6289 277.043 78.5312 276.529 78.3359 276.209C78.1445 275.885 77.8438 275.723 77.4336 275.723C77.0352 275.723 76.7402 275.877 76.5488 276.186C76.3613 276.49 76.2617 276.969 76.25 277.621V279.695C76.25 280.391 76.3438 280.908 76.5312 281.248C76.7227 281.584 77.0273 281.752 77.4453 281.752C77.8594 281.752 78.1582 281.59 78.3418 281.266C78.5254 280.941 78.6211 280.445 78.6289 279.777V277.75ZM86.0645 274.381V275.775H85.9004C85.1348 275.787 84.5176 275.986 84.0488 276.373C83.584 276.76 83.3047 277.297 83.2109 277.984C83.6641 277.523 84.2363 277.293 84.9277 277.293C85.6699 277.293 86.2598 277.559 86.6973 278.09C87.1348 278.621 87.3535 279.32 87.3535 280.188C87.3535 280.742 87.2324 281.244 86.9902 281.693C86.752 282.143 86.4121 282.492 85.9707 282.742C85.5332 282.992 85.0371 283.117 84.4824 283.117C83.584 283.117 82.8574 282.805 82.3027 282.18C81.752 281.555 81.4766 280.721 81.4766 279.678V279.068C81.4766 278.143 81.6504 277.326 81.998 276.619C82.3496 275.908 82.8516 275.359 83.5039 274.973C84.1602 274.582 84.9199 274.385 85.7832 274.381H86.0645ZM84.4121 278.652C84.1387 278.652 83.8906 278.725 83.668 278.869C83.4453 279.01 83.2812 279.197 83.1758 279.432V279.947C83.1758 280.514 83.2871 280.957 83.5098 281.277C83.7324 281.594 84.0449 281.752 84.4473 281.752C84.8105 281.752 85.1035 281.609 85.3262 281.324C85.5527 281.035 85.666 280.662 85.666 280.205C85.666 279.74 85.5527 279.365 85.3262 279.08C85.0996 278.795 84.7949 278.652 84.4121 278.652ZM88.9648 283.732H87.7051L90.8457 274.469H92.1055L88.9648 283.732ZM98.6973 283H92.8496V281.84L95.6094 278.898C95.9883 278.484 96.2676 278.123 96.4473 277.814C96.6309 277.506 96.7227 277.213 96.7227 276.936C96.7227 276.557 96.627 276.26 96.4355 276.045C96.2441 275.826 95.9707 275.717 95.6152 275.717C95.2324 275.717 94.9297 275.85 94.707 276.115C94.4883 276.377 94.3789 276.723 94.3789 277.152H92.6797C92.6797 276.633 92.8027 276.158 93.0488 275.729C93.2988 275.299 93.6504 274.963 94.1035 274.721C94.5566 274.475 95.0703 274.352 95.6445 274.352C96.5234 274.352 97.2051 274.562 97.6895 274.984C98.1777 275.406 98.4219 276.002 98.4219 276.771C98.4219 277.193 98.3125 277.623 98.0938 278.061C97.875 278.498 97.5 279.008 96.9688 279.59L95.0293 281.635H98.6973V283ZM105.482 279.473C105.482 280.652 105.238 281.555 104.75 282.18C104.262 282.805 103.547 283.117 102.605 283.117C101.676 283.117 100.965 282.811 100.473 282.197C99.9805 281.584 99.7285 280.705 99.7168 279.561V277.99C99.7168 276.799 99.9629 275.895 100.455 275.277C100.951 274.66 101.664 274.352 102.594 274.352C103.523 274.352 104.234 274.658 104.727 275.271C105.219 275.881 105.471 276.758 105.482 277.902V279.473ZM103.789 277.75C103.789 277.043 103.691 276.529 103.496 276.209C103.305 275.885 103.004 275.723 102.594 275.723C102.195 275.723 101.9 275.877 101.709 276.186C101.521 276.49 101.422 276.969 101.41 277.621V279.695C101.41 280.391 101.504 280.908 101.691 281.248C101.883 281.584 102.188 281.752 102.605 281.752C103.02 281.752 103.318 281.59 103.502 281.266C103.686 280.941 103.781 280.445 103.789 279.777V277.75ZM110.744 283H109.051V276.473L107.029 277.1V275.723L110.562 274.457H110.744V283ZM117.482 279.59C117.041 280.023 116.525 280.24 115.936 280.24C115.182 280.24 114.578 279.982 114.125 279.467C113.672 278.947 113.445 278.248 113.445 277.369C113.445 276.811 113.566 276.299 113.809 275.834C114.055 275.365 114.396 275.002 114.834 274.744C115.271 274.482 115.764 274.352 116.311 274.352C116.873 274.352 117.373 274.492 117.811 274.773C118.248 275.055 118.588 275.459 118.83 275.986C119.072 276.514 119.195 277.117 119.199 277.797V278.424C119.199 279.846 118.846 280.963 118.139 281.775C117.432 282.588 116.43 283.021 115.133 283.076L114.717 283.082V281.67L115.092 281.664C116.564 281.598 117.361 280.906 117.482 279.59ZM116.352 278.945C116.625 278.945 116.859 278.875 117.055 278.734C117.254 278.594 117.404 278.424 117.506 278.225V277.527C117.506 276.953 117.396 276.508 117.178 276.191C116.959 275.875 116.666 275.717 116.299 275.717C115.959 275.717 115.68 275.873 115.461 276.186C115.242 276.494 115.133 276.883 115.133 277.352C115.133 277.816 115.238 278.199 115.449 278.5C115.664 278.797 115.965 278.945 116.352 278.945Z" fill="#555555"/>
<path d="M542.322 279.473C542.322 280.652 542.078 281.555 541.59 282.18C541.102 282.805 540.387 283.117 539.445 283.117C538.516 283.117 537.805 282.811 537.312 282.197C536.82 281.584 536.568 280.705 536.557 279.561V277.99C536.557 276.799 536.803 275.895 537.295 275.277C537.791 274.66 538.504 274.352 539.434 274.352C540.363 274.352 541.074 274.658 541.566 275.271C542.059 275.881 542.311 276.758 542.322 277.902V279.473ZM540.629 277.75C540.629 277.043 540.531 276.529 540.336 276.209C540.145 275.885 539.844 275.723 539.434 275.723C539.035 275.723 538.74 275.877 538.549 276.186C538.361 276.49 538.262 276.969 538.25 277.621V279.695C538.25 280.391 538.344 280.908 538.531 281.248C538.723 281.584 539.027 281.752 539.445 281.752C539.859 281.752 540.158 281.59 540.342 281.266C540.525 280.941 540.621 280.445 540.629 279.777V277.75ZM545.193 277.984H546.096C546.525 277.984 546.844 277.877 547.051 277.662C547.258 277.447 547.361 277.162 547.361 276.807C547.361 276.463 547.258 276.195 547.051 276.004C546.848 275.812 546.566 275.717 546.207 275.717C545.883 275.717 545.611 275.807 545.393 275.986C545.174 276.162 545.064 276.393 545.064 276.678H543.371C543.371 276.232 543.49 275.834 543.729 275.482C543.971 275.127 544.307 274.85 544.736 274.65C545.17 274.451 545.646 274.352 546.166 274.352C547.068 274.352 547.775 274.568 548.287 275.002C548.799 275.432 549.055 276.025 549.055 276.783C549.055 277.174 548.936 277.533 548.697 277.861C548.459 278.189 548.146 278.441 547.76 278.617C548.24 278.789 548.598 279.047 548.832 279.391C549.07 279.734 549.189 280.141 549.189 280.609C549.189 281.367 548.912 281.975 548.357 282.432C547.807 282.889 547.076 283.117 546.166 283.117C545.314 283.117 544.617 282.893 544.074 282.443C543.535 281.994 543.266 281.4 543.266 280.662H544.959C544.959 280.982 545.078 281.244 545.316 281.447C545.559 281.65 545.855 281.752 546.207 281.752C546.609 281.752 546.924 281.646 547.15 281.436C547.381 281.221 547.496 280.938 547.496 280.586C547.496 279.734 547.027 279.309 546.09 279.309H545.193V277.984ZM550.965 283.732H549.705L552.846 274.469H554.105L550.965 283.732ZM560.697 283H554.85V281.84L557.609 278.898C557.988 278.484 558.268 278.123 558.447 277.814C558.631 277.506 558.723 277.213 558.723 276.936C558.723 276.557 558.627 276.26 558.436 276.045C558.244 275.826 557.971 275.717 557.615 275.717C557.232 275.717 556.93 275.85 556.707 276.115C556.488 276.377 556.379 276.723 556.379 277.152H554.68C554.68 276.633 554.803 276.158 555.049 275.729C555.299 275.299 555.65 274.963 556.104 274.721C556.557 274.475 557.07 274.352 557.645 274.352C558.523 274.352 559.205 274.562 559.689 274.984C560.178 275.406 560.422 276.002 560.422 276.771C560.422 277.193 560.312 277.623 560.094 278.061C559.875 278.498 559.5 279.008 558.969 279.59L557.029 281.635H560.697V283ZM567.482 279.473C567.482 280.652 567.238 281.555 566.75 282.18C566.262 282.805 565.547 283.117 564.605 283.117C563.676 283.117 562.965 282.811 562.473 282.197C561.98 281.584 561.729 280.705 561.717 279.561V277.99C561.717 276.799 561.963 275.895 562.455 275.277C562.951 274.66 563.664 274.352 564.594 274.352C565.523 274.352 566.234 274.658 566.727 275.271C567.219 275.881 567.471 276.758 567.482 277.902V279.473ZM565.789 277.75C565.789 277.043 565.691 276.529 565.496 276.209C565.305 275.885 565.004 275.723 564.594 275.723C564.195 275.723 563.9 275.877 563.709 276.186C563.521 276.49 563.422 276.969 563.41 277.621V279.695C563.41 280.391 563.504 280.908 563.691 281.248C563.883 281.584 564.188 281.752 564.605 281.752C565.02 281.752 565.318 281.59 565.502 281.266C565.686 280.941 565.781 280.445 565.789 279.777V277.75ZM574.479 283H568.631V281.84L571.391 278.898C571.77 278.484 572.049 278.123 572.229 277.814C572.412 277.506 572.504 277.213 572.504 276.936C572.504 276.557 572.408 276.26 572.217 276.045C572.025 275.826 571.752 275.717 571.396 275.717C571.014 275.717 570.711 275.85 570.488 276.115C570.27 276.377 570.16 276.723 570.16 277.152H568.461C568.461 276.633 568.584 276.158 568.83 275.729C569.08 275.299 569.432 274.963 569.885 274.721C570.338 274.475 570.852 274.352 571.426 274.352C572.305 274.352 572.986 274.562 573.471 274.984C573.959 275.406 574.203 276.002 574.203 276.771C574.203 277.193 574.094 277.623 573.875 278.061C573.656 278.498 573.281 279.008 572.75 279.59L570.811 281.635H574.479V283ZM581.264 279.473C581.264 280.652 581.02 281.555 580.531 282.18C580.043 282.805 579.328 283.117 578.387 283.117C577.457 283.117 576.746 282.811 576.254 282.197C575.762 281.584 575.51 280.705 575.498 279.561V277.99C575.498 276.799 575.744 275.895 576.236 275.277C576.732 274.66 577.445 274.352 578.375 274.352C579.305 274.352 580.016 274.658 580.508 275.271C581 275.881 581.252 276.758 581.264 277.902V279.473ZM579.57 277.75C579.57 277.043 579.473 276.529 579.277 276.209C579.086 275.885 578.785 275.723 578.375 275.723C577.977 275.723 577.682 275.877 577.49 276.186C577.303 276.49 577.203 276.969 577.191 277.621V279.695C577.191 280.391 577.285 280.908 577.473 281.248C577.664 281.584 577.969 281.752 578.387 281.752C578.801 281.752 579.1 281.59 579.283 281.266C579.467 280.941 579.562 280.445 579.57 279.777V277.75Z" fill="#555555"/>
<path d="M73.8613 172C94.2215 164.595 135.375 150.229 137.108 152.006C138.841 153.784 146.783 166.076 150.537 172L201.654 138.677L239.342 172L249.739 160.152L264.901 167.557L302.155 132.013L353.273 138.677L378.831 124.608H403.957C411.176 133.74 426.309 152.006 429.082 152.006C431.854 152.006 441.5 148.057 445.977 146.082L455.074 167.557L480.632 83.8797L503.158 55L531.749 89.0633L543.879 83.8797C551.532 85.6076 567.358 89.0633 569.437 89.0633C571.517 89.0633 578.679 85.6076 582 83.8797" stroke="#55DB7A" stroke-width="4"/>
<path d="M72 202.848H99.3413L125.381 191.732L152.722 202.848L203.499 183.58L240.822 211C244.149 208.283 251.324 202.848 253.407 202.848C255.491 202.848 262.377 208.283 265.559 211C276.409 201.86 299.063 183.58 302.882 183.58C306.701 183.58 314.311 189.015 317.638 191.732L376.66 176.911C391.705 181.851 422.924 191.732 427.437 191.732C431.951 191.732 448.413 191.732 456.08 191.732L482.988 148.75L495.139 136.893L517.707 128L534.199 148.75H581.069" stroke="#30A3F5" stroke-width="4"/>
<path d="M72 256L99.3413 243.519L122.777 246.456L137.966 235.443L152.722 243.519L215.216 235.443C218.11 238.135 224.417 243.519 226.5 243.519C228.583 243.519 278.29 230.793 302.882 224.43L356.697 243.519L403.134 224.43L452.609 243.519L505.121 198C505.121 198 523.349 215.62 530.727 224.43L546.35 211.215H581.069" stroke="#F7CD3C" stroke-width="4"/>
<path d="M29.2988 48H23.709V47.2207L26.6621 43.9395C27.0996 43.4434 27.4004 43.041 27.5645 42.7324C27.7324 42.4199 27.8164 42.0977 27.8164 41.7656C27.8164 41.3203 27.6816 40.9551 27.4121 40.6699C27.1426 40.3848 26.7832 40.2422 26.334 40.2422C25.7949 40.2422 25.375 40.3965 25.0742 40.7051C24.7773 41.0098 24.6289 41.4355 24.6289 41.9824H23.5449C23.5449 41.1973 23.7969 40.5625 24.3008 40.0781C24.8086 39.5938 25.4863 39.3516 26.334 39.3516C27.127 39.3516 27.7539 39.5605 28.2148 39.9785C28.6758 40.3926 28.9062 40.9453 28.9062 41.6367C28.9062 42.4766 28.3711 43.4766 27.3008 44.6367L25.0156 47.1152H29.2988V48ZM35.7969 44.3613C35.7969 45.6309 35.5801 46.5742 35.1465 47.1914C34.7129 47.8086 34.0352 48.1172 33.1133 48.1172C32.2031 48.1172 31.5293 47.8164 31.0918 47.2148C30.6543 46.6094 30.4277 45.707 30.4121 44.5078V43.0605C30.4121 41.8066 30.6289 40.875 31.0625 40.2656C31.4961 39.6562 32.1758 39.3516 33.1016 39.3516C34.0195 39.3516 34.6953 39.6465 35.1289 40.2363C35.5625 40.8223 35.7852 41.7285 35.7969 42.9551V44.3613ZM34.7129 42.8789C34.7129 41.9609 34.584 41.293 34.3262 40.875C34.0684 40.4531 33.6602 40.2422 33.1016 40.2422C32.5469 40.2422 32.1426 40.4512 31.8887 40.8691C31.6348 41.2871 31.5039 41.9297 31.4961 42.7969V44.5312C31.4961 45.4531 31.6289 46.1348 31.8945 46.5762C32.1641 47.0137 32.5703 47.2324 33.1133 47.2324C33.6484 47.2324 34.0449 47.0254 34.3027 46.6113C34.5645 46.1973 34.7012 45.5449 34.7129 44.6543V42.8789ZM42.5352 44.3613C42.5352 45.6309 42.3184 46.5742 41.8848 47.1914C41.4512 47.8086 40.7734 48.1172 39.8516 48.1172C38.9414 48.1172 38.2676 47.8164 37.8301 47.2148C37.3926 46.6094 37.166 45.707 37.1504 44.5078V43.0605C37.1504 41.8066 37.3672 40.875 37.8008 40.2656C38.2344 39.6562 38.9141 39.3516 39.8398 39.3516C40.7578 39.3516 41.4336 39.6465 41.8672 40.2363C42.3008 40.8223 42.5234 41.7285 42.5352 42.9551V44.3613ZM41.4512 42.8789C41.4512 41.9609 41.3223 41.293 41.0645 40.875C40.8066 40.4531 40.3984 40.2422 39.8398 40.2422C39.2852 40.2422 38.8809 40.4512 38.627 40.8691C38.373 41.2871 38.2422 41.9297 38.2344 42.7969V44.5312C38.2344 45.4531 38.3672 46.1348 38.6328 46.5762C38.9023 47.0137 39.3086 47.2324 39.8516 47.2324C40.3867 47.2324 40.7832 47.0254 41.041 46.6113C41.3027 46.1973 41.4395 45.5449 41.4512 44.6543V42.8789ZM49.2734 44.3613C49.2734 45.6309 49.0566 46.5742 48.623 47.1914C48.1895 47.8086 47.5117 48.1172 46.5898 48.1172C45.6797 48.1172 45.0059 47.8164 44.5684 47.2148C44.1309 46.6094 43.9043 45.707 43.8887 44.5078V43.0605C43.8887 41.8066 44.1055 40.875 44.5391 40.2656C44.9727 39.6562 45.6523 39.3516 46.5781 39.3516C47.4961 39.3516 48.1719 39.6465 48.6055 40.2363C49.0391 40.8223 49.2617 41.7285 49.2734 42.9551V44.3613ZM48.1895 42.8789C48.1895 41.9609 48.0605 41.293 47.8027 40.875C47.5449 40.4531 47.1367 40.2422 46.5781 40.2422C46.0234 40.2422 45.6191 40.4512 45.3652 40.8691C45.1113 41.2871 44.9805 41.9297 44.9727 42.7969V44.5312C44.9727 45.4531 45.1055 46.1348 45.3711 46.5762C45.6406 47.0137 46.0469 47.2324 46.5898 47.2324C47.125 47.2324 47.5215 47.0254 47.7793 46.6113C48.041 46.1973 48.1777 45.5449 48.1895 44.6543V42.8789Z" fill="#999999"/>
<path d="M27.2715 79H26.1816V71.7754L23.9961 72.5781V71.5938L27.1016 70.4277H27.2715V79ZM35.9551 71.0781L32.4219 79H31.2852L34.8066 71.3594H30.1895V70.4688H35.9551V71.0781ZM37.6836 74.7227L38.1172 70.4688H42.4883V71.4707H39.0371L38.7793 73.7969C39.1973 73.5508 39.6719 73.4277 40.2031 73.4277C40.9805 73.4277 41.5977 73.6855 42.0547 74.2012C42.5117 74.7129 42.7402 75.4062 42.7402 76.2812C42.7402 77.1602 42.502 77.8535 42.0254 78.3613C41.5527 78.8652 40.8906 79.1172 40.0391 79.1172C39.2852 79.1172 38.6699 78.9082 38.1934 78.4902C37.7168 78.0723 37.4453 77.4941 37.3789 76.7559H38.4043C38.4707 77.2441 38.6445 77.6133 38.9258 77.8633C39.207 78.1094 39.5781 78.2324 40.0391 78.2324C40.543 78.2324 40.9375 78.0605 41.2227 77.7168C41.5117 77.373 41.6562 76.8984 41.6562 76.293C41.6562 75.7227 41.5 75.2656 41.1875 74.9219C40.8789 74.5742 40.4668 74.4004 39.9512 74.4004C39.4785 74.4004 39.1074 74.5039 38.8379 74.7109L38.5508 74.9453L37.6836 74.7227ZM49.2734 75.3613C49.2734 76.6309 49.0566 77.5742 48.623 78.1914C48.1895 78.8086 47.5117 79.1172 46.5898 79.1172C45.6797 79.1172 45.0059 78.8164 44.5684 78.2148C44.1309 77.6094 43.9043 76.707 43.8887 75.5078V74.0605C43.8887 72.8066 44.1055 71.875 44.5391 71.2656C44.9727 70.6562 45.6523 70.3516 46.5781 70.3516C47.4961 70.3516 48.1719 70.6465 48.6055 71.2363C49.0391 71.8223 49.2617 72.7285 49.2734 73.9551V75.3613ZM48.1895 73.8789C48.1895 72.9609 48.0605 72.293 47.8027 71.875C47.5449 71.4531 47.1367 71.2422 46.5781 71.2422C46.0234 71.2422 45.6191 71.4512 45.3652 71.8691C45.1113 72.2871 44.9805 72.9297 44.9727 73.7969V75.5312C44.9727 76.4531 45.1055 77.1348 45.3711 77.5762C45.6406 78.0137 46.0469 78.2324 46.5898 78.2324C47.125 78.2324 47.5215 78.0254 47.7793 77.6113C48.041 77.1973 48.1777 76.5449 48.1895 75.6543V73.8789Z" fill="#999999"/>
<path d="M27.2715 110H26.1816V102.775L23.9961 103.578V102.594L27.1016 101.428H27.2715V110ZM30.9453 105.723L31.3789 101.469H35.75V102.471H32.2988L32.041 104.797C32.459 104.551 32.9336 104.428 33.4648 104.428C34.2422 104.428 34.8594 104.686 35.3164 105.201C35.7734 105.713 36.002 106.406 36.002 107.281C36.002 108.16 35.7637 108.854 35.2871 109.361C34.8145 109.865 34.1523 110.117 33.3008 110.117C32.5469 110.117 31.9316 109.908 31.4551 109.49C30.9785 109.072 30.707 108.494 30.6406 107.756H31.666C31.7324 108.244 31.9062 108.613 32.1875 108.863C32.4688 109.109 32.8398 109.232 33.3008 109.232C33.8047 109.232 34.1992 109.061 34.4844 108.717C34.7734 108.373 34.918 107.898 34.918 107.293C34.918 106.723 34.7617 106.266 34.4492 105.922C34.1406 105.574 33.7285 105.4 33.2129 105.4C32.7402 105.4 32.3691 105.504 32.0996 105.711L31.8125 105.945L30.9453 105.723ZM42.5352 106.361C42.5352 107.631 42.3184 108.574 41.8848 109.191C41.4512 109.809 40.7734 110.117 39.8516 110.117C38.9414 110.117 38.2676 109.816 37.8301 109.215C37.3926 108.609 37.166 107.707 37.1504 106.508V105.061C37.1504 103.807 37.3672 102.875 37.8008 102.266C38.2344 101.656 38.9141 101.352 39.8398 101.352C40.7578 101.352 41.4336 101.646 41.8672 102.236C42.3008 102.822 42.5234 103.729 42.5352 104.955V106.361ZM41.4512 104.879C41.4512 103.961 41.3223 103.293 41.0645 102.875C40.8066 102.453 40.3984 102.242 39.8398 102.242C39.2852 102.242 38.8809 102.451 38.627 102.869C38.373 103.287 38.2422 103.93 38.2344 104.797V106.531C38.2344 107.453 38.3672 108.135 38.6328 108.576C38.9023 109.014 39.3086 109.232 39.8516 109.232C40.3867 109.232 40.7832 109.025 41.041 108.611C41.3027 108.197 41.4395 107.545 41.4512 106.654V104.879ZM49.2734 106.361C49.2734 107.631 49.0566 108.574 48.623 109.191C48.1895 109.809 47.5117 110.117 46.5898 110.117C45.6797 110.117 45.0059 109.816 44.5684 109.215C44.1309 108.609 43.9043 107.707 43.8887 106.508V105.061C43.8887 103.807 44.1055 102.875 44.5391 102.266C44.9727 101.656 45.6523 101.352 46.5781 101.352C47.4961 101.352 48.1719 101.646 48.6055 102.236C49.0391 102.822 49.2617 103.729 49.2734 104.955V106.361ZM48.1895 104.879C48.1895 103.961 48.0605 103.293 47.8027 102.875C47.5449 102.453 47.1367 102.242 46.5781 102.242C46.0234 102.242 45.6191 102.451 45.3652 102.869C45.1113 103.287 44.9805 103.93 44.9727 104.797V106.531C44.9727 107.453 45.1055 108.135 45.3711 108.576C45.6406 109.014 46.0469 109.232 46.5898 109.232C47.125 109.232 47.5215 109.025 47.7793 108.611C48.041 108.197 48.1777 107.545 48.1895 106.654V104.879Z" fill="#999999"/>
<path d="M27.2715 141H26.1816V133.775L23.9961 134.578V133.594L27.1016 132.428H27.2715V141ZM36.0371 141H30.4473V140.221L33.4004 136.939C33.8379 136.443 34.1387 136.041 34.3027 135.732C34.4707 135.42 34.5547 135.098 34.5547 134.766C34.5547 134.32 34.4199 133.955 34.1504 133.67C33.8809 133.385 33.5215 133.242 33.0723 133.242C32.5332 133.242 32.1133 133.396 31.8125 133.705C31.5156 134.01 31.3672 134.436 31.3672 134.982H30.2832C30.2832 134.197 30.5352 133.562 31.0391 133.078C31.5469 132.594 32.2246 132.352 33.0723 132.352C33.8652 132.352 34.4922 132.561 34.9531 132.979C35.4141 133.393 35.6445 133.945 35.6445 134.637C35.6445 135.477 35.1094 136.477 34.0391 137.637L31.7539 140.115H36.0371V141ZM37.6836 136.723L38.1172 132.469H42.4883V133.471H39.0371L38.7793 135.797C39.1973 135.551 39.6719 135.428 40.2031 135.428C40.9805 135.428 41.5977 135.686 42.0547 136.201C42.5117 136.713 42.7402 137.406 42.7402 138.281C42.7402 139.16 42.502 139.854 42.0254 140.361C41.5527 140.865 40.8906 141.117 40.0391 141.117C39.2852 141.117 38.6699 140.908 38.1934 140.49C37.7168 140.072 37.4453 139.494 37.3789 138.756H38.4043C38.4707 139.244 38.6445 139.613 38.9258 139.863C39.207 140.109 39.5781 140.232 40.0391 140.232C40.543 140.232 40.9375 140.061 41.2227 139.717C41.5117 139.373 41.6562 138.898 41.6562 138.293C41.6562 137.723 41.5 137.266 41.1875 136.922C40.8789 136.574 40.4668 136.4 39.9512 136.4C39.4785 136.4 39.1074 136.504 38.8379 136.711L38.5508 136.945L37.6836 136.723ZM49.2734 137.361C49.2734 138.631 49.0566 139.574 48.623 140.191C48.1895 140.809 47.5117 141.117 46.5898 141.117C45.6797 141.117 45.0059 140.816 44.5684 140.215C44.1309 139.609 43.9043 138.707 43.8887 137.508V136.061C43.8887 134.807 44.1055 133.875 44.5391 133.266C44.9727 132.656 45.6523 132.352 46.5781 132.352C47.4961 132.352 48.1719 132.646 48.6055 133.236C49.0391 133.822 49.2617 134.729 49.2734 135.955V137.361ZM48.1895 135.879C48.1895 134.961 48.0605 134.293 47.8027 133.875C47.5449 133.453 47.1367 133.242 46.5781 133.242C46.0234 133.242 45.6191 133.451 45.3652 133.869C45.1113 134.287 44.9805 134.93 44.9727 135.797V137.531C44.9727 138.453 45.1055 139.135 45.3711 139.576C45.6406 140.014 46.0469 140.232 46.5898 140.232C47.125 140.232 47.5215 140.025 47.7793 139.611C48.041 139.197 48.1777 138.545 48.1895 137.654V135.879Z" fill="#999999"/>
<path d="M27.2715 172H26.1816V164.775L23.9961 165.578V164.594L27.1016 163.428H27.2715V172ZM35.7969 168.361C35.7969 169.631 35.5801 170.574 35.1465 171.191C34.7129 171.809 34.0352 172.117 33.1133 172.117C32.2031 172.117 31.5293 171.816 31.0918 171.215C30.6543 170.609 30.4277 169.707 30.4121 168.508V167.061C30.4121 165.807 30.6289 164.875 31.0625 164.266C31.4961 163.656 32.1758 163.352 33.1016 163.352C34.0195 163.352 34.6953 163.646 35.1289 164.236C35.5625 164.822 35.7852 165.729 35.7969 166.955V168.361ZM34.7129 166.879C34.7129 165.961 34.584 165.293 34.3262 164.875C34.0684 164.453 33.6602 164.242 33.1016 164.242C32.5469 164.242 32.1426 164.451 31.8887 164.869C31.6348 165.287 31.5039 165.93 31.4961 166.797V168.531C31.4961 169.453 31.6289 170.135 31.8945 170.576C32.1641 171.014 32.5703 171.232 33.1133 171.232C33.6484 171.232 34.0449 171.025 34.3027 170.611C34.5645 170.197 34.7012 169.545 34.7129 168.654V166.879ZM42.5352 168.361C42.5352 169.631 42.3184 170.574 41.8848 171.191C41.4512 171.809 40.7734 172.117 39.8516 172.117C38.9414 172.117 38.2676 171.816 37.8301 171.215C37.3926 170.609 37.166 169.707 37.1504 168.508V167.061C37.1504 165.807 37.3672 164.875 37.8008 164.266C38.2344 163.656 38.9141 163.352 39.8398 163.352C40.7578 163.352 41.4336 163.646 41.8672 164.236C42.3008 164.822 42.5234 165.729 42.5352 166.955V168.361ZM41.4512 166.879C41.4512 165.961 41.3223 165.293 41.0645 164.875C40.8066 164.453 40.3984 164.242 39.8398 164.242C39.2852 164.242 38.8809 164.451 38.627 164.869C38.373 165.287 38.2422 165.93 38.2344 166.797V168.531C38.2344 169.453 38.3672 170.135 38.6328 170.576C38.9023 171.014 39.3086 171.232 39.8516 171.232C40.3867 171.232 40.7832 171.025 41.041 170.611C41.3027 170.197 41.4395 169.545 41.4512 168.654V166.879ZM49.2734 168.361C49.2734 169.631 49.0566 170.574 48.623 171.191C48.1895 171.809 47.5117 172.117 46.5898 172.117C45.6797 172.117 45.0059 171.816 44.5684 171.215C44.1309 170.609 43.9043 169.707 43.8887 168.508V167.061C43.8887 165.807 44.1055 164.875 44.5391 164.266C44.9727 163.656 45.6523 163.352 46.5781 163.352C47.4961 163.352 48.1719 163.646 48.6055 164.236C49.0391 164.822 49.2617 165.729 49.2734 166.955V168.361ZM48.1895 166.879C48.1895 165.961 48.0605 165.293 47.8027 164.875C47.5449 164.453 47.1367 164.242 46.5781 164.242C46.0234 164.242 45.6191 164.451 45.3652 164.869C45.1113 165.287 44.9805 165.93 44.9727 166.797V168.531C44.9727 169.453 45.1055 170.135 45.3711 170.576C45.6406 171.014 46.0469 171.232 46.5898 171.232C47.125 171.232 47.5215 171.025 47.7793 170.611C48.041 170.197 48.1777 169.545 48.1895 168.654V166.879Z" fill="#999999"/>
<path d="M29.2168 195.078L25.6836 203H24.5469L28.0684 195.359H23.4512V194.469H29.2168V195.078ZM30.9453 198.723L31.3789 194.469H35.75V195.471H32.2988L32.041 197.797C32.459 197.551 32.9336 197.428 33.4648 197.428C34.2422 197.428 34.8594 197.686 35.3164 198.201C35.7734 198.713 36.002 199.406 36.002 200.281C36.002 201.16 35.7637 201.854 35.2871 202.361C34.8145 202.865 34.1523 203.117 33.3008 203.117C32.5469 203.117 31.9316 202.908 31.4551 202.49C30.9785 202.072 30.707 201.494 30.6406 200.756H31.666C31.7324 201.244 31.9062 201.613 32.1875 201.863C32.4688 202.109 32.8398 202.232 33.3008 202.232C33.8047 202.232 34.1992 202.061 34.4844 201.717C34.7734 201.373 34.918 200.898 34.918 200.293C34.918 199.723 34.7617 199.266 34.4492 198.922C34.1406 198.574 33.7285 198.4 33.2129 198.4C32.7402 198.4 32.3691 198.504 32.0996 198.711L31.8125 198.945L30.9453 198.723ZM42.5352 199.361C42.5352 200.631 42.3184 201.574 41.8848 202.191C41.4512 202.809 40.7734 203.117 39.8516 203.117C38.9414 203.117 38.2676 202.816 37.8301 202.215C37.3926 201.609 37.166 200.707 37.1504 199.508V198.061C37.1504 196.807 37.3672 195.875 37.8008 195.266C38.2344 194.656 38.9141 194.352 39.8398 194.352C40.7578 194.352 41.4336 194.646 41.8672 195.236C42.3008 195.822 42.5234 196.729 42.5352 197.955V199.361ZM41.4512 197.879C41.4512 196.961 41.3223 196.293 41.0645 195.875C40.8066 195.453 40.3984 195.242 39.8398 195.242C39.2852 195.242 38.8809 195.451 38.627 195.869C38.373 196.287 38.2422 196.93 38.2344 197.797V199.531C38.2344 200.453 38.3672 201.135 38.6328 201.576C38.9023 202.014 39.3086 202.232 39.8516 202.232C40.3867 202.232 40.7832 202.025 41.041 201.611C41.3027 201.197 41.4395 200.545 41.4512 199.654V197.879Z" fill="#999999"/>
<path d="M24.207 229.723L24.6406 225.469H29.0117V226.471H25.5605L25.3027 228.797C25.7207 228.551 26.1953 228.428 26.7266 228.428C27.5039 228.428 28.1211 228.686 28.5781 229.201C29.0352 229.713 29.2637 230.406 29.2637 231.281C29.2637 232.16 29.0254 232.854 28.5488 233.361C28.0762 233.865 27.4141 234.117 26.5625 234.117C25.8086 234.117 25.1934 233.908 24.7168 233.49C24.2402 233.072 23.9688 232.494 23.9023 231.756H24.9277C24.9941 232.244 25.168 232.613 25.4492 232.863C25.7305 233.109 26.1016 233.232 26.5625 233.232C27.0664 233.232 27.4609 233.061 27.7461 232.717C28.0352 232.373 28.1797 231.898 28.1797 231.293C28.1797 230.723 28.0234 230.266 27.7109 229.922C27.4023 229.574 26.9902 229.4 26.4746 229.4C26.002 229.4 25.6309 229.504 25.3613 229.711L25.0742 229.945L24.207 229.723ZM35.7969 230.361C35.7969 231.631 35.5801 232.574 35.1465 233.191C34.7129 233.809 34.0352 234.117 33.1133 234.117C32.2031 234.117 31.5293 233.816 31.0918 233.215C30.6543 232.609 30.4277 231.707 30.4121 230.508V229.061C30.4121 227.807 30.6289 226.875 31.0625 226.266C31.4961 225.656 32.1758 225.352 33.1016 225.352C34.0195 225.352 34.6953 225.646 35.1289 226.236C35.5625 226.822 35.7852 227.729 35.7969 228.955V230.361ZM34.7129 228.879C34.7129 227.961 34.584 227.293 34.3262 226.875C34.0684 226.453 33.6602 226.242 33.1016 226.242C32.5469 226.242 32.1426 226.451 31.8887 226.869C31.6348 227.287 31.5039 227.93 31.4961 228.797V230.531C31.4961 231.453 31.6289 232.135 31.8945 232.576C32.1641 233.014 32.5703 233.232 33.1133 233.232C33.6484 233.232 34.0449 233.025 34.3027 232.611C34.5645 232.197 34.7012 231.545 34.7129 230.654V228.879ZM42.5352 230.361C42.5352 231.631 42.3184 232.574 41.8848 233.191C41.4512 233.809 40.7734 234.117 39.8516 234.117C38.9414 234.117 38.2676 233.816 37.8301 233.215C37.3926 232.609 37.166 231.707 37.1504 230.508V229.061C37.1504 227.807 37.3672 226.875 37.8008 226.266C38.2344 225.656 38.9141 225.352 39.8398 225.352C40.7578 225.352 41.4336 225.646 41.8672 226.236C42.3008 226.822 42.5234 227.729 42.5352 228.955V230.361ZM41.4512 228.879C41.4512 227.961 41.3223 227.293 41.0645 226.875C40.8066 226.453 40.3984 226.242 39.8398 226.242C39.2852 226.242 38.8809 226.451 38.627 226.869C38.373 227.287 38.2422 227.93 38.2344 228.797V230.531C38.2344 231.453 38.3672 232.135 38.6328 232.576C38.9023 233.014 39.3086 233.232 39.8516 233.232C40.3867 233.232 40.7832 233.025 41.041 232.611C41.3027 232.197 41.4395 231.545 41.4512 230.654V228.879Z" fill="#999999"/>
<path d="M29.2988 265H23.709V264.221L26.6621 260.939C27.0996 260.443 27.4004 260.041 27.5645 259.732C27.7324 259.42 27.8164 259.098 27.8164 258.766C27.8164 258.32 27.6816 257.955 27.4121 257.67C27.1426 257.385 26.7832 257.242 26.334 257.242C25.7949 257.242 25.375 257.396 25.0742 257.705C24.7773 258.01 24.6289 258.436 24.6289 258.982H23.5449C23.5449 258.197 23.7969 257.562 24.3008 257.078C24.8086 256.594 25.4863 256.352 26.334 256.352C27.127 256.352 27.7539 256.561 28.2148 256.979C28.6758 257.393 28.9062 257.945 28.9062 258.637C28.9062 259.477 28.3711 260.477 27.3008 261.637L25.0156 264.115H29.2988V265ZM30.9453 260.723L31.3789 256.469H35.75V257.471H32.2988L32.041 259.797C32.459 259.551 32.9336 259.428 33.4648 259.428C34.2422 259.428 34.8594 259.686 35.3164 260.201C35.7734 260.713 36.002 261.406 36.002 262.281C36.002 263.16 35.7637 263.854 35.2871 264.361C34.8145 264.865 34.1523 265.117 33.3008 265.117C32.5469 265.117 31.9316 264.908 31.4551 264.49C30.9785 264.072 30.707 263.494 30.6406 262.756H31.666C31.7324 263.244 31.9062 263.613 32.1875 263.863C32.4688 264.109 32.8398 264.232 33.3008 264.232C33.8047 264.232 34.1992 264.061 34.4844 263.717C34.7734 263.373 34.918 262.898 34.918 262.293C34.918 261.723 34.7617 261.266 34.4492 260.922C34.1406 260.574 33.7285 260.4 33.2129 260.4C32.7402 260.4 32.3691 260.504 32.0996 260.711L31.8125 260.945L30.9453 260.723ZM42.5352 261.361C42.5352 262.631 42.3184 263.574 41.8848 264.191C41.4512 264.809 40.7734 265.117 39.8516 265.117C38.9414 265.117 38.2676 264.816 37.8301 264.215C37.3926 263.609 37.166 262.707 37.1504 261.508V260.061C37.1504 258.807 37.3672 257.875 37.8008 257.266C38.2344 256.656 38.9141 256.352 39.8398 256.352C40.7578 256.352 41.4336 256.646 41.8672 257.236C42.3008 257.822 42.5234 258.729 42.5352 259.955V261.361ZM41.4512 259.879C41.4512 258.961 41.3223 258.293 41.0645 257.875C40.8066 257.453 40.3984 257.242 39.8398 257.242C39.2852 257.242 38.8809 257.451 38.627 257.869C38.373 258.287 38.2422 258.93 38.2344 259.797V261.531C38.2344 262.453 38.3672 263.135 38.6328 263.576C38.9023 264.014 39.3086 264.232 39.8516 264.232C40.3867 264.232 40.7832 264.025 41.041 263.611C41.3027 263.197 41.4395 262.545 41.4512 261.654V259.879Z" fill="#999999"/>
<path d="M628.99 52V43.4688H631.779C632.705 43.4688 633.4 43.6602 633.865 44.043C634.334 44.4258 634.568 44.9922 634.568 45.7422C634.568 46.1406 634.455 46.4941 634.229 46.8027C634.002 47.1074 633.693 47.3438 633.303 47.5117C633.764 47.6406 634.127 47.8867 634.393 48.25C634.662 48.6094 634.797 49.0391 634.797 49.5391C634.797 50.3047 634.549 50.9062 634.053 51.3438C633.557 51.7812 632.855 52 631.949 52H628.99ZM630.115 48.0098V51.0801H631.973C632.496 51.0801 632.908 50.9453 633.209 50.6758C633.514 50.4023 633.666 50.0273 633.666 49.5508C633.666 48.5234 633.107 48.0098 631.99 48.0098H630.115ZM630.115 47.1074H631.814C632.307 47.1074 632.699 46.9844 632.992 46.7383C633.289 46.4922 633.438 46.1582 633.438 45.7363C633.438 45.2676 633.301 44.9277 633.027 44.7168C632.754 44.502 632.338 44.3945 631.779 44.3945H630.115V47.1074ZM638.84 51.2324C639.227 51.2324 639.564 51.1152 639.854 50.8809C640.143 50.6465 640.303 50.3535 640.334 50.002H641.359C641.34 50.3652 641.215 50.7109 640.984 51.0391C640.754 51.3672 640.445 51.6289 640.059 51.8242C639.676 52.0195 639.27 52.1172 638.84 52.1172C637.977 52.1172 637.289 51.8301 636.777 51.2559C636.27 50.6777 636.016 49.8887 636.016 48.8887V48.707C636.016 48.0898 636.129 47.541 636.355 47.0605C636.582 46.5801 636.906 46.207 637.328 45.9414C637.754 45.6758 638.256 45.543 638.834 45.543C639.545 45.543 640.135 45.7559 640.604 46.1816C641.076 46.6074 641.328 47.1602 641.359 47.8398H640.334C640.303 47.4297 640.146 47.0938 639.865 46.832C639.588 46.5664 639.244 46.4336 638.834 46.4336C638.283 46.4336 637.855 46.6328 637.551 47.0312C637.25 47.4258 637.1 47.998 637.1 48.748V48.9531C637.1 49.6836 637.25 50.2461 637.551 50.6406C637.852 51.0352 638.281 51.2324 638.84 51.2324ZM645.209 52.1172C644.35 52.1172 643.65 51.8359 643.111 51.2734C642.572 50.707 642.303 49.9512 642.303 49.0059V48.8066C642.303 48.1777 642.422 47.6172 642.66 47.125C642.902 46.6289 643.238 46.2422 643.668 45.9648C644.102 45.6836 644.57 45.543 645.074 45.543C645.898 45.543 646.539 45.8145 646.996 46.3574C647.453 46.9004 647.682 47.6777 647.682 48.6895V49.1406H643.387C643.402 49.7656 643.584 50.2715 643.932 50.6582C644.283 51.041 644.729 51.2324 645.268 51.2324C645.65 51.2324 645.975 51.1543 646.24 50.998C646.506 50.8418 646.738 50.6348 646.938 50.377L647.6 50.8926C647.068 51.709 646.271 52.1172 645.209 52.1172ZM645.074 46.4336C644.637 46.4336 644.27 46.5938 643.973 46.9141C643.676 47.2305 643.492 47.6758 643.422 48.25H646.598V48.168C646.566 47.6172 646.418 47.1914 646.152 46.8906C645.887 46.5859 645.527 46.4336 645.074 46.4336ZM653.037 46.5566H650.113V52H649.023V45.6602H653.037V46.5566ZM653.576 48.7715C653.576 48.1504 653.697 47.5918 653.939 47.0957C654.186 46.5996 654.525 46.2168 654.959 45.9473C655.396 45.6777 655.895 45.543 656.453 45.543C657.316 45.543 658.014 45.8418 658.545 46.4395C659.08 47.0371 659.348 47.832 659.348 48.8242V48.9004C659.348 49.5176 659.229 50.0723 658.99 50.5645C658.756 51.0527 658.418 51.4336 657.977 51.707C657.539 51.9805 657.035 52.1172 656.465 52.1172C655.605 52.1172 654.908 51.8184 654.373 51.2207C653.842 50.623 653.576 49.832 653.576 48.8477V48.7715ZM654.666 48.9004C654.666 49.6035 654.828 50.168 655.152 50.5938C655.48 51.0195 655.918 51.2324 656.465 51.2324C657.016 51.2324 657.453 51.0176 657.777 50.5879C658.102 50.1543 658.264 49.5488 658.264 48.7715C658.264 48.0762 658.098 47.5137 657.766 47.084C657.438 46.6504 657 46.4336 656.453 46.4336C655.918 46.4336 655.486 46.6465 655.158 47.0723C654.83 47.498 654.666 48.1074 654.666 48.9004Z" fill="#555555"/>
<path d="M635.289 76.8809C635 77.2949 634.596 77.6055 634.076 77.8125C633.561 78.0156 632.959 78.1172 632.271 78.1172C631.576 78.1172 630.959 77.9551 630.42 77.6309C629.881 77.3027 629.463 76.8379 629.166 76.2363C628.873 75.6348 628.723 74.9375 628.715 74.1445V73.4004C628.715 72.1152 629.014 71.1191 629.611 70.4121C630.213 69.7051 631.057 69.3516 632.143 69.3516C633.033 69.3516 633.75 69.5801 634.293 70.0371C634.836 70.4902 635.168 71.1348 635.289 71.9707H634.164C633.953 70.8418 633.281 70.2773 632.148 70.2773C631.395 70.2773 630.822 70.543 630.432 71.0742C630.045 71.6016 629.85 72.3672 629.846 73.3711V74.0684C629.846 75.0254 630.064 75.7871 630.502 76.3535C630.939 76.916 631.531 77.1973 632.277 77.1973C632.699 77.1973 633.068 77.1504 633.385 77.0566C633.701 76.9629 633.963 76.8047 634.17 76.582V74.666H632.195V73.752H635.289V76.8809ZM636.713 74.7715C636.713 74.1504 636.834 73.5918 637.076 73.0957C637.322 72.5996 637.662 72.2168 638.096 71.9473C638.533 71.6777 639.031 71.543 639.59 71.543C640.453 71.543 641.15 71.8418 641.682 72.4395C642.217 73.0371 642.484 73.832 642.484 74.8242V74.9004C642.484 75.5176 642.365 76.0723 642.127 76.5645C641.893 77.0527 641.555 77.4336 641.113 77.707C640.676 77.9805 640.172 78.1172 639.602 78.1172C638.742 78.1172 638.045 77.8184 637.51 77.2207C636.979 76.623 636.713 75.832 636.713 74.8477V74.7715ZM637.803 74.9004C637.803 75.6035 637.965 76.168 638.289 76.5938C638.617 77.0195 639.055 77.2324 639.602 77.2324C640.152 77.2324 640.59 77.0176 640.914 76.5879C641.238 76.1543 641.4 75.5488 641.4 74.7715C641.4 74.0762 641.234 73.5137 640.902 73.084C640.574 72.6504 640.137 72.4336 639.59 72.4336C639.055 72.4336 638.623 72.6465 638.295 73.0723C637.967 73.498 637.803 74.1074 637.803 74.9004ZM643.557 74.7715C643.557 74.1504 643.678 73.5918 643.92 73.0957C644.166 72.5996 644.506 72.2168 644.939 71.9473C645.377 71.6777 645.875 71.543 646.434 71.543C647.297 71.543 647.994 71.8418 648.525 72.4395C649.061 73.0371 649.328 73.832 649.328 74.8242V74.9004C649.328 75.5176 649.209 76.0723 648.971 76.5645C648.736 77.0527 648.398 77.4336 647.957 77.707C647.52 77.9805 647.016 78.1172 646.445 78.1172C645.586 78.1172 644.889 77.8184 644.354 77.2207C643.822 76.623 643.557 75.832 643.557 74.8477V74.7715ZM644.646 74.9004C644.646 75.6035 644.809 76.168 645.133 76.5938C645.461 77.0195 645.898 77.2324 646.445 77.2324C646.996 77.2324 647.434 77.0176 647.758 76.5879C648.082 76.1543 648.244 75.5488 648.244 74.7715C648.244 74.0762 648.078 73.5137 647.746 73.084C647.418 72.6504 646.98 72.4336 646.434 72.4336C645.898 72.4336 645.467 72.6465 645.139 73.0723C644.811 73.498 644.646 74.1074 644.646 74.9004ZM650.43 74.7773C650.43 73.7891 650.658 73.0039 651.115 72.4219C651.572 71.8359 652.178 71.543 652.932 71.543C653.705 71.543 654.309 71.8164 654.742 72.3633L654.795 71.6602H655.785V77.8477C655.785 78.668 655.541 79.3145 655.053 79.7871C654.568 80.2598 653.916 80.4961 653.096 80.4961C652.639 80.4961 652.191 80.3984 651.754 80.2031C651.316 80.0078 650.982 79.7402 650.752 79.4004L651.314 78.75C651.779 79.3242 652.348 79.6113 653.02 79.6113C653.547 79.6113 653.957 79.4629 654.25 79.166C654.547 78.8691 654.695 78.4512 654.695 77.9121V77.3672C654.262 77.8672 653.67 78.1172 652.92 78.1172C652.178 78.1172 651.576 77.8184 651.115 77.2207C650.658 76.623 650.43 75.8086 650.43 74.7773ZM651.52 74.9004C651.52 75.6152 651.666 76.1777 651.959 76.5879C652.252 76.9941 652.662 77.1973 653.189 77.1973C653.873 77.1973 654.375 76.8867 654.695 76.2656V73.3711C654.363 72.7656 653.865 72.4629 653.201 72.4629C652.674 72.4629 652.262 72.668 651.965 73.0781C651.668 73.4883 651.52 74.0957 651.52 74.9004ZM658.604 78H657.52V69H658.604V78ZM662.975 78.1172C662.115 78.1172 661.416 77.8359 660.877 77.2734C660.338 76.707 660.068 75.9512 660.068 75.0059V74.8066C660.068 74.1777 660.188 73.6172 660.426 73.125C660.668 72.6289 661.004 72.2422 661.434 71.9648C661.867 71.6836 662.336 71.543 662.84 71.543C663.664 71.543 664.305 71.8145 664.762 72.3574C665.219 72.9004 665.447 73.6777 665.447 74.6895V75.1406H661.152C661.168 75.7656 661.35 76.2715 661.697 76.6582C662.049 77.041 662.494 77.2324 663.033 77.2324C663.416 77.2324 663.74 77.1543 664.006 76.998C664.271 76.8418 664.504 76.6348 664.703 76.377L665.365 76.8926C664.834 77.709 664.037 78.1172 662.975 78.1172ZM662.84 72.4336C662.402 72.4336 662.035 72.5938 661.738 72.9141C661.441 73.2305 661.258 73.6758 661.188 74.25H664.363V74.168C664.332 73.6172 664.184 73.1914 663.918 72.8906C663.652 72.5859 663.293 72.4336 662.84 72.4336Z" fill="#555555"/>
<path d="M633.455 104V100.678H631.486L629.723 104H628.521L630.502 100.367C629.4 99.9336 628.85 99.1582 628.85 98.041C628.85 97.2285 629.115 96.5977 629.646 96.1484C630.182 95.6953 630.924 95.4688 631.873 95.4688H634.586V104H633.455ZM629.975 98.041C629.975 98.5566 630.135 98.9707 630.455 99.2832C630.779 99.5957 631.229 99.7539 631.803 99.7578H633.455V96.3945H631.855C631.246 96.3945 630.779 96.5391 630.455 96.8281C630.135 97.1172 629.975 97.5215 629.975 98.041ZM641.641 104H640.557V101.293H637.645V104H636.555V97.6602H637.645V100.408H640.557V97.6602H641.641V104ZM643.334 103.115L643.709 102.652C644.131 102.105 644.371 101.285 644.43 100.191L644.529 97.6602H648.613V103.115H649.428V105.863H648.344V104H643.92V105.863H642.836L642.842 103.115H643.334ZM644.617 103.115H647.529V98.6621H645.578L645.514 100.174C645.447 101.436 645.148 102.416 644.617 103.115ZM653.26 104.117C652.4 104.117 651.701 103.836 651.162 103.273C650.623 102.707 650.354 101.951 650.354 101.006V100.807C650.354 100.178 650.473 99.6172 650.711 99.125C650.953 98.6289 651.289 98.2422 651.719 97.9648C652.152 97.6836 652.621 97.543 653.125 97.543C653.949 97.543 654.59 97.8145 655.047 98.3574C655.504 98.9004 655.732 99.6777 655.732 100.689V101.141H651.438C651.453 101.766 651.635 102.271 651.982 102.658C652.334 103.041 652.779 103.232 653.318 103.232C653.701 103.232 654.025 103.154 654.291 102.998C654.557 102.842 654.789 102.635 654.988 102.377L655.65 102.893C655.119 103.709 654.322 104.117 653.26 104.117ZM653.125 98.4336C652.688 98.4336 652.32 98.5938 652.023 98.9141C651.727 99.2305 651.543 99.6758 651.473 100.25H654.648V100.168C654.617 99.6172 654.469 99.1914 654.203 98.8906C653.938 98.5859 653.578 98.4336 653.125 98.4336ZM658.967 101.299H658.176V104H657.086V97.6602H658.176V100.344H658.885L661.018 97.6602H662.33L659.822 100.707L662.541 104H661.164L658.967 101.299ZM665.922 103.232C666.309 103.232 666.646 103.115 666.936 102.881C667.225 102.646 667.385 102.354 667.416 102.002H668.441C668.422 102.365 668.297 102.711 668.066 103.039C667.836 103.367 667.527 103.629 667.141 103.824C666.758 104.02 666.352 104.117 665.922 104.117C665.059 104.117 664.371 103.83 663.859 103.256C663.352 102.678 663.098 101.889 663.098 100.889V100.707C663.098 100.09 663.211 99.541 663.438 99.0605C663.664 98.5801 663.988 98.207 664.41 97.9414C664.836 97.6758 665.338 97.543 665.916 97.543C666.627 97.543 667.217 97.7559 667.686 98.1816C668.158 98.6074 668.41 99.1602 668.441 99.8398H667.416C667.385 99.4297 667.229 99.0938 666.947 98.832C666.67 98.5664 666.326 98.4336 665.916 98.4336C665.365 98.4336 664.938 98.6328 664.633 99.0312C664.332 99.4258 664.182 99.998 664.182 100.748V100.953C664.182 101.684 664.332 102.246 664.633 102.641C664.934 103.035 665.363 103.232 665.922 103.232Z" fill="#555555"/>
<circle cx="611" cy="47" r="6" fill="#55DB7A"/>
<circle cx="611" cy="72" r="6" fill="#30A2F5"/>
<circle cx="611" cy="99" r="6" fill="#F6CD3C"/>
</svg>
