<svg width="179" height="39" viewBox="0 0 179 39" fill="none" xmlns="http://www.w3.org/2000/svg">
<path fill-rule="evenodd" clip-rule="evenodd" d="M49.529 14.5252V2.57305C49.5272 2.46137 49.5482 2.35051 49.5907 2.2472C49.6321 2.14598 49.6946 2.05475 49.774 1.97957C49.94 1.82316 50.1529 1.73801 50.3736 1.73801C50.5925 1.73801 50.8054 1.82403 50.9714 1.97957C51.0506 2.05473 51.1129 2.14598 51.1539 2.2472C51.1966 2.35046 51.2179 2.46132 51.2164 2.57305V13.9265H54.6913V2.57218C54.6893 2.46056 54.71 2.3497 54.7521 2.24633C54.7938 2.14503 54.8566 2.05379 54.9363 1.9787C55.0975 1.82428 55.3119 1.73778 55.535 1.73714C55.7549 1.73714 55.9678 1.82316 56.1337 1.9787C56.213 2.05386 56.2752 2.14511 56.3162 2.24633C56.359 2.34957 56.3803 2.46044 56.3788 2.57218V13.9257H56.5135C56.6108 13.9243 56.7073 13.9428 56.7973 13.98C56.8872 14.0172 56.9686 14.0723 57.0365 14.142C57.1079 14.2097 57.1642 14.2917 57.2016 14.3827C57.2396 14.4759 57.2582 14.5758 57.2564 14.6764V17.5091C57.2566 17.6067 57.2371 17.7034 57.199 17.7933C57.1618 17.8812 57.1064 17.9603 57.0365 18.0253C56.9647 18.0975 56.8786 18.1541 56.7838 18.1915C56.689 18.2289 56.5875 18.2463 56.4856 18.2425C56.2831 18.2509 56.0855 18.1791 55.9356 18.0427C55.8627 17.9765 55.8054 17.8948 55.7679 17.8037C55.7298 17.7104 55.712 17.6099 55.7158 17.5091V15.3551H50.3744C50.2638 15.3576 50.1537 15.3376 50.0509 15.2964C49.9482 15.2552 49.8549 15.1936 49.7766 15.1152C49.697 15.0407 49.6342 14.95 49.5924 14.8493C49.5494 14.7464 49.5279 14.6359 49.529 14.5244V14.5252ZM63.7239 9.90684H60.335C60.335 11.1625 60.5262 12.1296 60.9068 12.8082C61.1145 13.1879 61.4134 13.499 61.7731 13.7084C62.1328 13.917 62.5386 14.0169 62.947 13.9952C63.0453 13.9918 63.1432 14.0099 63.2338 14.0482C63.3265 14.0879 63.41 14.1465 63.4788 14.2202C63.5476 14.2914 63.6014 14.3756 63.637 14.4679C63.7095 14.6545 63.708 14.8619 63.6326 15.0475C63.5955 15.1354 63.5401 15.2145 63.4701 15.2795C63.4022 15.3491 63.3208 15.4043 63.2308 15.4415C63.1409 15.4787 63.0443 15.4972 62.947 15.4958C61.429 15.4958 60.3107 14.8676 59.5912 13.612C58.9934 12.4848 58.7028 11.2202 58.7483 9.94508C58.7483 8.73292 58.9995 7.75189 59.5 7.002C59.7382 6.63494 60.0663 6.33492 60.4532 6.13046C60.8338 5.93061 61.2552 5.83937 61.6784 5.86283C62.0668 5.84545 62.4552 5.91844 62.815 6.07833C63.1794 6.24182 63.5029 6.48431 63.7621 6.78824C64.2904 7.41996 64.5711 8.24718 64.5467 9.097C64.5478 9.20374 64.5271 9.30958 64.4859 9.40808C64.4459 9.50479 64.3858 9.59188 64.3095 9.66354C64.2342 9.74183 64.1435 9.80381 64.0432 9.84566C63.9429 9.88751 63.8351 9.90834 63.7265 9.90684H63.7239ZM61.6784 7.30787C61.3346 7.30156 61.0007 7.42327 60.7417 7.64936C60.6186 7.74552 60.5195 7.86897 60.4523 8.00996C60.3828 8.15334 60.3472 8.31235 60.3454 8.47397H62.9609C62.9605 8.31299 62.9249 8.15405 62.8567 8.00823C62.7902 7.86626 62.6921 7.74141 62.5699 7.64327C62.3251 7.42403 62.007 7.30438 61.6784 7.30787ZM66.2481 14.6921V6.68223C66.2471 6.57521 66.2678 6.4691 66.3089 6.37029C66.3488 6.27371 66.4086 6.18666 66.4845 6.11482C66.5594 6.03924 66.6488 5.97952 66.7474 5.93921C66.8459 5.8989 66.9515 5.87884 67.058 5.88021C67.1608 5.87934 67.2628 5.89973 67.3575 5.9401C67.4521 5.98047 67.5374 6.03995 67.608 6.11482C67.6842 6.18654 67.7443 6.27361 67.7844 6.37029C67.8256 6.46908 67.8463 6.57521 67.8452 6.68223V8.47397H70.3417V6.67268C70.3408 6.56595 70.3615 6.46014 70.4025 6.3616C70.4426 6.26495 70.5027 6.17788 70.5789 6.10613C70.6537 6.03066 70.743 5.97099 70.8414 5.93069C70.9397 5.89039 71.0452 5.87027 71.1515 5.87152C71.2544 5.87065 71.3564 5.89104 71.451 5.93141C71.5457 5.97178 71.6309 6.03126 71.7015 6.10613C71.7777 6.17785 71.8379 6.26492 71.8779 6.3616C71.919 6.46012 71.9397 6.56594 71.9388 6.67268V14.6825C71.9398 14.7895 71.9191 14.8957 71.8779 14.9944C71.8378 15.0908 71.7776 15.1776 71.7015 15.249C71.6267 15.3245 71.5374 15.3842 71.439 15.4245C71.3407 15.4648 71.2352 15.4849 71.1289 15.4837C71.026 15.4845 70.924 15.4641 70.8294 15.4238C70.7347 15.3834 70.6495 15.3239 70.5789 15.249C70.5028 15.1776 70.4427 15.0908 70.4025 14.9944C70.3613 14.8956 70.3407 14.7895 70.3417 14.6825V9.90684H67.8461V14.6921C67.847 14.7988 67.8263 14.9046 67.7853 15.0031C67.7452 15.0998 67.6851 15.1869 67.6089 15.2586C67.534 15.3341 67.4448 15.3938 67.3464 15.4341C67.248 15.4744 67.1425 15.4945 67.0362 15.4932C66.9332 15.4942 66.8311 15.4739 66.7363 15.4335C66.6414 15.3931 66.556 15.3336 66.4853 15.2586C66.4094 15.1868 66.3496 15.0997 66.3098 15.0031C66.2688 14.9046 66.2481 14.7988 66.249 14.6921H66.2481ZM75.7047 14.6921V7.44168H74.0529C73.9117 7.44579 73.7727 7.40639 73.6548 7.32883C73.5368 7.25126 73.4455 7.13928 73.3933 7.00808C73.3587 6.9184 73.3424 6.82265 73.3456 6.72655C73.3456 6.63271 73.3629 6.53973 73.3977 6.45284C73.4317 6.36789 73.4822 6.29051 73.5463 6.22518C73.6115 6.15441 73.6908 6.09816 73.7791 6.06008C73.8655 6.02293 73.9589 6.00514 74.0529 6.00794H78.945C79.0393 6.0054 79.1332 6.02219 79.2208 6.0573C79.3085 6.0924 79.388 6.14508 79.4545 6.21207C79.521 6.27906 79.5731 6.35896 79.6075 6.44684C79.642 6.53472 79.6581 6.62873 79.6549 6.72307C79.6549 6.81687 79.6369 6.90979 79.6019 6.99679C79.5671 7.08368 79.515 7.16102 79.4515 7.22445C79.3863 7.29519 79.307 7.35144 79.2187 7.38955C79.1323 7.42667 79.0389 7.44446 78.945 7.44168H77.2931V14.6921C77.296 14.7996 77.2771 14.9066 77.2375 15.0066C77.1792 15.1535 77.0771 15.279 76.9452 15.366C76.8133 15.453 76.6578 15.4974 76.4998 15.4932C76.397 15.493 76.2954 15.4721 76.2009 15.4318C76.1064 15.3915 76.021 15.3326 75.9497 15.2586C75.872 15.1876 75.8104 15.1008 75.769 15.004C75.7265 14.9052 75.7046 14.7987 75.7047 14.6912V14.6921ZM81.1442 17.4327V6.60751C81.1442 6.50932 81.1642 6.41287 81.2024 6.32337C81.2396 6.23544 81.295 6.15637 81.3649 6.09136C81.4329 6.02164 81.5143 5.96644 81.6042 5.9291C81.6941 5.89176 81.7907 5.87306 81.888 5.87413C83.1723 5.87413 84.3758 6.53017 85.4967 7.84139C86.6176 9.15348 87.1755 10.5316 87.1677 11.9775C87.1621 12.444 87.0576 12.9039 86.8609 13.327C86.6646 13.7458 86.383 14.1107 86.0363 14.3958C85.4385 14.9906 84.6358 15.3341 83.7927 15.3559H82.7309V17.4327C82.7318 17.5394 82.7111 17.6452 82.6701 17.7437C82.6302 17.8403 82.5704 17.9274 82.4946 17.9992C82.4196 18.0748 82.3302 18.1345 82.2317 18.1748C82.1331 18.2151 82.0275 18.2352 81.9211 18.2338C81.8182 18.2347 81.7162 18.2143 81.6215 18.1739C81.5269 18.1336 81.4416 18.0741 81.371 17.9992C81.297 17.9266 81.239 17.8393 81.2007 17.7429C81.1615 17.6443 81.1426 17.5388 81.1451 17.4327H81.1442ZM85.4802 11.974C85.4558 11.0547 85.1694 10.1615 84.6547 9.39939C84.2035 8.61655 83.5337 7.98238 82.7274 7.57463V13.9265H83.6224C84.0759 13.928 84.514 13.7622 84.8528 13.4608C85.0579 13.2826 85.2213 13.0559 85.3307 12.7978C85.44 12.5374 85.491 12.2562 85.4802 11.974ZM92.9469 14.858V2.57218C92.945 2.46049 92.966 2.34959 93.0086 2.24633C93.0496 2.14488 93.1122 2.05356 93.192 1.9787C93.3579 1.82229 93.57 1.73714 93.7907 1.73714C94.0105 1.73714 94.2234 1.82316 94.3894 1.9787C94.4676 2.05256 94.5301 2.1438 94.5727 2.24633C94.6149 2.34971 94.6359 2.46053 94.6344 2.57218V12.9229L98.4881 8.1377V2.57218C98.4866 2.46053 98.5076 2.34971 98.5498 2.24633C98.5914 2.14521 98.6539 2.05401 98.7332 1.9787C98.8991 1.82229 99.112 1.73714 99.3319 1.73714C99.5526 1.73714 99.7655 1.82316 99.9314 1.9787C100.011 2.05386 100.073 2.14511 100.114 2.24633C100.157 2.34959 100.178 2.46049 100.176 2.57218V14.7633C100.178 14.875 100.157 14.9859 100.114 15.0892C100.073 15.1901 100.011 15.281 99.9314 15.3559C99.7655 15.5123 99.5526 15.5984 99.3319 15.5984C99.112 15.5984 98.8991 15.5115 98.7332 15.3559C98.6539 15.2806 98.5914 15.1894 98.5498 15.0883C98.5077 14.9852 98.4867 14.8747 98.4881 14.7633V10.5229L94.7387 15.0596C94.6184 15.2158 94.4642 15.3427 94.2877 15.4306C94.1204 15.5284 93.9306 15.5814 93.7368 15.5845C93.5267 15.5892 93.323 15.5116 93.1694 15.3681C93.0982 15.3052 93.0415 15.2275 93.0034 15.1404C92.9644 15.0514 92.944 14.9553 92.9435 14.858H92.9469ZM109.919 14.9406L109.093 7.82141L107.411 10.6098C107.339 10.7183 107.243 10.8087 107.13 10.874C107.018 10.9398 106.891 10.9754 106.761 10.9774C106.631 10.9793 106.503 10.9476 106.389 10.8853C106.27 10.8195 106.168 10.7248 106.095 10.6098L104.35 7.82401L103.562 14.944C103.551 15.0237 103.522 15.1 103.478 15.1674C103.436 15.2327 103.379 15.2872 103.312 15.3264C103.165 15.4336 102.989 15.4917 102.808 15.4923C102.701 15.4967 102.596 15.4768 102.498 15.4341C102.398 15.3897 102.309 15.3239 102.237 15.2413C102.166 15.1588 102.113 15.0614 102.083 14.9562C102.051 14.8491 102.042 14.7368 102.056 14.626L102.899 6.82387C102.93 6.57187 103.045 6.33781 103.226 6.16001C103.31 6.06834 103.412 5.9947 103.525 5.94361C103.638 5.89251 103.76 5.86502 103.884 5.86283C104.123 5.86631 104.358 5.92279 104.575 6.0288C104.781 6.11569 104.962 6.25819 105.098 6.44415L106.75 9.26818L108.388 6.45631C108.521 6.27384 108.695 6.13046 108.894 6.04096C109.117 5.93061 109.358 5.87413 109.603 5.875C109.843 5.87673 110.074 5.97492 110.252 6.15045C110.443 6.32076 110.566 6.56232 110.599 6.82735L111.425 14.6295C111.439 14.7393 111.43 14.8508 111.399 14.957C111.367 15.0632 111.314 15.1617 111.243 15.2464C111.171 15.3283 111.082 15.3935 110.983 15.4376C110.885 15.4801 110.779 15.5 110.673 15.4958C110.493 15.4992 110.316 15.444 110.169 15.3385C110.103 15.2938 110.047 15.2358 110.005 15.1682C109.962 15.0986 109.933 15.0213 109.919 14.9406ZM113.291 14.6921V6.75175C113.291 6.65413 113.31 6.55746 113.349 6.46761C113.386 6.37956 113.442 6.30048 113.512 6.2356C113.58 6.16594 113.661 6.11083 113.751 6.07363C113.841 6.03643 113.937 6.01792 114.034 6.01924H114.676C115.679 5.998 116.666 6.27699 117.509 6.82039C117.956 7.08542 118.328 7.47731 118.583 7.95261C118.839 8.42879 118.969 8.97013 118.959 9.52017V14.6903C118.961 14.7973 118.941 14.9035 118.899 15.0023C118.859 15.099 118.799 15.1861 118.723 15.2577C118.648 15.3333 118.559 15.393 118.461 15.4333C118.362 15.4736 118.257 15.4937 118.15 15.4923C118.047 15.4933 117.945 15.473 117.85 15.4326C117.756 15.3923 117.67 15.3327 117.599 15.2577C117.524 15.1858 117.464 15.0988 117.424 15.0023C117.383 14.9037 117.362 14.7979 117.363 14.6912V9.68874C117.363 9.41242 117.307 9.13871 117.199 8.88846C117.093 8.64071 116.936 8.41826 116.738 8.23589C116.49 8.00452 116.198 7.82497 115.879 7.70771C115.56 7.59045 115.222 7.53782 114.882 7.55291V14.6912C114.885 14.7969 114.865 14.9019 114.824 14.9994C114.783 15.097 114.723 15.185 114.646 15.2577C114.571 15.3332 114.482 15.3928 114.383 15.4331C114.285 15.4734 114.18 15.4935 114.073 15.4923C113.97 15.4933 113.868 15.473 113.773 15.4326C113.679 15.3923 113.593 15.3327 113.522 15.2577C113.447 15.1853 113.389 15.098 113.349 15.0014C113.309 14.903 113.29 14.7975 113.291 14.6912V14.6921ZM124.08 6.00534C124.171 6.00369 124.262 6.02207 124.346 6.05921C124.431 6.09706 124.508 6.15242 124.57 6.2217C124.703 6.36073 124.792 6.54147 124.824 6.73785L126.308 14.6564C126.333 14.761 126.332 14.8701 126.306 14.9745C126.28 15.0773 126.228 15.1718 126.156 15.249C126.084 15.3312 125.994 15.3965 125.894 15.4402C125.796 15.4831 125.69 15.503 125.583 15.4984C125.414 15.499 125.248 15.4494 125.107 15.3559C125.039 15.3136 124.98 15.2565 124.937 15.1889C124.893 15.1213 124.865 15.0448 124.854 14.9649L123.591 7.40519H123.271L121.996 14.9562C121.98 15.041 121.947 15.1217 121.899 15.1934C121.853 15.2637 121.792 15.3233 121.721 15.3681C121.584 15.4516 121.427 15.4947 121.267 15.4923C121.171 15.4937 121.075 15.4752 120.986 15.438C120.897 15.4008 120.816 15.3456 120.749 15.276C120.681 15.2164 120.627 15.1429 120.59 15.0605C120.552 14.9763 120.531 14.8853 120.529 14.7929C120.528 14.7477 120.533 14.7026 120.545 14.659L122.087 6.75262C122.104 6.55572 122.187 6.3704 122.324 6.22778C122.39 6.15977 122.47 6.10597 122.558 6.06964C122.644 6.034 122.737 6.01712 122.83 6.02011L124.08 6.00534ZM133.079 15.3559H130.635C130.256 15.3559 129.882 15.2647 129.539 15.0909C129.192 14.9127 128.889 14.6588 128.653 14.348C128.096 13.6639 127.803 12.8028 127.827 11.921C127.827 10.3882 128.378 8.9962 129.479 7.74407C130.58 6.49281 131.78 5.86544 133.079 5.86283C133.177 5.86156 133.273 5.88017 133.363 5.91752C133.453 5.95487 133.535 6.01018 133.603 6.08006C133.673 6.14483 133.729 6.22394 133.766 6.31207C133.804 6.40204 133.823 6.49863 133.823 6.59621V14.606C133.824 14.7037 133.804 14.8003 133.766 14.8902C133.729 14.9782 133.673 15.0573 133.603 15.1222C133.536 15.1951 133.455 15.2535 133.365 15.2939C133.275 15.3343 133.178 15.3557 133.079 15.3568V15.3559ZM132.237 13.9231V7.5251C131.439 7.93292 130.777 8.56501 130.333 9.34378C129.817 10.1089 129.53 11.0055 129.506 11.928C129.506 13.2609 129.965 13.9265 130.883 13.9265L132.237 13.9239V13.9231ZM135.923 14.6886V6.67876C135.923 6.57203 135.943 6.46622 135.984 6.36768C136.024 6.27093 136.084 6.18382 136.161 6.11221C136.236 6.03666 136.325 5.97694 136.423 5.93663C136.522 5.89633 136.627 5.87625 136.733 5.8776C136.836 5.87657 136.938 5.89689 137.033 5.93727C137.128 5.97765 137.213 6.03722 137.283 6.11221C137.36 6.18382 137.42 6.27093 137.46 6.36768C137.501 6.46622 137.521 6.57203 137.521 6.67876V8.47397H140.017V6.67268C140.016 6.56595 140.037 6.46014 140.078 6.3616C140.118 6.26484 140.178 6.17774 140.254 6.10613C140.329 6.03058 140.418 5.97086 140.517 5.93055C140.615 5.89024 140.721 5.87017 140.827 5.87152C140.93 5.87053 141.032 5.89086 141.127 5.93124C141.222 5.97161 141.307 6.03116 141.378 6.10613C141.454 6.17802 141.513 6.26506 141.553 6.3616C141.594 6.46014 141.615 6.56595 141.614 6.67268V14.6825C141.615 14.7895 141.594 14.8956 141.553 14.9944C141.513 15.0907 141.453 15.1774 141.378 15.249C141.303 15.3244 141.214 15.384 141.115 15.4243C141.017 15.4646 140.911 15.4848 140.805 15.4837C140.702 15.4846 140.6 15.4642 140.505 15.4239C140.41 15.3835 140.325 15.324 140.254 15.249C140.178 15.1777 140.118 15.0909 140.078 14.9944C140.037 14.8956 140.016 14.7895 140.017 14.6825V9.90684H137.521V14.6921C137.521 14.7988 137.501 14.9046 137.46 15.0031C137.42 15.0999 137.36 15.187 137.283 15.2586C137.209 15.3342 137.119 15.3939 137.021 15.4342C136.923 15.4745 136.817 15.4946 136.711 15.4932C136.608 15.4942 136.506 15.4738 136.411 15.4335C136.317 15.3931 136.231 15.3336 136.161 15.2586C136.084 15.1869 136.023 15.0999 135.983 15.0031C135.941 14.9046 135.92 14.7988 135.921 14.6921L135.923 14.6886ZM145.38 14.6886V7.44168H143.728C143.634 7.44448 143.54 7.42786 143.452 7.39285C143.364 7.35783 143.285 7.30517 143.218 7.23812C143.152 7.17107 143.1 7.09107 143.065 7.00308C143.031 6.91508 143.015 6.82096 143.018 6.72655C143.018 6.63372 143.035 6.54166 143.07 6.45563C143.105 6.3696 143.156 6.29129 143.222 6.22518C143.287 6.15463 143.366 6.09841 143.455 6.06008C143.541 6.02288 143.634 6.00508 143.728 6.00794H148.62C148.715 6.00502 148.809 6.02155 148.897 6.05651C148.985 6.09148 149.064 6.14412 149.131 6.21118C149.198 6.27824 149.25 6.35828 149.284 6.44634C149.319 6.5344 149.335 6.62859 149.331 6.72307C149.331 6.91046 149.258 7.09044 149.127 7.22445C149.062 7.29515 148.983 7.3514 148.895 7.38955C148.808 7.42668 148.715 7.44448 148.62 7.44168H146.969V14.6921C146.973 14.7981 146.955 14.9038 146.917 15.0028C146.879 15.1018 146.821 15.1918 146.746 15.2673C146.672 15.3413 146.584 15.3994 146.487 15.4383C146.39 15.4771 146.286 15.4958 146.181 15.4932C146.079 15.4931 145.977 15.4722 145.882 15.4319C145.788 15.3916 145.702 15.3327 145.631 15.2586C145.55 15.1895 145.485 15.1035 145.441 15.0066C145.396 14.9079 145.371 14.8007 145.37 14.6921L145.38 14.6886ZM154.985 15.3559H152.527C152.148 15.3559 151.774 15.2647 151.431 15.0909C151.084 14.9127 150.781 14.6588 150.545 14.348C149.988 13.6639 149.695 12.8028 149.719 11.921C149.719 10.3882 150.27 8.9962 151.371 7.74407C152.472 6.49281 153.677 5.86544 154.985 5.86283C155.083 5.86161 155.179 5.88024 155.269 5.91759C155.359 5.95494 155.441 6.01022 155.508 6.08006C155.578 6.1435 155.633 6.22257 155.671 6.31207C155.709 6.40186 155.729 6.49853 155.729 6.59621V14.606C155.729 14.7036 155.709 14.8002 155.672 14.8902C155.634 14.9782 155.579 15.0573 155.508 15.1222C155.442 15.195 155.361 15.2535 155.271 15.2938C155.181 15.3342 155.084 15.3556 154.985 15.3568V15.3559ZM154.143 13.9231V7.5251C153.345 7.93315 152.683 8.56517 152.238 9.34378C151.722 10.1091 151.436 11.0056 151.412 11.928C151.412 13.2609 151.871 13.9265 152.789 13.9265L154.143 13.9239V13.9231ZM157.898 14.5165V6.67354C157.897 6.56681 157.918 6.46101 157.959 6.36247C157.999 6.26571 158.059 6.17861 158.135 6.107C158.21 6.03144 158.299 5.97173 158.398 5.93142C158.496 5.89111 158.601 5.87104 158.708 5.87239C158.811 5.87136 158.913 5.89168 159.007 5.93206C159.102 5.97244 159.187 6.03201 159.258 6.107C159.334 6.17861 159.394 6.26571 159.434 6.36247C159.475 6.46101 159.496 6.56681 159.495 6.67354V13.9274H161.991V6.67268C161.991 6.56595 162.011 6.46014 162.052 6.3616C162.092 6.26484 162.152 6.17774 162.229 6.10613C162.304 6.03058 162.393 5.97086 162.491 5.93055C162.59 5.89024 162.695 5.87017 162.801 5.87152C162.904 5.87053 163.007 5.89086 163.101 5.93124C163.196 5.97161 163.282 6.03116 163.352 6.10613C163.428 6.17802 163.488 6.26506 163.528 6.3616C163.569 6.46014 163.589 6.56595 163.589 6.67268V13.9265C163.684 13.9284 163.777 13.951 163.862 13.9926C163.95 14.0354 164.027 14.0957 164.09 14.1698C164.159 14.248 164.214 14.3419 164.251 14.4435C164.287 14.5452 164.305 14.6538 164.302 14.7633V17.5456C164.304 17.6396 164.287 17.733 164.252 17.8202C164.217 17.9058 164.165 17.9831 164.098 18.047C163.96 18.1753 163.779 18.247 163.591 18.2477C163.403 18.2466 163.222 18.175 163.085 18.047C163.018 17.9833 162.966 17.9063 162.932 17.8211C162.896 17.7337 162.879 17.6399 162.881 17.5456V15.3559H158.738C158.628 15.3584 158.518 15.3384 158.415 15.2971C158.312 15.2559 158.219 15.1943 158.14 15.1161C158.062 15.0413 157.999 14.9507 157.958 14.8502C157.915 14.7472 157.894 14.6367 157.895 14.5252L157.898 14.5165ZM169.901 6.66399C169.901 6.55726 169.921 6.45145 169.962 6.35291C170.002 6.25637 170.062 6.16933 170.138 6.09744C170.286 5.94834 170.487 5.86398 170.697 5.86283C170.8 5.86191 170.902 5.88227 170.997 5.92265C171.092 5.96302 171.177 6.02253 171.247 6.09744C171.324 6.16905 171.384 6.25615 171.424 6.35291C171.465 6.45145 171.485 6.55726 171.485 6.66399V14.6738C171.485 14.7805 171.465 14.8863 171.424 14.9849C171.384 15.0817 171.324 15.1688 171.247 15.2404C171.173 15.3159 171.083 15.3756 170.985 15.4159C170.887 15.4562 170.781 15.4763 170.675 15.475C170.572 15.476 170.47 15.4557 170.375 15.4153C170.28 15.3749 170.195 15.3153 170.125 15.2404C170.048 15.1688 169.988 15.0817 169.948 14.9849C169.907 14.8863 169.887 14.7805 169.887 14.6738V11.4674L167.754 14.434L167.451 14.8545L167.295 15.0683C167.216 15.1886 167.111 15.29 166.989 15.3655C166.865 15.4375 166.724 15.4742 166.581 15.4715C166.478 15.4725 166.376 15.4521 166.281 15.4118C166.186 15.3714 166.101 15.3119 166.03 15.2369C165.955 15.1652 165.895 15.0785 165.855 14.9823C165.814 14.8837 165.793 14.7779 165.794 14.6712V6.66138C165.793 6.55436 165.814 6.44824 165.855 6.34943C165.895 6.25321 165.955 6.16647 166.03 6.09484C166.105 6.01944 166.194 5.95983 166.293 5.91953C166.391 5.87924 166.497 5.85907 166.603 5.86022C166.706 5.85923 166.808 5.87957 166.903 5.91994C166.998 5.96031 167.083 6.01986 167.154 6.09484C167.23 6.16643 167.29 6.25317 167.33 6.34943C167.371 6.44762 167.391 6.55363 167.39 6.66138V12.6622L169.887 9.10308L169.901 6.66399ZM177.403 6.66399C177.402 6.55726 177.423 6.45145 177.464 6.35291C177.504 6.25615 177.564 6.16905 177.64 6.09744C177.715 6.02189 177.804 5.96217 177.903 5.92186C178.001 5.88155 178.106 5.86148 178.213 5.86283C178.316 5.86184 178.418 5.88217 178.513 5.92255C178.608 5.96292 178.693 6.02247 178.764 6.09744C178.839 6.16933 178.899 6.25637 178.939 6.35291C178.98 6.45145 179.001 6.55726 179 6.66399V14.6738C179.001 14.7805 178.98 14.8863 178.939 14.9849C178.899 15.0814 178.839 15.1685 178.764 15.2404C178.689 15.3158 178.599 15.3755 178.501 15.4158C178.402 15.4561 178.297 15.4762 178.19 15.475C178.087 15.4758 177.985 15.4554 177.891 15.4151C177.796 15.3747 177.711 15.3152 177.64 15.2404C177.564 15.1688 177.504 15.0817 177.464 14.9849C177.423 14.8863 177.402 14.7805 177.403 14.6738V11.4674L175.27 14.434L174.966 14.8545L174.81 15.0683C174.731 15.1886 174.627 15.29 174.504 15.3655C174.381 15.4376 174.24 15.4743 174.097 15.4715C173.994 15.4725 173.892 15.4521 173.797 15.4117C173.702 15.3714 173.617 15.3118 173.547 15.2369C173.47 15.1655 173.41 15.0787 173.37 14.9823C173.329 14.8837 173.308 14.7779 173.309 14.6712V6.66138C173.308 6.55436 173.329 6.44824 173.37 6.34943C173.41 6.25299 173.47 6.16619 173.547 6.09484C173.621 6.01928 173.711 5.95956 173.809 5.91926C173.907 5.87895 174.013 5.85887 174.119 5.86022C174.222 5.8593 174.324 5.87967 174.419 5.92004C174.513 5.96042 174.599 6.01993 174.669 6.09484C174.745 6.16619 174.806 6.25299 174.846 6.34943C174.887 6.44824 174.907 6.55436 174.906 6.66138V12.6622L177.403 9.10308V6.66312V6.66399ZM30.8052 11.4197C31.7664 11.3261 32.6907 11.0011 33.4989 10.4725C34.7589 5.58912 33.1166 2.26545 31.3631 1.24445C30.2169 0.588408 28.3826 0.402457 26.5648 1.10977C23.6504 2.24633 22.2445 5.74726 19.2458 6.54668C17.6756 6.96811 15.7927 6.52061 14.1573 5.88629C13.0381 5.45356 11.9033 4.72714 13.5578 6.11048C17.7252 9.62618 21.5797 7.65544 26.1642 5.25979C27.3095 4.66892 28.2688 4.33264 29.0213 4.56812C29.9606 4.85834 30.5228 5.86283 30.7244 7.04458C30.8997 8.49642 30.9267 9.96233 30.8052 11.4197ZM8.00701 14.1898L9.85176 14.0551C9.59629 11.1842 7.51085 3.96161 11.9459 2.92236C13.695 2.51309 16.1211 3.65227 18.1987 4.34741C18.7375 4.53336 19.2892 4.67761 19.8497 4.78101C20.5866 4.9044 20.9419 4.78101 20.0669 4.37174C18.6801 3.72178 17.5957 2.62866 16.3192 1.79014C14.4823 0.630986 12.4725 -0.277918 10.3792 0.0783449C5.79558 0.851695 6.1501 5.25632 6.88001 9.0857C7.20033 10.7988 7.57619 12.5011 8.00701 14.1898ZM31.4699 15.7365H32.0087V15.8251C19.4326 16.6289 5.82599 18.4676 9.91345 23.0703C7.43004 21.9103 5.61571 20.2106 9.23742 18.5953C12.9773 16.9296 21.5797 15.8825 31.4699 15.74V15.7356V15.7365ZM36.1118 5.80114C37.257 12.1617 31.0198 13.6146 24.628 14.1785C18.6149 14.712 12.1171 14.6225 6.20745 15.7243C0.821807 16.7175 -2.07 18.5797 1.73071 21.1343C3.03411 22.0154 5.78341 22.6802 8.88203 23.066C5.60007 21.7365 4.74069 20.4418 5.23338 19.4955C5.81035 18.4059 7.66292 17.2076 11.1013 16.6054C14.7569 15.9711 19.3414 15.786 22.1802 15.3915C25.4074 14.9788 37.6507 14.3871 40.1532 11.3658C41.9832 9.16738 39.9924 7.78752 36.1153 5.80461L36.1109 5.80114H36.1118ZM29.1699 19.4573C28.3678 18.6266 28.5477 18.2981 28.5816 17.1928C27.8197 17.8805 26.9661 18.4592 26.0452 18.9125C22.6303 20.5504 17.6756 21.3194 12.3543 20.4583C14.9559 22.0424 20.1547 22.27 24.2578 21.2847C25.9461 20.8867 27.5276 20.149 29.1699 19.4573ZM28.1576 23.6612C27.4476 22.7723 27.7266 22.7071 27.7752 21.6096C26 23.0434 23.0274 23.9236 19.7611 24.0209C17.6575 24.0911 15.5537 23.8925 13.5004 23.43C14.1182 23.8762 14.7976 24.23 15.5172 24.4806C20.0096 25.9056 24.1388 25.1062 28.1576 23.6612ZM27.306 27.2673C26.7638 26.3279 26.9845 25.7475 27.1453 25.1914C25.5334 26.652 22.4313 27.2742 19.3075 27.0856C17.5035 26.9799 15.7258 26.602 14.0348 25.9647C14.8568 26.8258 16.5599 27.4332 17.8555 27.7921C20.9341 28.6575 24.1396 28.2179 27.306 27.2664V27.2673ZM26.5848 30.4814C26.3253 29.8716 26.2625 29.1961 26.4049 28.5489C25.1589 29.3649 22.665 29.709 20.2659 29.5195C18.0423 29.3301 15.704 28.5568 14.7039 27.9728C15.2652 28.7001 16.3766 29.3223 17.3437 29.7663C20.464 31.2 23.6313 31.0228 26.5839 30.4814H26.5848ZM25.7506 33.395C25.6336 33.099 25.5793 32.782 25.5913 32.464C25.6033 32.146 25.6812 31.8339 25.8201 31.5476C25.246 31.9322 24.5937 32.1844 23.9102 32.2862C21.2895 32.7076 17.5036 32.0082 16.0985 31.0106C16.7129 32.0307 17.8364 32.5573 18.9895 32.9657C21.2661 33.7469 24.0362 33.6079 25.7515 33.395H25.7506ZM25.0103 35.5708C24.7696 35.1381 24.7809 34.6506 25.0676 33.9745C24.2117 34.7244 22.6989 34.9217 21.2096 34.8131C19.7194 34.7053 18.3099 34.3143 17.4123 33.7234C18.0119 34.6471 19.1658 35.2076 20.4032 35.4778C21.9221 35.7785 23.481 35.8106 25.0103 35.5708ZM24.2726 38.0863C24.0857 37.6571 24.1466 37.174 24.3768 36.4945C23.6999 37.2669 22.5121 37.4763 21.3391 37.3868C20.2664 37.3351 19.2316 36.9742 18.3595 36.3476C19.8871 38.619 23.0048 38.294 24.2726 38.0855V38.0863ZM53.1524 28.0754H52.7527L51.4102 35.2701H54.5088L53.1524 28.0754ZM52.2201 27.0952H53.6955C53.8411 27.0901 53.9835 27.139 54.0952 27.2325C54.2026 27.3267 54.2729 27.4561 54.2933 27.5974L55.8131 35.2701H55.9191C56.0702 35.2668 56.2172 35.3195 56.3318 35.4178C56.3858 35.462 56.4294 35.5175 56.4596 35.5803C56.4891 35.6429 56.5039 35.7107 56.503 35.7785V37.717C56.5031 37.7845 56.4876 37.8511 56.4578 37.9117C56.4272 37.9735 56.3833 38.0278 56.3292 38.0707C56.2102 38.1704 56.0587 38.223 55.9035 38.2184C55.7492 38.2234 55.5981 38.1745 55.476 38.0803C55.4199 38.0367 55.3747 37.9808 55.3439 37.9169C55.3137 37.8538 55.2994 37.7843 55.3022 37.7144V36.2433H50.7307V37.7144C50.7305 37.782 50.7148 37.8486 50.6847 37.9091C50.6543 37.9708 50.6106 38.0251 50.5569 38.0681C50.4378 38.1683 50.2858 38.2209 50.1303 38.2158C49.9765 38.2208 49.8257 38.1723 49.7036 38.0785C49.6471 38.0346 49.6015 37.9781 49.5707 37.9134C49.5406 37.8506 49.5263 37.7814 49.529 37.7118V35.7785C49.529 35.7107 49.5446 35.6446 49.575 35.5838C49.6057 35.522 49.6496 35.4677 49.7036 35.4248C49.8226 35.3249 49.9741 35.2723 50.1294 35.2771L51.6109 27.5957C51.6144 27.5245 51.6331 27.4549 51.6657 27.3915C51.6989 27.3269 51.7451 27.2699 51.8012 27.2238C51.9195 27.1293 52.0691 27.083 52.2201 27.0943V27.0952ZM60.1447 36.3493C59.7487 36.374 59.3537 36.288 59.0038 36.1008C58.6632 35.9193 58.384 35.6408 58.2018 35.3005C57.8394 34.6688 57.6587 33.6991 57.6587 32.3905C57.6209 31.7337 57.8129 31.0842 58.2018 30.5536C58.6276 30.0287 59.2706 29.7654 60.1317 29.7654C60.9919 29.7654 61.6349 30.0287 62.0607 30.5536C62.4517 31.0984 62.6429 31.7466 62.6055 32.4009C62.6055 33.587 62.4231 34.5107 62.0616 35.1728C61.8992 35.531 61.6323 35.8317 61.2961 36.0357C60.9498 36.2467 60.551 36.3557 60.1456 36.3502L60.1447 36.3493ZM60.1447 30.7595C59.9719 30.7448 59.7982 30.7753 59.6407 30.8481C59.4843 30.9202 59.3514 31.0323 59.2593 31.1714C59.057 31.553 58.963 31.9827 58.9873 32.4139C58.9552 33.1491 59.0221 33.885 59.1863 34.6037C59.3549 35.1207 59.6694 35.3796 60.1317 35.3796C60.594 35.3796 60.905 35.1207 61.0641 34.6045C61.2361 33.8859 61.3074 33.1491 61.2761 32.4139C61.3057 31.9817 61.2183 31.5495 61.0232 31.1627C60.9295 31.0227 60.7995 30.9109 60.647 30.8394C60.4907 30.7657 60.3179 30.7337 60.1456 30.7465V30.7595H60.1447ZM65.3966 32.5382V35.8141C65.3975 35.8877 65.3814 35.9605 65.3496 36.027C65.317 36.0949 65.2699 36.1548 65.2115 36.2025C65.0852 36.31 64.9236 36.367 64.7579 36.3624C64.6008 36.3638 64.4488 36.3068 64.3312 36.2025C64.2726 36.1552 64.2252 36.0956 64.1922 36.0278C64.1597 35.9613 64.1431 35.8881 64.1436 35.8141V30.325C64.1428 30.251 64.1592 30.1779 64.1913 30.1113C64.2242 30.0432 64.2717 29.9833 64.3304 29.9357C64.4561 29.8286 64.617 29.7716 64.7822 29.7759C64.8963 29.7762 65.0081 29.8073 65.106 29.8659C65.2039 29.9244 65.2841 30.0083 65.3383 30.1087C65.3702 30.1754 65.3863 30.2485 65.3853 30.3224V31.5546H65.6381C65.7945 31.5607 65.9501 31.5285 66.09 31.4633C66.2672 31.3504 66.4054 31.1914 66.4897 31.0054L66.9294 30.1391C66.9878 30.0302 67.0749 29.9394 67.1813 29.8767C67.3011 29.8057 67.4384 29.77 67.5775 29.7737C67.7167 29.7774 67.8519 29.8203 67.9677 29.8975C68.0233 29.9305 68.0703 29.9757 68.1033 30.0296C68.1358 30.0825 68.1538 30.143 68.1554 30.2051L68.1146 30.3754L67.7557 31.1053C67.6669 31.2882 67.5641 31.464 67.4481 31.631C67.327 31.8025 67.1784 31.9528 67.0084 32.0759C67.1179 32.2045 67.2092 32.3462 67.2795 32.4974C67.3073 32.5434 67.4142 32.8249 67.601 33.3411L68.4917 35.702L68.5195 35.8497C68.5203 35.9185 68.5045 35.9865 68.4734 36.0478C68.4417 36.1107 68.3959 36.1654 68.3396 36.2077C68.2113 36.3059 68.0527 36.3563 67.8913 36.3502C67.7659 36.3612 67.6404 36.3307 67.5341 36.2633C67.4312 36.1989 67.3545 36.1001 67.3178 35.9844L66.4019 33.5192C66.3405 33.3603 66.2826 33.2001 66.2281 33.0387C66.1624 32.8526 66.0628 32.6803 65.9344 32.5304L65.3957 32.5382H65.3966ZM71.0064 35.8141V30.8377H69.7012C69.5557 30.843 69.4134 30.7944 69.3015 30.7013C69.2496 30.6574 69.208 30.6025 69.1799 30.5405C69.1525 30.48 69.1394 30.414 69.1417 30.3476C69.1417 30.2833 69.1556 30.2199 69.1834 30.1608C69.2464 30.0364 69.3546 29.9407 69.4858 29.8932C69.5547 29.8677 69.6278 29.8556 69.7012 29.8575H73.561C73.7066 29.8525 73.849 29.9014 73.9608 29.9948C74.0128 30.0373 74.0544 30.0913 74.0821 30.1525C74.1098 30.2137 74.123 30.2805 74.1206 30.3476C74.1207 30.4125 74.1064 30.4766 74.0789 30.5353C74.0158 30.6597 73.9077 30.7554 73.7765 30.8029C73.7076 30.8281 73.6344 30.8399 73.561 30.8377H72.2663V35.801C72.269 35.8752 72.2544 35.949 72.2238 36.0165C72.1923 36.0852 72.146 36.146 72.0882 36.1947C71.9636 36.2997 71.8045 36.3551 71.6416 36.3502C71.4803 36.3531 71.3237 36.2961 71.2019 36.1903C71.1415 36.1438 71.0923 36.0844 71.0577 36.0165C71.0237 35.9497 71.0059 35.876 71.0055 35.801V35.8141H71.0064ZM77.3739 36.3624C76.9775 36.387 76.5822 36.3007 76.2321 36.113C75.8919 35.9316 75.6131 35.6534 75.431 35.3136C75.0686 34.681 74.887 33.7113 74.887 32.4035C74.8497 31.7466 75.042 31.0972 75.431 30.5666C75.8568 30.0409 76.4998 29.7785 77.36 29.7785C78.2211 29.7785 78.8641 30.0409 79.2899 30.5666C79.6809 31.1105 79.8721 31.7588 79.8339 32.4139C79.8339 33.5992 79.6523 34.5237 79.2899 35.1858C79.1253 35.5414 78.8577 35.8393 78.5218 36.0409C78.176 36.2494 77.7786 36.3566 77.3748 36.3502V36.3624H77.3739ZM77.3739 30.7717C77.2005 30.7567 77.0262 30.7872 76.8682 30.8603C76.7118 30.9333 76.5806 31.0454 76.4876 31.1835C76.2857 31.5653 76.1919 31.9949 76.2165 32.4261C76.1839 33.1619 76.2505 33.8987 76.4146 34.6167C76.5832 35.1337 76.8986 35.3918 77.36 35.3918C77.8223 35.3918 78.1334 35.1337 78.2924 34.6167C78.4653 33.8981 78.5357 33.1621 78.5044 32.427C78.5343 31.9948 78.4472 31.5626 78.2524 31.1757C78.1606 31.0334 78.0313 30.9191 77.8788 30.8455C77.7223 30.7692 77.5485 30.7351 77.3748 30.7465V30.7725L77.3739 30.7717ZM81.4266 37.7092V30.2659C81.4268 30.1988 81.4423 30.1325 81.4718 30.0722C81.5025 30.0104 81.5464 29.9561 81.6004 29.9132C81.7151 29.8147 81.8621 29.7621 82.0132 29.7654C83.0333 29.7654 83.983 30.2147 84.8615 31.1123C85.7409 32.0108 86.1797 32.9544 86.1797 33.9433C86.175 34.2662 86.0921 34.5831 85.9381 34.8669C85.7835 35.1537 85.5619 35.4031 85.2882 35.5977C84.7918 36.0145 84.1671 36.2476 83.519 36.2581H82.6762V37.684C82.6769 37.758 82.6605 37.8312 82.6284 37.8978C82.5955 37.9658 82.548 38.0258 82.4893 38.0733C82.3635 38.1803 82.2026 38.2372 82.0375 38.2332C81.8807 38.2344 81.729 38.1774 81.6117 38.0733C81.553 38.0258 81.5055 37.9658 81.4727 37.8978C81.4411 37.831 81.4253 37.7579 81.4266 37.684V37.7101V37.7092ZM84.8459 33.9667C84.8203 33.3237 84.5898 32.7056 84.1881 32.2028C83.8137 31.6503 83.2891 31.2164 82.6762 30.9524V35.2701H83.38C83.7345 35.2727 84.0777 35.1598 84.3506 34.9495C84.5122 34.8296 84.6408 34.6758 84.7268 34.5003C84.8137 34.3247 84.8546 34.1336 84.8485 33.9407L84.8459 33.9667ZM91.627 36.2842H89.6971C89.3982 36.2842 89.1028 36.2216 88.8325 36.1017C88.5658 35.9842 88.3275 35.8105 88.1339 35.5925C87.9201 35.373 87.7519 35.1133 87.639 34.8285C87.5261 34.5436 87.4707 34.2392 87.4761 33.9328C87.4829 33.397 87.6022 32.8686 87.8263 32.3818C88.0546 31.8854 88.3813 31.4405 88.7865 31.0741C89.6598 30.219 90.6069 29.7915 91.627 29.7915C91.7781 29.7881 91.9251 29.8408 92.0398 29.9392C92.0939 29.9809 92.1377 30.0345 92.1679 30.0958C92.198 30.1571 92.2136 30.2246 92.2136 30.2929V35.7811C92.2135 35.8492 92.1978 35.9165 92.1677 35.9777C92.1375 36.0388 92.0938 36.0922 92.0398 36.1338C91.9216 36.2235 91.7751 36.2677 91.627 36.2581V36.2842ZM90.9632 35.2701V30.8942C90.3538 31.1561 89.8323 31.5873 89.4608 32.1368C89.0584 32.6445 88.8297 33.268 88.8082 33.9155C88.8082 34.8287 89.1706 35.2849 89.8952 35.2849L90.9632 35.2701ZM100.204 28.3552V27.5071C100.205 27.4297 100.222 27.3533 100.255 27.2834C100.289 27.2136 100.337 27.152 100.397 27.103C100.531 26.9951 100.698 26.9366 100.87 26.9371C101.044 26.9371 101.212 26.9961 101.343 27.1022C101.404 27.1518 101.453 27.2141 101.487 27.2846C101.52 27.3539 101.537 27.4301 101.536 27.5071V28.363H102.014C102.954 28.363 103.691 28.5872 104.224 29.0364C104.496 29.2788 104.709 29.5734 104.847 29.901C104.985 30.2277 105.045 30.5788 105.023 30.9298C105.045 31.7888 104.784 32.6311 104.279 33.3263C104.032 33.686 103.697 33.977 103.306 34.1718C102.911 34.3717 102.467 34.4733 102.017 34.4672H101.539V35.8471C101.54 35.9238 101.523 35.9997 101.489 36.0687C101.456 36.1393 101.407 36.2015 101.346 36.2512C101.212 36.3589 101.045 36.4172 100.872 36.4162C100.701 36.417 100.534 36.3587 100.4 36.2512C100.34 36.2022 100.291 36.1406 100.258 36.0707C100.225 36.0009 100.207 35.9245 100.207 35.8471V34.4672H99.7177C99.272 34.4746 98.8313 34.3735 98.4334 34.1727C98.0451 33.9775 97.7133 33.6861 97.4697 33.3263C96.9652 32.6309 96.7035 31.7887 96.7251 30.9298C96.7035 30.5778 96.7638 30.2257 96.9015 29.901C97.0424 29.5702 97.2552 29.2748 97.5245 29.0364C98.0571 28.5872 98.7888 28.363 99.7203 28.363L100.204 28.3552ZM100.204 29.3371H99.9323C99.3023 29.3371 98.8583 29.4274 98.6011 29.6108C98.2726 29.8462 98.1084 30.2833 98.1084 30.922C98.1084 31.744 98.2509 32.3748 98.5359 32.8154C98.6706 33.0291 98.867 33.2047 99.1016 33.3211C99.3371 33.4375 99.6021 33.4914 99.8671 33.4758H100.212L100.204 29.3362V29.3371ZM101.536 29.3371V33.4906H101.867C102.133 33.5018 102.397 33.4454 102.629 33.3263C102.863 33.2081 103.057 33.0318 103.192 32.818C103.52 32.2468 103.675 31.5926 103.637 30.935C103.637 30.3024 103.473 29.8688 103.145 29.6334C102.879 29.4439 102.43 29.3492 101.8 29.3492L101.536 29.3362V29.3371ZM110.179 32.52H107.504C107.504 33.3793 107.655 34.0406 107.956 34.5055C108.119 34.7653 108.356 34.9782 108.641 35.1215C108.928 35.2649 109.247 35.3319 109.567 35.3162C109.644 35.3139 109.721 35.3263 109.794 35.3527C109.932 35.4041 110.046 35.5072 110.11 35.6403C110.138 35.7038 110.152 35.7725 110.152 35.8419C110.152 35.9101 110.136 35.9773 110.106 36.0384C110.076 36.0996 110.032 36.153 109.978 36.1947C109.863 36.2931 109.716 36.3457 109.564 36.3424C108.367 36.3424 107.484 35.9131 106.918 35.0538C106.45 34.3017 106.218 33.4273 106.251 32.5425C106.218 31.8238 106.427 31.1146 106.844 30.5284C107.042 30.2743 107.3 30.0731 107.595 29.9427C107.896 29.809 108.225 29.7483 108.554 29.7654C108.858 29.755 109.161 29.8063 109.443 29.9158C109.724 30.0252 109.977 30.1895 110.184 30.3989C110.602 30.8307 110.823 31.3973 110.804 31.9795C110.805 32.0532 110.788 32.1261 110.756 32.1924C110.723 32.2604 110.675 32.3203 110.617 32.3679C110.494 32.4708 110.339 32.5265 110.179 32.5252V32.5208V32.52ZM108.549 30.7412C108.283 30.7354 108.023 30.8179 107.809 30.9759C107.714 31.0386 107.636 31.1232 107.581 31.2226C107.526 31.3196 107.497 31.4287 107.496 31.5398H109.559C109.559 31.43 109.532 31.322 109.48 31.2252C109.427 31.1259 109.352 31.0403 109.26 30.975C109.058 30.8223 108.81 30.7419 108.556 30.7465L108.549 30.7412ZM116.487 30.2616V36.3598C116.483 36.6237 116.411 36.8822 116.277 37.1097C116.139 37.3425 115.947 37.5379 115.716 37.6788C115.1 38.068 114.38 38.2571 113.653 38.2202C113.505 38.2245 113.361 38.174 113.248 38.0785C113.197 38.0358 113.155 37.9826 113.126 37.9224C113.098 37.8623 113.082 37.7967 113.081 37.7301C113.081 37.6633 113.096 37.5973 113.124 37.5371C113.153 37.4769 113.196 37.424 113.248 37.3825C113.36 37.2863 113.505 37.2353 113.653 37.2391C114.067 37.2652 114.48 37.1653 114.829 36.955C114.954 36.8768 115.055 36.7725 115.126 36.6483C115.196 36.5266 115.233 36.3889 115.234 36.2485H113.971C113.674 36.2485 113.38 36.1877 113.11 36.0722C112.843 35.958 112.604 35.7886 112.408 35.5751C112.193 35.3595 112.024 35.1027 111.911 34.8202C111.798 34.5377 111.743 34.2353 111.75 33.9311C111.758 33.3924 111.878 32.8614 112.108 32.367C112.34 31.8683 112.672 31.422 113.082 31.0549C113.97 30.186 114.91 29.7533 115.902 29.7533C116.054 29.7499 116.201 29.8025 116.316 29.901C116.372 29.9441 116.417 29.9994 116.448 30.0626C116.479 30.1259 116.495 30.1955 116.495 30.2659L116.487 30.2616ZM115.245 35.2701V30.9298C114.637 31.1989 114.116 31.6337 113.742 32.1845C113.344 32.6857 113.115 33.3008 113.09 33.9407C113.058 34.3013 113.162 34.661 113.383 34.9573C113.48 35.067 113.6 35.1532 113.734 35.2093C113.872 35.2661 114.02 35.2927 114.169 35.2875L115.245 35.2701ZM120.548 36.3424C120.151 36.367 119.756 36.2807 119.406 36.093C119.066 35.9119 118.787 35.6336 118.605 35.2936C118.242 34.661 118.061 33.6913 118.061 32.3827C118.023 31.7257 118.215 31.0762 118.605 30.5457C119.031 30.0209 119.674 29.7585 120.534 29.7585C121.395 29.7585 122.038 30.0209 122.464 30.5457C122.851 31.081 123.043 31.7332 123.008 32.3931C123.008 33.5792 122.826 34.5037 122.464 35.1659C122.303 35.5253 122.036 35.8273 121.7 36.0322C121.358 36.2433 120.957 36.3537 120.548 36.3502V36.3424ZM120.548 30.7517C120.374 30.7367 120.2 30.7672 120.042 30.8403C119.886 30.9133 119.754 31.0245 119.661 31.1635C119.46 31.5454 119.366 31.9749 119.389 32.4061C119.357 33.1412 119.424 33.8772 119.588 34.5958C119.757 35.1137 120.072 35.3718 120.534 35.3718C120.996 35.3718 121.307 35.1137 121.466 34.5967C121.638 33.8799 121.709 33.1426 121.678 32.4061C121.707 31.9742 121.62 31.5424 121.425 31.1557C121.331 31.017 121.2 30.9067 121.047 30.8368C120.891 30.7643 120.719 30.7332 120.548 30.7465V30.7517ZM124.6 37.6892V30.2659C124.6 30.1987 124.616 30.1324 124.646 30.0722C124.676 30.0104 124.72 29.9561 124.774 29.9132C124.889 29.8146 125.036 29.762 125.187 29.7654C126.207 29.7654 127.157 30.2147 128.035 31.1123C128.914 32.0108 129.35 32.9536 129.343 33.9407C129.338 34.2622 129.255 34.5776 129.101 34.8643C128.947 35.1511 128.724 35.4005 128.452 35.5951C127.955 36.0118 127.33 36.245 126.682 36.2555H125.845V37.6814C125.845 37.7554 125.829 37.8285 125.797 37.8952C125.764 37.9634 125.716 38.0234 125.657 38.0707C125.532 38.1778 125.371 38.2347 125.206 38.2306C125.049 38.232 124.897 38.175 124.779 38.0707C124.722 38.0244 124.676 37.9655 124.645 37.8986C124.614 37.8317 124.599 37.7586 124.6 37.6849V37.6892ZM128.019 33.9459C127.994 33.3027 127.763 32.6844 127.361 32.1819C126.987 31.6298 126.463 31.1962 125.85 30.9324V35.2701H126.554C126.907 35.2727 127.251 35.1598 127.524 34.9495C127.685 34.8296 127.814 34.6758 127.901 34.5003C127.986 34.3265 128.028 34.1343 128.022 33.9407L128.019 33.9459ZM133.183 36.3554C132.786 36.3797 132.391 36.293 132.041 36.1052C131.701 35.924 131.422 35.6458 131.24 35.3058C130.878 34.674 130.696 33.7034 130.696 32.3957C130.659 31.7388 130.851 31.0894 131.24 30.5588C131.666 30.0331 132.309 29.7707 133.17 29.7707C134.03 29.7707 134.673 30.0331 135.099 30.5588C135.49 31.1036 135.68 31.7518 135.643 32.4061C135.643 33.5922 135.461 34.5159 135.099 35.178C134.936 35.534 134.671 35.8329 134.336 36.0357C133.991 36.2456 133.595 36.3545 133.192 36.3502L133.183 36.3554ZM133.183 30.7647C133.01 30.7499 132.836 30.7804 132.678 30.8533C132.524 30.924 132.392 31.0358 132.297 31.1766C132.095 31.5581 132.001 31.9879 132.025 32.4192C131.993 33.1546 132.059 33.8912 132.224 34.6089C132.392 35.1259 132.708 35.384 133.17 35.384C133.631 35.384 133.942 35.1259 134.102 34.6097C134.274 33.8929 134.345 33.1556 134.313 32.4192C134.344 31.987 134.256 31.5547 134.061 31.1679C133.969 31.0283 133.84 30.9164 133.689 30.8438C133.535 30.7693 133.363 30.7358 133.192 30.7465L133.183 30.7638V30.7647ZM137.183 35.7046V30.4441C137.183 30.3664 137.2 30.2895 137.233 30.2194C137.267 30.1493 137.316 30.088 137.377 30.04C137.509 29.9287 137.677 29.8699 137.85 29.8749H139.399C139.914 29.8578 140.422 29.9972 140.856 30.2746C141.042 30.3928 141.194 30.5527 141.297 30.7404C141.4 30.9272 141.453 31.1357 141.448 31.346C141.453 31.5806 141.385 31.81 141.25 32.0064C141.1 32.212 140.916 32.3901 140.706 32.533C140.995 32.7676 141.233 33.0526 141.405 33.3715C141.582 33.6843 141.675 34.0336 141.677 34.3882C141.676 34.645 141.614 34.898 141.498 35.1268C141.38 35.3579 141.209 35.5612 140.997 35.722C140.527 36.1008 139.937 36.2992 139.334 36.2816H137.845C137.672 36.2865 137.503 36.2278 137.371 36.1165C137.309 36.0646 137.26 35.9985 137.229 35.9238C137.198 35.849 137.185 35.7679 137.192 35.6872L137.183 35.7046ZM138.434 30.8559V31.9178H139.312C139.53 31.9334 139.748 31.9021 139.951 31.8265C140.032 31.7787 140.099 31.7088 140.142 31.625C140.185 31.5432 140.201 31.4505 140.19 31.3591C140.19 31.0202 139.907 30.8507 139.339 30.8507L138.434 30.8559ZM138.434 32.8892V35.2701H139.285C139.432 35.2835 139.58 35.2679 139.722 35.2241C139.861 35.1806 139.991 35.1094 140.1 35.0155C140.281 34.8045 140.372 34.5308 140.353 34.2535C140.364 34.0046 140.312 33.757 140.2 33.534C140.031 33.2806 139.817 33.0603 139.568 32.884L138.434 32.8892ZM147.131 36.2659H145.202C144.903 36.2659 144.608 36.2034 144.337 36.0835C144.071 35.9664 143.832 35.793 143.639 35.5751C143.425 35.3556 143.257 35.096 143.144 34.8111C143.031 34.5262 142.976 34.2218 142.981 33.9155C142.987 33.3783 143.105 32.8483 143.329 32.3601C143.558 31.8625 143.885 31.4165 144.291 31.0488C145.165 30.1938 146.111 29.7654 147.131 29.7654C147.282 29.762 147.43 29.8146 147.545 29.9132C147.599 29.9548 147.643 30.0084 147.673 30.0697C147.703 30.1311 147.718 30.1985 147.718 30.2668V35.7559C147.718 35.824 147.703 35.8913 147.673 35.9525C147.642 36.0136 147.599 36.0671 147.545 36.1086C147.432 36.2059 147.288 36.2591 147.14 36.2581L147.131 36.2668V36.2659ZM146.465 35.2701V30.8942C145.856 31.1562 145.334 31.5875 144.962 32.1368C144.56 32.6446 144.332 33.2681 144.31 33.9155C144.31 34.8287 144.673 35.2849 145.397 35.2849L146.465 35.2701Z" fill="#DF8743"/>
</svg>
