<svg width="29" height="30" viewBox="0 0 29 30" fill="none" xmlns="http://www.w3.org/2000/svg">
<path fill-rule="evenodd" clip-rule="evenodd" d="M28.1237 15C28.1237 22.7822 21.828 29.0909 14.0619 29.0909C6.29571 29.0909 0 22.7822 0 15C0 7.21777 6.29571 0.909058 14.0619 0.909058C21.828 0.909058 28.1237 7.21777 28.1237 15ZM9.50103 23.2743C9.80807 23.2743 10.0569 23.0249 10.0569 22.7172V12.7768C10.0569 12.4691 9.80807 12.2197 9.50103 12.2197H7.13461C6.82757 12.2197 6.57869 12.4691 6.57869 12.7768V22.7172C6.57869 23.0249 6.82757 23.2743 7.13461 23.2743H9.50103ZM8.31782 11.2827C7.07623 11.2827 6.06971 10.2741 6.06971 9.02995C6.06971 7.7858 7.07623 6.77719 8.31782 6.77719C9.55941 6.77719 10.5659 7.7858 10.5659 9.02995C10.5659 10.2741 9.55946 11.2827 8.31782 11.2827ZM21.9126 23.2743C22.1949 23.2743 22.4238 23.045 22.4238 22.7621V17.9511V17.9156C22.4239 15.8168 22.4242 12.0529 18.3809 12.0529C16.5447 12.0529 15.6823 12.7265 15.102 13.5992V12.7319C15.102 12.4491 14.8732 12.2197 14.5909 12.2197H12.1349C11.8526 12.2197 11.6238 12.4491 11.6238 12.7319V22.7621C11.6238 23.045 11.8526 23.2743 12.1349 23.2743H14.5909C14.8732 23.2743 15.102 23.045 15.102 22.7621V17.3843C15.1658 16.6617 15.4832 15.0515 17.0482 15.0515C18.9171 15.0515 18.8801 17.0701 18.8645 17.9204C18.8633 17.988 18.8622 18.0482 18.8622 18.0995V22.7621C18.8622 23.045 19.091 23.2743 19.3733 23.2743H21.9126Z" fill="white"/>
</svg>
