<svg width="170" height="28" viewBox="0 0 170 28" fill="none" xmlns="http://www.w3.org/2000/svg">
<path d="M99.8873 24.3447C99.8873 26.2831 98.291 27.8795 96.3525 27.8795H75.9988C74.0603 27.8795 72.4639 26.2831 72.4639 24.3447V4.04786C72.4639 2.10941 74.0603 0.513062 75.9988 0.513062H96.3525C98.291 0.513062 99.8873 2.10941 99.8873 4.04786V24.3447Z" fill="#C6111E"/>
<path d="M76.0558 11.1744H83.1824V4.04773H89.2258V11.1744H96.2955V17.2179H89.2258V24.3445H83.1824V17.2179H76.0558V11.1744Z" fill="white"/>
<path d="M16.4198 0V27.5375H9.29317V15.9637H7.12667V27.5375H0V0H7.18368V9.80633H9.35018V0H16.4198Z" fill="#1D479B"/>
<path d="M34.6641 12.828V18.3583C34.6641 20.3538 34.5501 21.8931 34.379 22.8053C34.208 23.7175 33.7519 24.6297 33.0107 25.4279C32.3265 26.2261 31.4713 26.8533 30.4451 27.2524C29.3618 27.6515 28.2216 27.8225 26.7962 27.8225C25.2569 27.8225 24.0026 27.6515 22.9764 27.3094C21.8931 27.0243 21.0949 26.5112 20.5248 25.77C19.9546 25.0859 19.5556 24.2307 19.2705 23.3184C19.0424 22.4062 18.9284 20.9239 18.9284 19.0424V13.2271C18.9284 11.1176 19.1565 9.46423 19.6126 8.38098C20.0687 7.1837 20.9239 6.27147 22.0641 5.58731C23.2614 4.90315 24.6868 4.61804 26.5112 4.61804C28.0505 4.61804 29.3618 4.84614 30.5021 5.30224C31.6424 5.75835 32.4406 6.38548 33.0677 7.06964C33.6378 7.7538 34.0369 8.609 34.322 9.35018C34.5501 10.0343 34.6641 11.2316 34.6641 12.828ZM27.8225 11.1176C27.8225 9.97731 27.7655 9.23618 27.6514 8.95111C27.5374 8.66604 27.2524 8.49498 26.9103 8.49498C26.5112 8.49498 26.2261 8.60903 26.1121 8.95111C25.9981 9.29319 25.884 10.0343 25.884 11.1176V21.323C25.884 22.4062 25.941 23.0904 26.0551 23.4324C26.1691 23.7175 26.4542 23.9456 26.7962 23.9456C27.1953 23.9456 27.4804 23.8316 27.5944 23.4895C27.7085 23.2044 27.7655 22.5773 27.7655 21.551V11.1176H27.8225Z" fill="#1D479B"/>
<path d="M52.8514 21.494C52.8514 23.7745 52.3382 25.3709 51.312 26.1691C50.3428 26.9673 48.0622 27.4233 44.7555 27.4233H36.8876V4.90308H44.9835C47.7772 4.90308 49.6586 5.3592 50.7419 6.27141C51.8251 7.12661 52.2812 8.72302 52.2812 10.9465C52.2812 13.5121 50.9129 14.9945 48.2903 15.2795C49.6586 15.5076 50.7419 16.0207 51.5971 16.9329C52.3382 17.7881 52.7944 18.8714 52.7944 20.1827C52.8514 20.1827 52.8514 21.494 52.8514 21.494ZM43.7292 13.2841C44.8125 13.2841 45.4396 13.17 45.6677 12.8849C45.8957 12.5999 46.0098 12.1438 46.0098 11.3456C46.0098 10.7185 45.8957 10.2053 45.6107 9.97728C45.3256 9.74922 44.7555 9.63521 43.7292 9.63521V13.2841ZM46.0668 20.4677V19.7265C46.0668 18.8143 45.9528 18.1302 45.6677 17.9021C45.3826 17.6741 44.8125 17.5601 43.7862 17.5601V22.8053C44.6985 22.8053 45.3256 22.6913 45.6107 22.4062C45.7817 22.0641 46.0668 21.437 46.0668 20.4677Z" fill="#1D479B"/>
<path d="M60.9472 13.683H54.5047V12.1437C54.5047 10.3763 54.6758 9.00798 55.0749 8.09577C55.4739 7.18355 56.2721 6.32834 57.4694 5.58717C58.7237 4.90301 60.2631 4.4469 62.1445 4.4469C64.482 4.4469 66.1924 4.84596 67.4467 5.70116C68.701 6.49935 69.3282 7.52563 69.5562 8.6659C69.7843 9.86318 69.8983 12.3148 69.8983 16.0776V27.4232H63.2278V25.4278C62.8287 26.2259 62.3155 26.8531 61.5744 27.2522C60.8332 27.6513 60.092 27.8224 59.1798 27.8224C57.9825 27.8224 56.8993 27.5373 55.873 26.8531C54.9038 26.1689 54.3337 24.6866 54.3337 22.4061V20.5246C54.3337 18.8142 54.6187 17.731 55.0749 17.1038C55.588 16.5337 56.9563 15.7356 59.0658 14.9374C61.2893 14.0822 62.5436 13.455 62.7146 13.1699C62.8287 12.8848 62.9427 12.2577 62.9427 11.2885C62.9427 10.0912 62.8287 9.35005 62.6576 9.00797C62.4866 8.66588 62.2015 8.49483 61.8024 8.49483C61.3463 8.49483 61.1183 8.60889 60.9472 8.95097C60.8332 9.23603 60.7762 10.0912 60.7762 11.2885V13.626H60.9472V13.683ZM63.1137 16.7618C61.9735 17.5599 61.3463 18.2441 61.1753 18.7572C61.0042 19.2703 60.8902 20.1255 60.8902 21.0948C60.8902 22.292 61.0042 23.0332 61.1183 23.3183C61.2323 23.6034 61.5744 23.8314 62.0305 23.8314C62.4296 23.8314 62.7146 23.7174 62.8287 23.4323C62.9427 23.1472 62.9997 22.5201 62.9997 21.3228L63.1137 16.7618Z" fill="#1D479B"/>
<path d="M102.396 0.798096H107.641C111.005 0.798096 113.285 0.91215 114.426 1.25423C115.623 1.59631 116.535 2.05239 117.105 2.79356C117.676 3.47772 118.075 4.33291 118.246 5.13109C118.36 5.98629 118.474 7.69672 118.474 10.1483V19.5555C118.474 21.9501 118.36 23.5464 118.189 24.3446C118.018 25.1428 117.561 25.8269 116.991 26.226C116.478 26.6821 115.737 26.9672 114.939 27.1382C114.141 27.3093 112.886 27.4233 111.176 27.4233H102.396V0.798096ZM109.352 5.35916V22.9193C110.321 22.9193 110.948 22.7483 111.176 22.3492C111.404 21.9501 111.518 20.8098 111.518 19.0424V8.66596C111.518 7.46868 111.461 6.72745 111.404 6.32836C111.29 6.04329 111.119 5.75825 110.891 5.64423C110.606 5.47319 110.15 5.35916 109.352 5.35916Z" fill="#1D479B"/>
<path d="M135.977 16.9329H127.368V21.6649C127.368 22.6341 127.482 23.3183 127.596 23.6034C127.71 23.8885 127.995 24.0025 128.394 24.0025C128.907 24.0025 129.192 23.8315 129.363 23.4894C129.534 23.1473 129.648 22.3491 129.648 21.3229V18.4722H135.977V20.0115C135.977 21.3798 135.863 22.4061 135.692 23.1473C135.521 23.8314 135.179 24.6867 134.494 25.4849C133.867 26.283 133.069 26.9672 132.1 27.3663C131.188 27.7653 129.933 27.9934 128.451 27.9934C127.026 27.9934 125.828 27.8223 124.688 27.4233C123.548 27.0242 122.75 26.511 122.18 25.7129C121.609 25.0287 121.21 24.1735 120.925 23.3753C120.697 22.5201 120.583 21.2658 120.583 19.6695V13.227C120.583 11.2885 120.868 9.80618 121.324 8.72292C121.837 7.58266 122.693 6.78447 123.89 6.15732C125.087 5.58719 126.399 5.30212 127.938 5.30212C129.819 5.30212 131.359 5.64422 132.556 6.38539C133.81 7.06955 134.608 8.03872 135.122 9.17899C135.635 10.3763 135.806 11.9727 135.806 14.0822L135.977 16.9329ZM129.306 13.341V11.7446C129.306 10.6043 129.249 9.86319 129.135 9.57812C129.021 9.29306 128.793 9.06499 128.451 9.06499C127.995 9.06499 127.767 9.17899 127.596 9.46405C127.482 9.74912 127.425 10.5473 127.425 11.7446V13.341C127.311 13.341 129.306 13.341 129.306 13.341Z" fill="#1D479B"/>
<path d="M153.822 27.4803H147.208V19.3844H144.814V27.4232H138.2V5.64417H144.814V13.512H147.208V5.64417H153.822V27.4803Z" fill="#1D479B"/>
<path d="M169.387 5.64417V10.2052H165.567V27.4803H158.953V10.2052H155.076V5.64417H169.387Z" fill="#1D479B"/>
</svg>
