<svg width="171" height="80" viewBox="0 0 171 80" fill="none" xmlns="http://www.w3.org/2000/svg">
<path fill-rule="evenodd" clip-rule="evenodd" d="M106.19 0C100.572 0 96 4.57155 96 10.1902C96 15.8089 100.572 20.3804 106.19 20.3804C111.809 20.3804 116.38 15.8089 116.38 10.1902C116.38 4.57155 111.809 0 106.19 0ZM111.886 7.50858L105.373 13.97C104.99 14.3531 104.377 14.3787 103.968 13.9956L100.52 10.8542C100.112 10.4712 100.086 9.83267 100.444 9.42404C100.827 9.01541 101.465 8.98987 101.874 9.37296L104.607 11.8758L110.43 6.05284C110.838 5.64421 111.477 5.64421 111.886 6.05284C112.294 6.46147 112.294 7.09995 111.886 7.50858ZM160.81 0C155.191 0 150.62 4.57155 150.62 10.1902C150.62 15.8089 155.191 20.3804 160.81 20.3804C166.428 20.3804 171 15.8089 171 10.1902C171 4.57155 166.428 0 160.81 0ZM166.505 7.50858L159.993 13.97C159.609 14.3531 158.996 14.3787 158.588 13.9956L155.14 10.8542C154.731 10.4712 154.706 9.83267 155.063 9.42404C155.447 9.01541 156.085 8.98987 156.494 9.37296L159.226 11.8758L165.049 6.05284C165.458 5.64421 166.096 5.64421 166.505 6.05284C166.914 6.46147 166.914 7.09995 166.505 7.50858ZM96 39.538C96 33.9194 100.572 29.3478 106.19 29.3478C111.809 29.3478 116.38 33.9194 116.38 39.538C116.38 45.1567 111.809 49.7283 106.19 49.7283C100.572 49.7283 96 45.1567 96 39.538ZM105.373 43.3179L111.886 36.8564C112.294 36.4478 112.294 35.8093 111.886 35.4007C111.477 34.992 110.838 34.992 110.43 35.4007L104.607 41.2236L101.874 38.7208C101.465 38.3377 100.827 38.3632 100.444 38.7719C100.086 39.1805 100.112 39.819 100.52 40.2021L103.968 43.3434C104.377 43.7265 104.99 43.701 105.373 43.3179ZM160.81 29.3478C155.191 29.3478 150.62 33.9194 150.62 39.538C150.62 45.1567 155.191 49.7283 160.81 49.7283C166.428 49.7283 171 45.1567 171 39.538C171 33.9194 166.428 29.3478 160.81 29.3478ZM166.505 36.8564L159.993 43.3179C159.609 43.701 158.996 43.7265 158.588 43.3434L155.14 40.2021C154.731 39.819 154.706 39.1805 155.063 38.7719C155.447 38.3632 156.085 38.3377 156.494 38.7208L159.226 41.2236L165.049 35.4007C165.458 34.992 166.096 34.992 166.505 35.4007C166.914 35.8093 166.914 36.4478 166.505 36.8564ZM96 68.8859C96 63.2672 100.572 58.6957 106.19 58.6957C111.809 58.6957 116.38 63.2672 116.38 68.8859C116.38 74.5045 111.809 79.0761 106.19 79.0761C100.572 79.0761 96 74.5045 96 68.8859ZM105.373 72.6657L111.886 66.2042C112.294 65.7956 112.294 65.1571 111.886 64.7485C111.477 64.3399 110.838 64.3399 110.43 64.7485L104.607 70.5715L101.874 68.0686C101.465 67.6855 100.827 67.7111 100.444 68.1197C100.086 68.5283 100.112 69.1668 100.52 69.5499L103.968 72.6912C104.377 73.0743 104.99 73.0488 105.373 72.6657ZM160.81 58.6957C155.191 58.6957 150.62 63.2672 150.62 68.8859C150.62 74.5045 155.191 79.0761 160.81 79.0761C166.428 79.0761 171 74.5045 171 68.8859C171 63.2672 166.428 58.6957 160.81 58.6957ZM166.505 66.2042L159.993 72.6657C159.609 73.0488 158.996 73.0743 158.588 72.6912L155.14 69.5499C154.731 69.1668 154.706 68.5283 155.063 68.1197C155.447 67.7111 156.085 67.6855 156.494 68.0686L159.226 70.5715L165.049 64.7485C165.458 64.3399 166.096 64.3399 166.505 64.7485C166.914 65.1571 166.914 65.7956 166.505 66.2042ZM122.087 10.1902C122.087 4.57155 126.659 0 132.277 0C137.896 0 142.467 4.57155 142.467 10.1902C142.467 15.8089 137.896 20.3804 132.277 20.3804C126.659 20.3804 122.087 15.8089 122.087 10.1902ZM131.46 13.97L137.972 7.50858C138.381 7.09995 138.381 6.46147 137.972 6.05284C137.564 5.64421 136.925 5.64421 136.517 6.05284L130.694 11.8758L127.961 9.37296C127.552 8.98987 126.914 9.01541 126.531 9.42404C126.173 9.83267 126.199 10.4712 126.607 10.8542L130.055 13.9956C130.464 14.3787 131.077 14.3531 131.46 13.97ZM132.277 29.3478C126.659 29.3478 122.087 33.9194 122.087 39.538C122.087 45.1567 126.659 49.7283 132.277 49.7283C137.896 49.7283 142.467 45.1567 142.467 39.538C142.467 33.9194 137.896 29.3478 132.277 29.3478ZM137.972 36.8564L131.46 43.3179C131.077 43.701 130.464 43.7265 130.055 43.3434L126.607 40.2021C126.199 39.819 126.173 39.1805 126.531 38.7719C126.914 38.3632 127.552 38.3377 127.961 38.7208L130.694 41.2236L136.517 35.4007C136.925 34.992 137.564 34.992 137.972 35.4007C138.381 35.8093 138.381 36.4478 137.972 36.8564ZM122.087 68.8859C122.087 63.2672 126.659 58.6957 132.277 58.6957C137.896 58.6957 142.467 63.2672 142.467 68.8859C142.467 74.5045 137.896 79.0761 132.277 79.0761C126.659 79.0761 122.087 74.5045 122.087 68.8859ZM131.46 72.6657L137.972 66.2042C138.381 65.7956 138.381 65.1571 137.972 64.7485C137.564 64.3399 136.925 64.3399 136.517 64.7485L130.694 70.5715L127.961 68.0686C127.552 67.6855 126.914 67.7111 126.531 68.1197C126.173 68.5283 126.199 69.1668 126.607 69.5499L130.055 72.6912C130.464 73.0743 131.077 73.0488 131.46 72.6657Z" fill="url(#paint0_linear)"/>
<path fill-rule="evenodd" clip-rule="evenodd" d="M87.9995 11.5L81.5755 11.5L81.5672 11.5001C73.501 11.7888 69.3676 16.7162 65.5878 21.5013C65.4678 21.6532 65.3482 21.8049 65.2289 21.9563L65.2254 21.9608C61.6019 26.557 58.2306 30.8334 51.8201 30.8334H41V31.8334H51.8201C58.4866 31.8334 62.0283 27.3393 65.6491 22.745C65.7768 22.5829 65.9046 22.4207 66.0327 22.2586C69.7756 17.52 73.7566 12.7815 81.5797 12.5L88 12.5L87.9995 11.5ZM41 41.5H88V40.5H41V41.5ZM87.9994 70.8334L81.5755 70.8334L81.5672 70.8332C73.501 70.5446 69.3676 65.6172 65.5878 60.8321C65.4666 60.6787 65.3458 60.5255 65.2253 60.3726C61.6019 55.7764 58.2305 51.4999 51.8201 51.4999H41V50.4999H51.8201C58.4865 50.4999 62.0283 54.9941 65.6491 59.5884C65.7768 59.7505 65.9046 59.9127 66.0327 60.0748C69.7756 64.8134 73.7566 69.5518 81.5797 69.8334L88 69.8334L87.9994 70.8334Z" fill="#C7C7C7"/>
<path fill-rule="evenodd" clip-rule="evenodd" d="M2.66667 2.58586V29.4141H16.5H30.3333V2.58586H16.5H2.66667ZM16.5 0H33V32H16.5H0V0H16.5Z" fill="#D64C4B"/>
<path d="M14.2311 26.1818L17.7791 18.5804H19.3469V26.1818H21.5745V5.81818H17.6297C15.1187 5.81818 12.1271 8.37889 12.1271 12.5392C12.1271 16.7002 15.8813 18.3803 15.8813 18.3803L11.4254 26.1818H14.2311ZM15.6069 15.7837C15.0586 15.1156 14.5813 14.0044 14.5813 12.1596C14.5813 8.11863 16.9773 7.59667 17.3079 7.54431C17.3316 7.54043 17.3546 7.53914 17.3783 7.53914H19.2847V16.7801H17.8015C16.9537 16.7801 16.1349 16.4268 15.6069 15.7837Z" fill="#D64C4B"/>
<g clip-path="url(#clip0)">
<path d="M31.7917 60.805L18.7392 60.8044C18.1629 60.8044 17.6957 61.2569 17.6957 61.8153V65.8547C17.6957 66.4129 18.1629 66.8656 18.7392 66.8656H26.0896C25.2847 68.8891 23.7824 70.5837 21.8658 71.6605L25 76.9165C30.0276 74.0997 33 69.1573 33 63.6247C33 62.8369 32.9401 62.2737 32.8202 61.6396C32.7291 61.1579 32.2973 60.805 31.7917 60.805Z" fill="#167EE6"/>
<path d="M17 72.9348C13.4029 72.9348 10.2626 71.0308 8.57607 68.2134L3.1507 71.2428C5.91163 75.8784 11.0838 79 17 79C19.9023 79 22.6409 78.243 25 76.9237V76.9165L21.8658 71.6604C20.4322 72.466 18.7732 72.9348 17 72.9348Z" fill="#12B347"/>
<path d="M25 76.9237V76.9165L21.8658 71.6604C20.4322 72.4659 18.7733 72.9348 17 72.9348V79C19.9023 79 22.641 78.243 25 76.9237Z" fill="#0F993E"/>
<path d="M7.26087 63.5C7.26087 61.7823 7.74475 60.1754 8.57606 58.7866L3.15069 55.7572C1.78137 58.0354 1 60.6812 1 63.5C1 66.3188 1.78137 68.9646 3.15069 71.2428L8.57606 68.2134C7.74475 66.8246 7.26087 65.2177 7.26087 63.5Z" fill="#FFD500"/>
<path d="M17 54.0652C19.3457 54.0652 21.5003 54.8727 23.1833 56.2158C23.5984 56.5471 24.2019 56.5232 24.5822 56.1548L27.5366 53.2927C27.9681 52.8747 27.9373 52.1904 27.4764 51.8031C24.6567 49.4333 20.9879 48 17 48C11.0838 48 5.91163 51.1216 3.1507 55.7572L8.57607 58.7866C10.2626 55.9692 13.4029 54.0652 17 54.0652Z" fill="#FF4B26"/>
<path d="M23.1833 56.2158C23.5984 56.5471 24.2019 56.5232 24.5822 56.1548L27.5366 53.2927C27.968 52.8747 27.9373 52.1904 27.4764 51.8031C24.6567 49.4333 20.9879 48 17 48V54.0652C19.3456 54.0652 21.5003 54.8727 23.1833 56.2158Z" fill="#D93F21"/>
</g>
<defs>
<linearGradient id="paint0_linear" x1="175.839" y1="8.11213" x2="133.946" y2="9.00758" gradientUnits="userSpaceOnUse">
<stop stop-color="#D81F9F"/>
<stop offset="1" stop-color="#424AFD"/>
</linearGradient>
<clipPath id="clip0">
<rect width="32" height="31" fill="white" transform="translate(1 48)"/>
</clipPath>
</defs>
</svg>
