<svg width="62" height="25" viewBox="0 0 62 25" fill="none" xmlns="http://www.w3.org/2000/svg">
<g clip-path="url(#clip0)">
<path d="M16.7688 19.5196C16.3698 20.142 15.6007 20.6518 14.8315 20.6518C13.6921 20.6518 13.1512 19.5759 13.1512 17.9339C13.1512 16.0946 13.7497 14.8777 16.5118 14.8777H16.7688V19.5196ZM18.9613 19.0946V12.3866C18.9613 8.93392 17.5667 7.85803 15.031 7.85803C13.5789 7.85803 12.2679 8.45267 11.6129 8.99017L12.0406 10.9437C12.781 10.292 13.7497 9.69821 14.889 9.69821C16.1425 9.69821 16.7688 10.4902 16.7688 12.3589V13.2071H16.4552C12.4387 13.2071 10.8725 15.1321 10.8725 18.1893C10.8725 20.9911 12.2679 22.5196 14.3193 22.5196C15.5728 22.5196 16.3698 21.9821 16.997 21.1893H17.139C17.1677 21.5571 17.2531 22.0107 17.3385 22.3214H19.2182C19.0475 21.2542 18.9619 20.1753 18.9621 19.0946H18.9613ZM23.9464 11.2554C24.4586 10.5473 25.2574 9.83928 26.1973 9.83928C27.0509 9.83928 27.5361 10.2071 27.5361 11.283V22.3214H29.7861V11.0848C29.7861 8.90624 28.7887 7.85803 26.9089 7.85803C25.5701 7.85803 24.4882 8.73571 24.0893 9.27321H23.9464V8.02767H21.7252V22.3214H23.9464V11.2545V11.2554ZM36.3374 22.5196C37.5055 22.5196 38.3026 21.9821 38.9297 21.1893H39.0717L39.2424 22.3214H40.8949V2.08392H38.6728V8.39642C38.2459 8.08392 37.5334 7.85803 36.8496 7.85803C33.9733 7.85803 31.9795 10.4339 31.9795 15.7268C31.9795 20.142 33.5178 22.5196 36.3374 22.5196ZM38.6737 19.5473C38.3026 20.1134 37.7041 20.6518 36.5935 20.6518C34.9698 20.6518 34.3435 18.6134 34.3435 15.2741C34.3435 12.3589 35.1972 9.66964 36.9925 9.66964C37.7329 9.66964 38.2172 9.89642 38.6728 10.3482V19.5473H38.6737ZM51.3486 21.3598L50.8364 19.6607C50.2659 20.0571 49.3538 20.6232 48.1012 20.6232C46.3356 20.6232 45.4236 18.925 45.4236 15.6982H51.4052V14.4821C51.4052 9.64285 49.8391 7.85892 47.4462 7.85892C44.3983 7.85892 43.1161 11.1982 43.1161 15.7839C43.1161 20.1714 44.9401 22.5205 47.9018 22.5205C49.326 22.5205 50.4366 22.0679 51.3486 21.3598ZM47.4462 9.66964C48.7275 9.66964 49.1265 11.4527 49.1265 13.8866H45.4514C45.5952 11.3393 46.0786 9.66964 47.4462 9.66964ZM58.8964 8.05624L56.9313 13.2357L55.0803 8.05714H52.7719L55.4775 14.9339L52.488 22.3214H54.6804L56.8459 16.4339L59.0672 22.3214H61.3746L58.3843 14.7357L61.0619 8.05714H58.8964V8.05624Z" fill="black"/>
<path d="M7.21089 22.3214V15.1607L12.5087 -0.00982666H10.2588L6.12814 12.1036L2.53932 2.08392H0.0898743L4.96002 15.075V22.3214H7.21089Z" fill="#FF0000"/>
</g>
<defs>
<clipPath id="clip0">
<rect width="62" height="25" fill="white"/>
</clipPath>
</defs>
</svg>
